%TF.GenerationSoftware,KiCad,Pcbnew,(6.0.2)*%
%TF.CreationDate,2022-07-06T23:05:57-05:00*%
%TF.ProjectId,ssc,7373632e-6b69-4636-9164-5f7063625858,rev?*%
%TF.SameCoordinates,Original*%
%TF.FileFunction,Copper,L2,Bot*%
%TF.FilePolarity,Positive*%
%FSLAX46Y46*%
G04 Gerber Fmt 4.6, Leading zero omitted, Abs format (unit mm)*
G04 Created by KiCad (PCBNEW (6.0.2)) date 2022-07-06 23:05:57*
%MOMM*%
%LPD*%
G01*
G04 APERTURE LIST*
%TA.AperFunction,Profile*%
%ADD10C,0.050000*%
%TD*%
%TA.AperFunction,ComponentPad*%
%ADD11C,1.600000*%
%TD*%
%TA.AperFunction,ComponentPad*%
%ADD12R,1.700000X1.700000*%
%TD*%
%TA.AperFunction,ComponentPad*%
%ADD13O,1.700000X1.700000*%
%TD*%
%TA.AperFunction,ComponentPad*%
%ADD14R,1.600000X1.600000*%
%TD*%
%TA.AperFunction,ComponentPad*%
%ADD15O,1.600000X1.600000*%
%TD*%
%TA.AperFunction,SMDPad,CuDef*%
%ADD16R,1.524000X6.350000*%
%TD*%
%TA.AperFunction,ComponentPad*%
%ADD17C,1.500000*%
%TD*%
%TA.AperFunction,ViaPad*%
%ADD18C,0.800000*%
%TD*%
%TA.AperFunction,Conductor*%
%ADD19C,0.350000*%
%TD*%
G04 APERTURE END LIST*
D10*
X127000000Y-127000000D02*
X192786000Y-127000000D01*
X192786000Y-119380000D02*
X200406000Y-119380000D01*
X127000000Y-119380000D02*
X127000000Y-127000000D01*
X101600000Y-41910000D02*
X101600000Y-119380000D01*
X101600000Y-41910000D02*
X200406000Y-41910000D01*
X101600000Y-119380000D02*
X127000000Y-119380000D01*
X200406000Y-41910000D02*
X200406000Y-119380000D01*
X192786000Y-119380000D02*
X192786000Y-127000000D01*
D11*
%TO.P,C17,1*%
%TO.N,Net-(R1-Pad2)*%
X187300000Y-107660000D03*
%TO.P,C17,2*%
%TO.N,GND*%
X187300000Y-102660000D03*
%TD*%
%TO.P,C8,1*%
%TO.N,Net-(R1-Pad1)*%
X198330000Y-116370000D03*
%TO.P,C8,2*%
%TO.N,GND*%
X193330000Y-116370000D03*
%TD*%
D12*
%TO.P,J2,1,DCD*%
%TO.N,Net-(J2-Pad1)*%
X190881000Y-50038000D03*
D13*
%TO.P,J2,2,RxD*%
%TO.N,Net-(J2-Pad2)*%
X193421000Y-50038000D03*
%TO.P,J2,3,TxD*%
%TO.N,Net-(J2-Pad3)*%
X190881000Y-52578000D03*
%TO.P,J2,4,DTR*%
%TO.N,Net-(J2-Pad4)*%
X193421000Y-52578000D03*
%TO.P,J2,5,GND*%
%TO.N,GND*%
X190881000Y-55118000D03*
%TO.P,J2,6,DSR*%
%TO.N,Net-(J2-Pad6)*%
X193421000Y-55118000D03*
%TO.P,J2,7,RTS*%
%TO.N,Net-(J2-Pad7)*%
X190881000Y-57658000D03*
%TO.P,J2,8,CTS*%
%TO.N,Net-(J2-Pad8)*%
X193421000Y-57658000D03*
%TO.P,J2,9,RI*%
%TO.N,unconnected-(J2-Pad9)*%
X190881000Y-60198000D03*
%TO.P,J2,10*%
%TO.N,N/C*%
X193421000Y-60198000D03*
%TD*%
D14*
%TO.P,U1,1,A->B*%
%TO.N,R~{W}*%
X106553000Y-92710000D03*
D15*
%TO.P,U1,2,A0*%
%TO.N,D7*%
X106553000Y-95250000D03*
%TO.P,U1,3,A1*%
%TO.N,D6*%
X106553000Y-97790000D03*
%TO.P,U1,4,A2*%
%TO.N,D5*%
X106553000Y-100330000D03*
%TO.P,U1,5,A3*%
%TO.N,D4*%
X106553000Y-102870000D03*
%TO.P,U1,6,A4*%
%TO.N,D3*%
X106553000Y-105410000D03*
%TO.P,U1,7,A5*%
%TO.N,D2*%
X106553000Y-107950000D03*
%TO.P,U1,8,A6*%
%TO.N,D1*%
X106553000Y-110490000D03*
%TO.P,U1,9,A7*%
%TO.N,D0*%
X106553000Y-113030000D03*
%TO.P,U1,10,GND*%
%TO.N,GND*%
X106553000Y-115570000D03*
%TO.P,U1,11,B7*%
%TO.N,MD0*%
X114173000Y-115570000D03*
%TO.P,U1,12,B6*%
%TO.N,MD1*%
X114173000Y-113030000D03*
%TO.P,U1,13,B5*%
%TO.N,MD2*%
X114173000Y-110490000D03*
%TO.P,U1,14,B4*%
%TO.N,MD3*%
X114173000Y-107950000D03*
%TO.P,U1,15,B3*%
%TO.N,MD4*%
X114173000Y-105410000D03*
%TO.P,U1,16,B2*%
%TO.N,MD5*%
X114173000Y-102870000D03*
%TO.P,U1,17,B1*%
%TO.N,MD6*%
X114173000Y-100330000D03*
%TO.P,U1,18,B0*%
%TO.N,MD7*%
X114173000Y-97790000D03*
%TO.P,U1,19,CE*%
%TO.N,~{LATCHCE}*%
X114173000Y-95250000D03*
%TO.P,U1,20,VCC*%
%TO.N,+5V*%
X114173000Y-92710000D03*
%TD*%
D14*
%TO.P,U2,1,A14*%
%TO.N,GND*%
X128016000Y-69850000D03*
D15*
%TO.P,U2,2,A12*%
X128016000Y-72390000D03*
%TO.P,U2,3,A7*%
%TO.N,A7*%
X128016000Y-74930000D03*
%TO.P,U2,4,A6*%
%TO.N,A6*%
X128016000Y-77470000D03*
%TO.P,U2,5,A5*%
%TO.N,A5*%
X128016000Y-80010000D03*
%TO.P,U2,6,A4*%
%TO.N,A4*%
X128016000Y-82550000D03*
%TO.P,U2,7,A3*%
%TO.N,A3*%
X128016000Y-85090000D03*
%TO.P,U2,8,A2*%
%TO.N,A2*%
X128016000Y-87630000D03*
%TO.P,U2,9,A1*%
%TO.N,A1*%
X128016000Y-90170000D03*
%TO.P,U2,10,A0*%
%TO.N,A0*%
X128016000Y-92710000D03*
%TO.P,U2,11,D0*%
%TO.N,D0*%
X128016000Y-95250000D03*
%TO.P,U2,12,D1*%
%TO.N,D1*%
X128016000Y-97790000D03*
%TO.P,U2,13,D2*%
%TO.N,D2*%
X128016000Y-100330000D03*
%TO.P,U2,14,GND*%
%TO.N,GND*%
X128016000Y-102870000D03*
%TO.P,U2,15,D3*%
%TO.N,D3*%
X143256000Y-102870000D03*
%TO.P,U2,16,D4*%
%TO.N,D4*%
X143256000Y-100330000D03*
%TO.P,U2,17,D5*%
%TO.N,D5*%
X143256000Y-97790000D03*
%TO.P,U2,18,D6*%
%TO.N,D6*%
X143256000Y-95250000D03*
%TO.P,U2,19,D7*%
%TO.N,D7*%
X143256000Y-92710000D03*
%TO.P,U2,20,~{CS}*%
%TO.N,GND*%
X143256000Y-90170000D03*
%TO.P,U2,21,A10*%
%TO.N,ROMA10*%
X143256000Y-87630000D03*
%TO.P,U2,22,~{OE}*%
%TO.N,~{ROMOE}*%
X143256000Y-85090000D03*
%TO.P,U2,23,A11*%
%TO.N,GND*%
X143256000Y-82550000D03*
%TO.P,U2,24,A9*%
%TO.N,ROMA9*%
X143256000Y-80010000D03*
%TO.P,U2,25,A8*%
%TO.N,ROMA8*%
X143256000Y-77470000D03*
%TO.P,U2,26,A13*%
%TO.N,GND*%
X143256000Y-74930000D03*
%TO.P,U2,27,~{WE}*%
%TO.N,+5V*%
X143256000Y-72390000D03*
%TO.P,U2,28,VCC*%
X143256000Y-69850000D03*
%TD*%
D14*
%TO.P,U7,1,C1+*%
%TO.N,Net-(C10-Pad1)*%
X173228000Y-53784500D03*
D15*
%TO.P,U7,2,VS+*%
%TO.N,Net-(C16-Pad1)*%
X170688000Y-53784500D03*
%TO.P,U7,3,C1-*%
%TO.N,Net-(C10-Pad2)*%
X168148000Y-53784500D03*
%TO.P,U7,4,C2+*%
%TO.N,Net-(C12-Pad1)*%
X165608000Y-53784500D03*
%TO.P,U7,5,C2-*%
%TO.N,Net-(C12-Pad2)*%
X163068000Y-53784500D03*
%TO.P,U7,6,VS-*%
%TO.N,Net-(C14-Pad2)*%
X160528000Y-53784500D03*
%TO.P,U7,7,T2OUT*%
%TO.N,unconnected-(U7-Pad7)*%
X157988000Y-53784500D03*
%TO.P,U7,8,R2IN*%
%TO.N,Net-(J2-Pad1)*%
X155448000Y-53784500D03*
%TO.P,U7,9,R2OUT*%
%TO.N,Net-(U5-Pad16)*%
X155448000Y-61404500D03*
%TO.P,U7,10,T2IN*%
%TO.N,GND*%
X157988000Y-61404500D03*
%TO.P,U7,11,T1IN*%
%TO.N,Net-(U5-Pad11)*%
X160528000Y-61404500D03*
%TO.P,U7,12,R1OUT*%
%TO.N,Net-(U5-Pad17)*%
X163068000Y-61404500D03*
%TO.P,U7,13,R1IN*%
%TO.N,Net-(J2-Pad6)*%
X165608000Y-61404500D03*
%TO.P,U7,14,T1OUT*%
%TO.N,Net-(J2-Pad4)*%
X168148000Y-61404500D03*
%TO.P,U7,15,GND*%
%TO.N,GND*%
X170688000Y-61404500D03*
%TO.P,U7,16,VCC*%
%TO.N,+5V*%
X173228000Y-61404500D03*
%TD*%
D11*
%TO.P,C2,1*%
%TO.N,+5V*%
X146940000Y-69380000D03*
%TO.P,C2,2*%
%TO.N,GND*%
X146940000Y-74380000D03*
%TD*%
%TO.P,C3,1*%
%TO.N,+5V*%
X150710000Y-84770000D03*
%TO.P,C3,2*%
%TO.N,GND*%
X150710000Y-79770000D03*
%TD*%
%TO.P,C4,1*%
%TO.N,+5V*%
X153800000Y-93810000D03*
%TO.P,C4,2*%
%TO.N,GND*%
X158800000Y-93810000D03*
%TD*%
%TO.P,C5,1*%
%TO.N,+5V*%
X187400000Y-98660000D03*
%TO.P,C5,2*%
%TO.N,GND*%
X187400000Y-93660000D03*
%TD*%
%TO.P,C7,1*%
%TO.N,+5V*%
X177038000Y-61976000D03*
%TO.P,C7,2*%
%TO.N,GND*%
X177038000Y-56976000D03*
%TD*%
D14*
%TO.P,C12,1*%
%TO.N,Net-(C12-Pad1)*%
X162433000Y-48704500D03*
D11*
%TO.P,C12,2*%
%TO.N,Net-(C12-Pad2)*%
X159933000Y-48704500D03*
%TD*%
D14*
%TO.P,C13,1*%
%TO.N,GND*%
X128460500Y-48704500D03*
D11*
%TO.P,C13,2*%
%TO.N,Net-(C13-Pad2)*%
X125960500Y-48704500D03*
%TD*%
D14*
%TO.P,C16,1*%
%TO.N,Net-(C16-Pad1)*%
X175133000Y-48704500D03*
D11*
%TO.P,C16,2*%
%TO.N,GND*%
X172633000Y-48704500D03*
%TD*%
D14*
%TO.P,C14,1*%
%TO.N,GND*%
X156083000Y-48704500D03*
D11*
%TO.P,C14,2*%
%TO.N,Net-(C14-Pad2)*%
X153583000Y-48704500D03*
%TD*%
D14*
%TO.P,U5,1,VSS*%
%TO.N,GND*%
X187080000Y-69430000D03*
D15*
%TO.P,U5,2,CS1*%
%TO.N,A3*%
X184540000Y-69430000D03*
%TO.P,U5,3,~{CS2}*%
%TO.N,A2*%
X182000000Y-69430000D03*
%TO.P,U5,4,~{RES}*%
%TO.N,~{RES}*%
X179460000Y-69430000D03*
%TO.P,U5,5,RxC*%
%TO.N,unconnected-(U5-Pad5)*%
X176920000Y-69430000D03*
%TO.P,U5,6,XTAL1*%
%TO.N,SERCLK*%
X174380000Y-69430000D03*
%TO.P,U5,7,XTAL2*%
%TO.N,unconnected-(U5-Pad7)*%
X171840000Y-69430000D03*
%TO.P,U5,8,~{RTS}*%
%TO.N,Net-(U5-Pad8)*%
X169300000Y-69430000D03*
%TO.P,U5,9,~{CTS}*%
%TO.N,Net-(U4-Pad2)*%
X166760000Y-69430000D03*
%TO.P,U5,10,TxD*%
%TO.N,Net-(U5-Pad10)*%
X164220000Y-69430000D03*
%TO.P,U5,11,~{DTR}*%
%TO.N,Net-(U5-Pad11)*%
X161680000Y-69430000D03*
%TO.P,U5,12,RxD*%
%TO.N,Net-(U5-Pad12)*%
X159140000Y-69430000D03*
%TO.P,U5,13,RS0*%
%TO.N,A0*%
X156600000Y-69430000D03*
%TO.P,U5,14,RS1*%
%TO.N,A1*%
X154060000Y-69430000D03*
%TO.P,U5,15,VCC*%
%TO.N,+5V*%
X154060000Y-84670000D03*
%TO.P,U5,16,~{DCD}*%
%TO.N,Net-(U5-Pad16)*%
X156600000Y-84670000D03*
%TO.P,U5,17,~{DSR}*%
%TO.N,Net-(U5-Pad17)*%
X159140000Y-84670000D03*
%TO.P,U5,18,D0*%
%TO.N,D0*%
X161680000Y-84670000D03*
%TO.P,U5,19,D1*%
%TO.N,D1*%
X164220000Y-84670000D03*
%TO.P,U5,20,D2*%
%TO.N,D2*%
X166760000Y-84670000D03*
%TO.P,U5,21,D3*%
%TO.N,D3*%
X169300000Y-84670000D03*
%TO.P,U5,22,D4*%
%TO.N,D4*%
X171840000Y-84670000D03*
%TO.P,U5,23,D5*%
%TO.N,D5*%
X174380000Y-84670000D03*
%TO.P,U5,24,D6*%
%TO.N,D6*%
X176920000Y-84670000D03*
%TO.P,U5,25,D7*%
%TO.N,D7*%
X179460000Y-84670000D03*
%TO.P,U5,26,~{IRQ}*%
%TO.N,Net-(J1-Pad1)*%
X182000000Y-84670000D03*
%TO.P,U5,27,\u03D52*%
%TO.N,PHI2*%
X184540000Y-84670000D03*
%TO.P,U5,28,R/~{W}*%
%TO.N,R~{W}*%
X187080000Y-84670000D03*
%TD*%
D11*
%TO.P,C1,1*%
%TO.N,+5V*%
X113100000Y-87170000D03*
%TO.P,C1,2*%
%TO.N,GND*%
X108100000Y-87170000D03*
%TD*%
D14*
%TO.P,C9,1*%
%TO.N,Net-(C9-Pad1)*%
X141160500Y-48704500D03*
D11*
%TO.P,C9,2*%
%TO.N,Net-(C9-Pad2)*%
X138660500Y-48704500D03*
%TD*%
D14*
%TO.P,U6,1,C1+*%
%TO.N,Net-(C9-Pad1)*%
X145605500Y-53784500D03*
D15*
%TO.P,U6,2,VS+*%
%TO.N,Net-(C15-Pad1)*%
X143065500Y-53784500D03*
%TO.P,U6,3,C1-*%
%TO.N,Net-(C9-Pad2)*%
X140525500Y-53784500D03*
%TO.P,U6,4,C2+*%
%TO.N,Net-(C11-Pad1)*%
X137985500Y-53784500D03*
%TO.P,U6,5,C2-*%
%TO.N,Net-(C11-Pad2)*%
X135445500Y-53784500D03*
%TO.P,U6,6,VS-*%
%TO.N,Net-(C13-Pad2)*%
X132905500Y-53784500D03*
%TO.P,U6,7,T2OUT*%
%TO.N,Net-(J2-Pad7)*%
X130365500Y-53784500D03*
%TO.P,U6,8,R2IN*%
%TO.N,Net-(J2-Pad8)*%
X127825500Y-53784500D03*
%TO.P,U6,9,R2OUT*%
%TO.N,Net-(U4-Pad2)*%
X127825500Y-61404500D03*
%TO.P,U6,10,T2IN*%
%TO.N,Net-(U5-Pad8)*%
X130365500Y-61404500D03*
%TO.P,U6,11,T1IN*%
%TO.N,Net-(U5-Pad10)*%
X132905500Y-61404500D03*
%TO.P,U6,12,R1OUT*%
%TO.N,Net-(U5-Pad12)*%
X135445500Y-61404500D03*
%TO.P,U6,13,R1IN*%
%TO.N,Net-(J2-Pad2)*%
X137985500Y-61404500D03*
%TO.P,U6,14,T1OUT*%
%TO.N,Net-(J2-Pad3)*%
X140525500Y-61404500D03*
%TO.P,U6,15,GND*%
%TO.N,GND*%
X143065500Y-61404500D03*
%TO.P,U6,16,VCC*%
%TO.N,+5V*%
X145605500Y-61404500D03*
%TD*%
D11*
%TO.P,C6,1*%
%TO.N,+5V*%
X149415500Y-61976000D03*
%TO.P,C6,2*%
%TO.N,GND*%
X149415500Y-56976000D03*
%TD*%
D14*
%TO.P,C15,1*%
%TO.N,Net-(C15-Pad1)*%
X147510500Y-48704500D03*
D11*
%TO.P,C15,2*%
%TO.N,GND*%
X145010500Y-48704500D03*
%TD*%
D14*
%TO.P,C11,1*%
%TO.N,Net-(C11-Pad1)*%
X134810500Y-48704500D03*
D11*
%TO.P,C11,2*%
%TO.N,Net-(C11-Pad2)*%
X132310500Y-48704500D03*
%TD*%
D14*
%TO.P,C10,1*%
%TO.N,Net-(C10-Pad1)*%
X168783000Y-48704500D03*
D11*
%TO.P,C10,2*%
%TO.N,Net-(C10-Pad2)*%
X166283000Y-48704500D03*
%TD*%
D16*
%TO.P,P1,26,GND*%
%TO.N,GND*%
X190373000Y-123190000D03*
%TO.P,P1,27,~{DMAIN}*%
%TO.N,Net-(P1-Pad24)*%
X187833000Y-123190000D03*
%TO.P,P1,28,~{INTIN}*%
%TO.N,Net-(P1-Pad23)*%
X185293000Y-123190000D03*
%TO.P,P1,29,~{NMI}*%
%TO.N,unconnected-(P1-Pad29)*%
X182753000Y-123190000D03*
%TO.P,P1,30,~{IRQ}*%
%TO.N,~{IRQ}*%
X180213000Y-123190000D03*
%TO.P,P1,31,~{RES}*%
%TO.N,~{RES}*%
X177673000Y-123190000D03*
%TO.P,P1,32,~{INH}*%
%TO.N,unconnected-(P1-Pad32)*%
X175133000Y-123190000D03*
%TO.P,P1,33,-12V*%
%TO.N,unconnected-(P1-Pad33)*%
X172593000Y-123190000D03*
%TO.P,P1,34,-5V*%
%TO.N,unconnected-(P1-Pad34)*%
X170053000Y-123190000D03*
%TO.P,P1,35,COLORREF/M2B0*%
%TO.N,unconnected-(P1-Pad35)*%
X167513000Y-123190000D03*
%TO.P,P1,36,7M*%
%TO.N,unconnected-(P1-Pad36)*%
X164973000Y-123190000D03*
%TO.P,P1,37,Q3*%
%TO.N,unconnected-(P1-Pad37)*%
X162433000Y-123190000D03*
%TO.P,P1,38,PHI1*%
%TO.N,unconnected-(P1-Pad38)*%
X159893000Y-123190000D03*
%TO.P,P1,39,USER1/SYNC/M2SEL*%
%TO.N,unconnected-(P1-Pad39)*%
X157353000Y-123190000D03*
%TO.P,P1,40,PHI0*%
%TO.N,unconnected-(P1-Pad40)*%
X154813000Y-123190000D03*
%TO.P,P1,41,~{DEVSEL}*%
%TO.N,~{DEVSEL}*%
X152273000Y-123190000D03*
%TO.P,P1,42,D7*%
%TO.N,MD7*%
X149733000Y-123190000D03*
%TO.P,P1,43,D6*%
%TO.N,MD6*%
X147193000Y-123190000D03*
%TO.P,P1,44,D5*%
%TO.N,MD5*%
X144653000Y-123190000D03*
%TO.P,P1,45,D4*%
%TO.N,MD4*%
X142113000Y-123190000D03*
%TO.P,P1,46,D3*%
%TO.N,MD3*%
X139573000Y-123190000D03*
%TO.P,P1,47,D2*%
%TO.N,MD2*%
X137033000Y-123190000D03*
%TO.P,P1,48,D1*%
%TO.N,MD1*%
X134493000Y-123190000D03*
%TO.P,P1,49,D0*%
%TO.N,MD0*%
X131953000Y-123190000D03*
%TO.P,P1,50,+12V*%
%TO.N,unconnected-(P1-Pad50)*%
X129413000Y-123190000D03*
%TD*%
D14*
%TO.P,U4,1,~{RES}*%
%TO.N,~{RES}*%
X154165000Y-104440000D03*
D15*
%TO.P,U4,2,CTS*%
%TO.N,Net-(U4-Pad2)*%
X156705000Y-104440000D03*
%TO.P,U4,3,~{IOSTRB}*%
%TO.N,~{IOSTRB}*%
X159245000Y-104440000D03*
%TO.P,U4,4,~{DEVSEL}*%
%TO.N,~{DEVSEL}*%
X161785000Y-104440000D03*
%TO.P,U4,5,~{IOSEL}*%
%TO.N,~{IOSEL}*%
X164325000Y-104440000D03*
%TO.P,U4,6,R~{W}*%
%TO.N,R~{W}*%
X166865000Y-104440000D03*
%TO.P,U4,7,A11*%
%TO.N,A11*%
X169405000Y-104440000D03*
%TO.P,U4,8,A10*%
%TO.N,A10*%
X171945000Y-104440000D03*
%TO.P,U4,9,A9*%
%TO.N,A9*%
X174485000Y-104440000D03*
%TO.P,U4,10,A8*%
%TO.N,A8*%
X177025000Y-104440000D03*
%TO.P,U4,11,A3*%
%TO.N,A3*%
X179565000Y-104440000D03*
%TO.P,U4,12,GND*%
%TO.N,GND*%
X182105000Y-104440000D03*
%TO.P,U4,13*%
%TO.N,N/C*%
X182105000Y-96820000D03*
%TO.P,U4,14*%
X179565000Y-96820000D03*
%TO.P,U4,15*%
X177025000Y-96820000D03*
%TO.P,U4,16,~{LATCHCE}*%
%TO.N,~{LATCHCE}*%
X174485000Y-96820000D03*
%TO.P,U4,17,ROMA8*%
%TO.N,ROMA8*%
X171945000Y-96820000D03*
%TO.P,U4,18,ROMA9*%
%TO.N,ROMA9*%
X169405000Y-96820000D03*
%TO.P,U4,19,ROMA10*%
%TO.N,ROMA10*%
X166865000Y-96820000D03*
%TO.P,U4,20,~{ROMOE}*%
%TO.N,~{ROMOE}*%
X164325000Y-96820000D03*
%TO.P,U4,21,PHI2*%
%TO.N,PHI2*%
X161785000Y-96820000D03*
%TO.P,U4,22,D0*%
%TO.N,D0*%
X159245000Y-96820000D03*
%TO.P,U4,23*%
%TO.N,N/C*%
X156705000Y-96820000D03*
%TO.P,U4,24,VCC*%
%TO.N,+5V*%
X154165000Y-96820000D03*
%TD*%
D12*
%TO.P,J1,1,Pin_1*%
%TO.N,Net-(J1-Pad1)*%
X193548000Y-79502000D03*
D13*
%TO.P,J1,2,Pin_2*%
%TO.N,~{IRQ}*%
X193548000Y-82042000D03*
%TD*%
D14*
%TO.P,U3,1*%
%TO.N,Net-(R1-Pad1)*%
X197900000Y-103000000D03*
D15*
%TO.P,U3,2*%
X197900000Y-100460000D03*
%TO.P,U3,3*%
%TO.N,Net-(R1-Pad2)*%
X197900000Y-97920000D03*
%TO.P,U3,4*%
X197900000Y-95380000D03*
%TO.P,U3,5*%
X197900000Y-92840000D03*
%TO.P,U3,6*%
%TO.N,SERCLK*%
X197900000Y-90300000D03*
%TO.P,U3,7,GND*%
%TO.N,GND*%
X197900000Y-87760000D03*
%TO.P,U3,8*%
%TO.N,unconnected-(U3-Pad8)*%
X190280000Y-87760000D03*
%TO.P,U3,9*%
%TO.N,GND*%
X190280000Y-90300000D03*
%TO.P,U3,10*%
X190280000Y-92840000D03*
%TO.P,U3,11*%
%TO.N,unconnected-(U3-Pad11)*%
X190280000Y-95380000D03*
%TO.P,U3,12*%
%TO.N,GND*%
X190280000Y-97920000D03*
%TO.P,U3,13*%
X190280000Y-100460000D03*
%TO.P,U3,14,VCC*%
%TO.N,+5V*%
X190280000Y-103000000D03*
%TD*%
D17*
%TO.P,Y1,1,1*%
%TO.N,Net-(R1-Pad1)*%
X196440000Y-111940000D03*
%TO.P,Y1,2,2*%
%TO.N,Net-(R1-Pad2)*%
X191560000Y-111940000D03*
%TD*%
D11*
%TO.P,R1,1*%
%TO.N,Net-(R1-Pad1)*%
X197800000Y-107530000D03*
D15*
%TO.P,R1,2*%
%TO.N,Net-(R1-Pad2)*%
X190180000Y-107530000D03*
%TD*%
D18*
%TO.N,+5V*%
X186690000Y-115110000D03*
X145130000Y-74960000D03*
X137120000Y-59070000D03*
%TO.N,GND*%
X190246000Y-116078000D03*
%TO.N,Net-(P1-Pad24)*%
X187750000Y-116920000D03*
%TO.N,Net-(P1-Pad23)*%
X185330000Y-116980000D03*
%TO.N,R~{W}*%
X151150000Y-97510000D03*
X166930000Y-108480000D03*
X181420000Y-101250000D03*
%TO.N,A11*%
X162170000Y-111200000D03*
%TO.N,A10*%
X158510000Y-112250000D03*
%TO.N,A9*%
X156060000Y-113190000D03*
%TO.N,A8*%
X153660000Y-114370000D03*
%TO.N,A7*%
X142140000Y-106900000D03*
%TO.N,A6*%
X140400000Y-106890000D03*
%TO.N,A5*%
X138760000Y-106930000D03*
%TO.N,A4*%
X137080000Y-106930000D03*
%TO.N,A3*%
X135070000Y-107410000D03*
X178400000Y-101530000D03*
%TO.N,A2*%
X133540000Y-107490000D03*
X130740000Y-72600000D03*
%TO.N,A1*%
X125680000Y-71840000D03*
X131990000Y-107460000D03*
%TO.N,A0*%
X123800000Y-72160000D03*
X130360000Y-107630000D03*
%TO.N,~{IOSEL}*%
X129750000Y-109090000D03*
X159590000Y-109040000D03*
%TO.N,D0*%
X151780000Y-94620000D03*
X123350000Y-109030000D03*
%TO.N,D1*%
X122050000Y-107800000D03*
X150550000Y-95580000D03*
%TO.N,D2*%
X149510000Y-96600000D03*
X121300000Y-105850000D03*
%TO.N,D3*%
X140950000Y-89000000D03*
X121020000Y-103320000D03*
X126310000Y-98880000D03*
X151880000Y-88500000D03*
%TO.N,D4*%
X118770000Y-100860000D03*
X126150000Y-96520000D03*
X141700000Y-91490000D03*
X152060000Y-89660000D03*
%TO.N,D5*%
X126510000Y-93970000D03*
X150690000Y-93844500D03*
X117410000Y-99090000D03*
%TO.N,D6*%
X126250000Y-91520000D03*
X151620000Y-92994500D03*
%TO.N,D7*%
X125590000Y-88070000D03*
X152700000Y-92210000D03*
%TO.N,~{LATCHCE}*%
X141190000Y-93920000D03*
X130890000Y-90190000D03*
%TO.N,Net-(U4-Pad2)*%
X154100000Y-66270000D03*
X168200000Y-73240000D03*
%TO.N,Net-(U5-Pad10)*%
X158420000Y-71460000D03*
%TO.N,Net-(U5-Pad8)*%
X152540000Y-65470000D03*
%TO.N,Net-(U5-Pad17)*%
X163120000Y-73750000D03*
%TO.N,Net-(U5-Pad16)*%
X159710000Y-73790000D03*
%TO.N,PHI2*%
X163860000Y-93800000D03*
%TD*%
D19*
%TO.N,~{IRQ}*%
X184510000Y-105690000D02*
X180213000Y-109987000D01*
X184510000Y-101460000D02*
X184510000Y-105690000D01*
X185870000Y-100100000D02*
X184510000Y-101460000D01*
X185870000Y-89040000D02*
X185870000Y-100100000D01*
X186900480Y-88009520D02*
X185870000Y-89040000D01*
X187800480Y-88009520D02*
X186900480Y-88009520D01*
X190210000Y-85600000D02*
X187800480Y-88009520D01*
X190210000Y-84220000D02*
X190210000Y-85600000D01*
X192388000Y-82042000D02*
X190210000Y-84220000D01*
X193548000Y-82042000D02*
X192388000Y-82042000D01*
X180213000Y-109987000D02*
X180213000Y-123190000D01*
%TO.N,Net-(R1-Pad2)*%
X192952000Y-107530000D02*
X190180000Y-107530000D01*
X195072000Y-105410000D02*
X192952000Y-107530000D01*
X195072000Y-99822000D02*
X195072000Y-105410000D01*
X196974000Y-97920000D02*
X195072000Y-99822000D01*
X197900000Y-97920000D02*
X196974000Y-97920000D01*
%TO.N,+5V*%
X192024000Y-99694000D02*
X191540000Y-99210000D01*
X192024000Y-102362000D02*
X192024000Y-99694000D01*
X191386000Y-103000000D02*
X192024000Y-102362000D01*
X190280000Y-103000000D02*
X191386000Y-103000000D01*
%TO.N,Net-(R1-Pad1)*%
X196440000Y-114480000D02*
X198330000Y-116370000D01*
X196440000Y-111940000D02*
X196440000Y-114480000D01*
%TO.N,+5V*%
X183140000Y-110992000D02*
X184404000Y-109728000D01*
X185360000Y-114900000D02*
X183140000Y-112680000D01*
X186480000Y-114900000D02*
X185360000Y-114900000D01*
X183140000Y-112680000D02*
X183140000Y-110992000D01*
X186690000Y-115110000D02*
X186480000Y-114900000D01*
%TO.N,Net-(R1-Pad2)*%
X187430000Y-107530000D02*
X187300000Y-107660000D01*
X190180000Y-107530000D02*
X187430000Y-107530000D01*
X189992000Y-107718000D02*
X189992000Y-110372000D01*
X190180000Y-107530000D02*
X189992000Y-107718000D01*
%TO.N,Net-(R1-Pad1)*%
X197612000Y-110768000D02*
X196440000Y-111940000D01*
X197612000Y-107718000D02*
X197612000Y-110768000D01*
X197800000Y-107530000D02*
X197612000Y-107718000D01*
%TO.N,Net-(R1-Pad2)*%
X189992000Y-110372000D02*
X191560000Y-111940000D01*
%TO.N,Net-(R1-Pad1)*%
X197612000Y-103288000D02*
X197900000Y-103000000D01*
X197612000Y-107342000D02*
X197612000Y-103288000D01*
X197800000Y-107530000D02*
X197612000Y-107342000D01*
%TO.N,Net-(R1-Pad2)*%
X197900000Y-95380000D02*
X197900000Y-97920000D01*
X197900000Y-92840000D02*
X197900000Y-95380000D01*
%TO.N,+5V*%
X178306000Y-61976000D02*
X177038000Y-61976000D01*
X179340000Y-63010000D02*
X178306000Y-61976000D01*
X190540000Y-63010000D02*
X179340000Y-63010000D01*
X199644000Y-72114000D02*
X190540000Y-63010000D01*
X199644000Y-90656000D02*
X199644000Y-72114000D01*
X196030000Y-92730000D02*
X197190000Y-91570000D01*
X198730000Y-91570000D02*
X199644000Y-90656000D01*
X191540000Y-99210000D02*
X196030000Y-94720000D01*
X188470000Y-99210000D02*
X191540000Y-99210000D01*
X197190000Y-91570000D02*
X198730000Y-91570000D01*
X187920000Y-98660000D02*
X188470000Y-99210000D01*
X196030000Y-94720000D02*
X196030000Y-92730000D01*
X187400000Y-98660000D02*
X187920000Y-98660000D01*
X187400000Y-100070000D02*
X187400000Y-98660000D01*
X185190000Y-106380000D02*
X185190000Y-102280000D01*
X185190000Y-102280000D02*
X187400000Y-100070000D01*
X184404000Y-109728000D02*
X184404000Y-107166000D01*
X184404000Y-107166000D02*
X185190000Y-106380000D01*
%TO.N,SERCLK*%
X174380000Y-66666000D02*
X174380000Y-69430000D01*
X175514000Y-65532000D02*
X174380000Y-66666000D01*
X188976000Y-65532000D02*
X175514000Y-65532000D01*
X196030000Y-72586000D02*
X188976000Y-65532000D01*
X196030000Y-90112000D02*
X196030000Y-72586000D01*
X197900000Y-90300000D02*
X196218000Y-90300000D01*
X196218000Y-90300000D02*
X196030000Y-90112000D01*
%TO.N,Net-(R1-Pad1)*%
X197900000Y-100460000D02*
X197900000Y-103000000D01*
%TO.N,~{RES}*%
X182220000Y-66670000D02*
X179460000Y-69430000D01*
X187290000Y-66670000D02*
X182220000Y-66670000D01*
X189480000Y-85348000D02*
X189480000Y-68860000D01*
X186390000Y-87460000D02*
X187368000Y-87460000D01*
X185130000Y-99415000D02*
X185130000Y-88720000D01*
X187368000Y-87460000D02*
X189480000Y-85348000D01*
X189480000Y-68860000D02*
X187290000Y-66670000D01*
X183670000Y-100875000D02*
X185130000Y-99415000D01*
X185130000Y-88720000D02*
X186390000Y-87460000D01*
X183670000Y-105382000D02*
X183670000Y-100875000D01*
X182812000Y-106240000D02*
X183670000Y-105382000D01*
X180830000Y-106240000D02*
X182812000Y-106240000D01*
%TO.N,A3*%
X188722000Y-73612000D02*
X184540000Y-69430000D01*
X188722000Y-85090000D02*
X188722000Y-73612000D01*
X187212000Y-86600000D02*
X188722000Y-85090000D01*
X186196000Y-86600000D02*
X187212000Y-86600000D01*
X184404000Y-88392000D02*
X186196000Y-86600000D01*
X184404000Y-98926000D02*
X184404000Y-88392000D01*
X182790000Y-100540000D02*
X184404000Y-98926000D01*
X181040000Y-102600000D02*
X182080000Y-102600000D01*
X182790000Y-101890000D02*
X182790000Y-100540000D01*
X179970000Y-101530000D02*
X181040000Y-102600000D01*
X178400000Y-101530000D02*
X179970000Y-101530000D01*
X182080000Y-102600000D02*
X182790000Y-101890000D01*
%TO.N,+5V*%
X173228000Y-62762000D02*
X171930000Y-64060000D01*
X105150000Y-94000000D02*
X104450000Y-93300000D01*
X114173000Y-88243000D02*
X113100000Y-87170000D01*
X173799500Y-61976000D02*
X173228000Y-61404500D01*
X165770000Y-64060000D02*
X164320000Y-62610000D01*
X146940000Y-69380000D02*
X143726000Y-69380000D01*
X125970000Y-59070000D02*
X137120000Y-59070000D01*
X177038000Y-61976000D02*
X173799500Y-61976000D01*
X123010000Y-67040000D02*
X123010000Y-62030000D01*
X110050000Y-94000000D02*
X105150000Y-94000000D01*
X150810000Y-84670000D02*
X150710000Y-84770000D01*
X164320000Y-62610000D02*
X164320000Y-60600000D01*
X149415500Y-61976000D02*
X146177000Y-61976000D01*
X164320000Y-60600000D02*
X163390000Y-59670000D01*
X111340000Y-92710000D02*
X110050000Y-94000000D01*
X151721500Y-59670000D02*
X149415500Y-61976000D01*
X123010000Y-62030000D02*
X125970000Y-59070000D01*
X104450000Y-85600000D02*
X123010000Y-67040000D01*
X148140000Y-82200000D02*
X148140000Y-78430000D01*
X163390000Y-59670000D02*
X151721500Y-59670000D01*
X114173000Y-92710000D02*
X111340000Y-92710000D01*
X173228000Y-61404500D02*
X173228000Y-62762000D01*
X143726000Y-69380000D02*
X143256000Y-69850000D01*
X150710000Y-84770000D02*
X148140000Y-82200000D01*
X145130000Y-75420000D02*
X145130000Y-74960000D01*
X154060000Y-84670000D02*
X150810000Y-84670000D01*
X171930000Y-64060000D02*
X165770000Y-64060000D01*
X104450000Y-93300000D02*
X104450000Y-85600000D01*
X146177000Y-61976000D02*
X145605500Y-61404500D01*
X114173000Y-92710000D02*
X114173000Y-88243000D01*
X145130000Y-75420000D02*
X148140000Y-78430000D01*
%TO.N,GND*%
X190246000Y-116078000D02*
X190373000Y-116205000D01*
X190373000Y-116205000D02*
X190373000Y-123190000D01*
%TO.N,Net-(C9-Pad2)*%
X138660500Y-48704500D02*
X138660500Y-49860500D01*
X138660500Y-49860500D02*
X140525500Y-51725500D01*
X140525500Y-51725500D02*
X140525500Y-53784500D01*
%TO.N,Net-(C9-Pad1)*%
X144850000Y-52050000D02*
X145605500Y-52805500D01*
X145605500Y-52805500D02*
X145605500Y-53784500D01*
X144506000Y-52050000D02*
X144850000Y-52050000D01*
X141160500Y-48704500D02*
X144506000Y-52050000D01*
%TO.N,Net-(C10-Pad2)*%
X166283000Y-50133000D02*
X168148000Y-51998000D01*
X166283000Y-48704500D02*
X166283000Y-50133000D01*
X168148000Y-51998000D02*
X168148000Y-53784500D01*
%TO.N,Net-(C10-Pad1)*%
X169604500Y-48704500D02*
X173228000Y-52328000D01*
X173228000Y-52328000D02*
X173228000Y-53784500D01*
X168783000Y-48704500D02*
X169604500Y-48704500D01*
%TO.N,Net-(C11-Pad1)*%
X134810500Y-49110500D02*
X137985500Y-52285500D01*
X134810500Y-48704500D02*
X134810500Y-49110500D01*
X137985500Y-52285500D02*
X137985500Y-53784500D01*
%TO.N,Net-(C11-Pad2)*%
X132310500Y-48704500D02*
X132310500Y-50649500D01*
X132310500Y-50649500D02*
X135445500Y-53784500D01*
%TO.N,Net-(C12-Pad1)*%
X162433000Y-48704500D02*
X162433000Y-49083000D01*
X162433000Y-49083000D02*
X165608000Y-52258000D01*
X165608000Y-52258000D02*
X165608000Y-53784500D01*
%TO.N,Net-(C12-Pad2)*%
X159933000Y-50649500D02*
X163068000Y-53784500D01*
X159933000Y-48704500D02*
X159933000Y-50649500D01*
%TO.N,Net-(C13-Pad2)*%
X132905500Y-52705500D02*
X132905500Y-53784500D01*
X131400000Y-51200000D02*
X132905500Y-52705500D01*
X128456000Y-51200000D02*
X131400000Y-51200000D01*
X125960500Y-48704500D02*
X128456000Y-51200000D01*
%TO.N,Net-(C14-Pad2)*%
X155200000Y-51450000D02*
X153583000Y-49833000D01*
X158193500Y-51450000D02*
X155200000Y-51450000D01*
X160528000Y-53784500D02*
X158193500Y-51450000D01*
X153583000Y-49833000D02*
X153583000Y-48704500D01*
%TO.N,Net-(C15-Pad1)*%
X147250000Y-55400000D02*
X147900000Y-54750000D01*
X147900000Y-54750000D02*
X147900000Y-49094000D01*
X143065500Y-53784500D02*
X144681000Y-55400000D01*
X147900000Y-49094000D02*
X147510500Y-48704500D01*
X144681000Y-55400000D02*
X147250000Y-55400000D01*
%TO.N,Net-(C16-Pad1)*%
X175330000Y-54970000D02*
X175330000Y-48901500D01*
X174600000Y-55700000D02*
X175330000Y-54970000D01*
X175330000Y-48901500D02*
X175133000Y-48704500D01*
X170688000Y-53784500D02*
X172603500Y-55700000D01*
X172603500Y-55700000D02*
X174600000Y-55700000D01*
%TO.N,Net-(J2-Pad1)*%
X152950000Y-52950000D02*
X152950000Y-53000000D01*
X151900000Y-51900000D02*
X152950000Y-52950000D01*
X179068000Y-50038000D02*
X175810000Y-46780000D01*
X152910000Y-46780000D02*
X151900000Y-47790000D01*
X175810000Y-46780000D02*
X152910000Y-46780000D01*
X153734500Y-53784500D02*
X155448000Y-53784500D01*
X190881000Y-50038000D02*
X179068000Y-50038000D01*
X152950000Y-53000000D02*
X153734500Y-53784500D01*
X151900000Y-47790000D02*
X151900000Y-51900000D01*
%TO.N,Net-(J2-Pad2)*%
X133635989Y-49875989D02*
X136690000Y-52930000D01*
X138440000Y-56210000D02*
X138440000Y-60950000D01*
X138440000Y-60950000D02*
X137985500Y-61404500D01*
X133635989Y-47114011D02*
X133635989Y-49875989D01*
X193421000Y-50038000D02*
X193421000Y-47021000D01*
X193421000Y-47021000D02*
X191960000Y-45560000D01*
X136690000Y-52930000D02*
X136690000Y-54460000D01*
X191960000Y-45560000D02*
X135190000Y-45560000D01*
X135190000Y-45560000D02*
X133635989Y-47114011D01*
X136690000Y-54460000D02*
X138440000Y-56210000D01*
%TO.N,Net-(J2-Pad3)*%
X136970000Y-46200000D02*
X136560000Y-46610000D01*
X190881000Y-52578000D02*
X192160000Y-51299000D01*
X190540000Y-46200000D02*
X136970000Y-46200000D01*
X136560000Y-49350000D02*
X138620000Y-51410000D01*
X140525500Y-60825500D02*
X140525500Y-61404500D01*
X192160000Y-51299000D02*
X192160000Y-47820000D01*
X192160000Y-47820000D02*
X190540000Y-46200000D01*
X138620000Y-51410000D02*
X138690000Y-51410000D01*
X138690000Y-51410000D02*
X139160011Y-51880011D01*
X139160011Y-59460011D02*
X140525500Y-60825500D01*
X136560000Y-46610000D02*
X136560000Y-49350000D01*
X139160011Y-51880011D02*
X139160011Y-59460011D01*
%TO.N,Net-(J2-Pad4)*%
X169590000Y-56550000D02*
X168148000Y-57992000D01*
X177630000Y-53860000D02*
X174940000Y-56550000D01*
X174940000Y-56550000D02*
X169590000Y-56550000D01*
X193421000Y-52578000D02*
X192139000Y-53860000D01*
X192139000Y-53860000D02*
X177630000Y-53860000D01*
X168148000Y-57992000D02*
X168148000Y-61404500D01*
%TO.N,Net-(J2-Pad6)*%
X179285010Y-56390000D02*
X175785010Y-59890000D01*
X168850000Y-63120000D02*
X166270000Y-63120000D01*
X169380000Y-60330000D02*
X169380000Y-62590000D01*
X169820000Y-59890000D02*
X169380000Y-60330000D01*
X169380000Y-62590000D02*
X168850000Y-63120000D01*
X175785010Y-59890000D02*
X169820000Y-59890000D01*
X192149000Y-56390000D02*
X179285010Y-56390000D01*
X165608000Y-62458000D02*
X165608000Y-61404500D01*
X166270000Y-63120000D02*
X165608000Y-62458000D01*
X193421000Y-55118000D02*
X192149000Y-56390000D01*
%TO.N,Net-(J2-Pad7)*%
X122290000Y-45840000D02*
X122290000Y-51840000D01*
X197960000Y-56940000D02*
X197960000Y-46830000D01*
X190881000Y-57658000D02*
X192196489Y-58973489D01*
X195926511Y-58973489D02*
X197960000Y-56940000D01*
X122290000Y-51840000D02*
X125880000Y-55430000D01*
X129580000Y-55430000D02*
X130365500Y-54644500D01*
X130365500Y-54644500D02*
X130365500Y-53784500D01*
X125880000Y-55430000D02*
X129580000Y-55430000D01*
X195020000Y-43890000D02*
X124240000Y-43890000D01*
X192196489Y-58973489D02*
X195926511Y-58973489D01*
X124240000Y-43890000D02*
X122290000Y-45840000D01*
X197960000Y-46830000D02*
X195020000Y-43890000D01*
%TO.N,Net-(J2-Pad8)*%
X196660000Y-56330000D02*
X196660000Y-47700000D01*
X195332000Y-57658000D02*
X196660000Y-56330000D01*
X123420000Y-46430000D02*
X123420000Y-51260000D01*
X193810000Y-44850000D02*
X125000000Y-44850000D01*
X125944500Y-53784500D02*
X127825500Y-53784500D01*
X125000000Y-44850000D02*
X123420000Y-46430000D01*
X196660000Y-47700000D02*
X193810000Y-44850000D01*
X193421000Y-57658000D02*
X195332000Y-57658000D01*
X123420000Y-51260000D02*
X125944500Y-53784500D01*
%TO.N,Net-(P1-Pad24)*%
X187833000Y-117003000D02*
X187750000Y-116920000D01*
X187833000Y-123190000D02*
X187833000Y-117003000D01*
%TO.N,Net-(P1-Pad23)*%
X185330000Y-116980000D02*
X185293000Y-117017000D01*
X185293000Y-117017000D02*
X185293000Y-123190000D01*
%TO.N,R~{W}*%
X118590000Y-73660000D02*
X106553000Y-85697000D01*
X166930000Y-108480000D02*
X166930000Y-108430000D01*
X146760000Y-84140000D02*
X146760000Y-81380000D01*
X166930000Y-108430000D02*
X166865000Y-108365000D01*
X183642000Y-88108000D02*
X187080000Y-84670000D01*
X134120000Y-73660000D02*
X118590000Y-73660000D01*
X106553000Y-85697000D02*
X106553000Y-92710000D01*
X181420000Y-100774000D02*
X183642000Y-98552000D01*
X146070000Y-80690000D02*
X146070000Y-78130000D01*
X166865000Y-108365000D02*
X166865000Y-104440000D01*
X144100000Y-76160000D02*
X136620000Y-76160000D01*
X147490000Y-86670000D02*
X147490000Y-84870000D01*
X148400000Y-97140000D02*
X148400000Y-87580000D01*
X148820000Y-97560000D02*
X148400000Y-97140000D01*
X148400000Y-87580000D02*
X147490000Y-86670000D01*
X151150000Y-97510000D02*
X151100000Y-97560000D01*
X147490000Y-84870000D02*
X146760000Y-84140000D01*
X151100000Y-97560000D02*
X148820000Y-97560000D01*
X183642000Y-98552000D02*
X183642000Y-88108000D01*
X136620000Y-76160000D02*
X134120000Y-73660000D01*
X146760000Y-81380000D02*
X146070000Y-80690000D01*
X181420000Y-101250000D02*
X181420000Y-100774000D01*
X146070000Y-78130000D02*
X144100000Y-76160000D01*
%TO.N,A11*%
X162210000Y-111160000D02*
X167330000Y-111160000D01*
X162170000Y-111200000D02*
X162210000Y-111160000D01*
X167330000Y-111160000D02*
X169405000Y-109085000D01*
X169405000Y-109085000D02*
X169405000Y-104440000D01*
%TO.N,A10*%
X171945000Y-110005000D02*
X171945000Y-104440000D01*
X158510000Y-112250000D02*
X158690000Y-112070000D01*
X158690000Y-112070000D02*
X169880000Y-112070000D01*
X169880000Y-112070000D02*
X171945000Y-110005000D01*
%TO.N,A9*%
X156090000Y-113220000D02*
X170770000Y-113220000D01*
X174485000Y-109505000D02*
X174485000Y-104440000D01*
X170770000Y-113220000D02*
X174485000Y-109505000D01*
X156060000Y-113190000D02*
X156090000Y-113220000D01*
%TO.N,A8*%
X153660000Y-114370000D02*
X153730000Y-114300000D01*
X177025000Y-108725000D02*
X177025000Y-104440000D01*
X171450000Y-114300000D02*
X177025000Y-108725000D01*
X153730000Y-114300000D02*
X171450000Y-114300000D01*
%TO.N,A7*%
X142150000Y-106890000D02*
X142150000Y-105525000D01*
X142150000Y-105525000D02*
X138225000Y-101600000D01*
X142140000Y-106900000D02*
X142150000Y-106890000D01*
X138225000Y-82000000D02*
X131155000Y-74930000D01*
X138225000Y-101600000D02*
X138225000Y-82000000D01*
X131155000Y-74930000D02*
X128016000Y-74930000D01*
%TO.N,A6*%
X137160000Y-83820000D02*
X130810000Y-77470000D01*
X130810000Y-77470000D02*
X128016000Y-77470000D01*
X137160000Y-102935000D02*
X137160000Y-83820000D01*
X140400000Y-106890000D02*
X140400000Y-106175000D01*
X140400000Y-106175000D02*
X137160000Y-102935000D01*
%TO.N,A5*%
X138760000Y-106930000D02*
X138760000Y-106285000D01*
X136230000Y-86730000D02*
X129510000Y-80010000D01*
X138760000Y-106285000D02*
X136230000Y-103755000D01*
X136230000Y-103755000D02*
X136230000Y-86730000D01*
X129510000Y-80010000D02*
X128016000Y-80010000D01*
%TO.N,A4*%
X137080000Y-106655000D02*
X135480000Y-105055000D01*
X137080000Y-106930000D02*
X137080000Y-106655000D01*
X129150000Y-82550000D02*
X128016000Y-82550000D01*
X135480000Y-105055000D02*
X135480000Y-88880000D01*
X135480000Y-88880000D02*
X129150000Y-82550000D01*
%TO.N,A3*%
X152220000Y-103000000D02*
X152220000Y-105150000D01*
X136340000Y-108200000D02*
X135550000Y-107410000D01*
X178400000Y-101530000D02*
X177900000Y-102030000D01*
X135070000Y-106520000D02*
X134610000Y-106060000D01*
X135070000Y-107410000D02*
X135070000Y-106520000D01*
X177900000Y-102030000D02*
X153190000Y-102030000D01*
X129190000Y-85090000D02*
X128016000Y-85090000D01*
X134610000Y-90510000D02*
X129190000Y-85090000D01*
X135550000Y-107410000D02*
X135070000Y-107410000D01*
X149170000Y-108200000D02*
X136340000Y-108200000D01*
X134610000Y-106060000D02*
X134610000Y-90510000D01*
X152220000Y-105150000D02*
X149170000Y-108200000D01*
X153190000Y-102030000D02*
X152220000Y-103000000D01*
%TO.N,A2*%
X134760000Y-72580000D02*
X130760000Y-72580000D01*
X147890000Y-72130000D02*
X145990000Y-72130000D01*
X156260000Y-74890000D02*
X153470000Y-72100000D01*
X178210000Y-74890000D02*
X156260000Y-74890000D01*
X145990000Y-72130000D02*
X144480000Y-73640000D01*
X133840000Y-91470000D02*
X130000000Y-87630000D01*
X147920000Y-72100000D02*
X147890000Y-72130000D01*
X133840000Y-107190000D02*
X133840000Y-91470000D01*
X182000000Y-71100000D02*
X178210000Y-74890000D01*
X135820000Y-73640000D02*
X134760000Y-72580000D01*
X130760000Y-72580000D02*
X130740000Y-72600000D01*
X130000000Y-87630000D02*
X128016000Y-87630000D01*
X153470000Y-72100000D02*
X147920000Y-72100000D01*
X182000000Y-69430000D02*
X182000000Y-71100000D01*
X144480000Y-73640000D02*
X135820000Y-73640000D01*
X133540000Y-107490000D02*
X133840000Y-107190000D01*
%TO.N,A1*%
X132850000Y-106600000D02*
X132850000Y-96580000D01*
X126430000Y-71090000D02*
X125680000Y-71840000D01*
X131990000Y-107460000D02*
X132850000Y-106600000D01*
X152410000Y-71080000D02*
X143070000Y-71080000D01*
X129770000Y-91924000D02*
X128016000Y-90170000D01*
X126430000Y-71090000D02*
X143060000Y-71090000D01*
X154060000Y-69430000D02*
X152410000Y-71080000D01*
X143070000Y-71080000D02*
X143060000Y-71090000D01*
X129770000Y-93500000D02*
X129770000Y-91924000D01*
X132850000Y-96580000D02*
X129770000Y-93500000D01*
%TO.N,A0*%
X131750000Y-96670000D02*
X128016000Y-92936000D01*
X123800000Y-69380000D02*
X123800000Y-72160000D01*
X131750000Y-106240000D02*
X131750000Y-96670000D01*
X154480000Y-67310000D02*
X125870000Y-67310000D01*
X128016000Y-92936000D02*
X128016000Y-92710000D01*
X125870000Y-67310000D02*
X123800000Y-69380000D01*
X156600000Y-69430000D02*
X154480000Y-67310000D01*
X130360000Y-107630000D02*
X131750000Y-106240000D01*
%TO.N,~{IOSEL}*%
X129800000Y-109040000D02*
X129750000Y-109090000D01*
X159590000Y-109040000D02*
X129800000Y-109040000D01*
%TO.N,~{RES}*%
X154165000Y-103415000D02*
X154165000Y-104440000D01*
X180830000Y-106240000D02*
X177673000Y-109397000D01*
X180830000Y-106240000D02*
X180830000Y-103560000D01*
X180830000Y-103560000D02*
X180060000Y-102790000D01*
X177673000Y-109397000D02*
X177673000Y-123190000D01*
X154790000Y-102790000D02*
X154165000Y-103415000D01*
X180060000Y-102790000D02*
X154790000Y-102790000D01*
%TO.N,~{DEVSEL}*%
X161785000Y-108965000D02*
X160490000Y-110260000D01*
X152273000Y-113767000D02*
X152273000Y-123190000D01*
X155780000Y-110260000D02*
X152273000Y-113767000D01*
X161785000Y-104440000D02*
X161785000Y-108965000D01*
X160490000Y-110260000D02*
X155780000Y-110260000D01*
%TO.N,D0*%
X151780000Y-94620000D02*
X152430000Y-95270000D01*
X123350000Y-109030000D02*
X125760000Y-106620000D01*
X157695000Y-95270000D02*
X159245000Y-96820000D01*
X128680000Y-95250000D02*
X128016000Y-95250000D01*
X129500000Y-106620000D02*
X130890000Y-105230000D01*
X130890000Y-97460000D02*
X128680000Y-95250000D01*
X125760000Y-106620000D02*
X129500000Y-106620000D01*
X130890000Y-105230000D02*
X130890000Y-97460000D01*
X152430000Y-95270000D02*
X157695000Y-95270000D01*
%TO.N,D1*%
X150550000Y-95580000D02*
X149810000Y-94840000D01*
X130050000Y-99824000D02*
X128016000Y-97790000D01*
X149810000Y-94840000D02*
X149810000Y-89000000D01*
X130050000Y-103870000D02*
X130050000Y-99824000D01*
X124190000Y-105660000D02*
X128260000Y-105660000D01*
X149810000Y-89000000D02*
X151360000Y-87450000D01*
X128260000Y-105660000D02*
X130050000Y-103870000D01*
X151360000Y-87450000D02*
X163350000Y-87450000D01*
X163350000Y-87450000D02*
X164220000Y-86580000D01*
X164220000Y-86580000D02*
X164220000Y-84670000D01*
X122050000Y-107800000D02*
X124190000Y-105660000D01*
%TO.N,D2*%
X126840000Y-100330000D02*
X128016000Y-100330000D01*
X149510000Y-96600000D02*
X149140000Y-96230000D01*
X166760000Y-83620000D02*
X166760000Y-84670000D01*
X121320000Y-105850000D02*
X126840000Y-100330000D01*
X150350000Y-86580000D02*
X162330000Y-86580000D01*
X162940000Y-83500000D02*
X163510000Y-82930000D01*
X162940000Y-85970000D02*
X162940000Y-83500000D01*
X162330000Y-86580000D02*
X162940000Y-85970000D01*
X163510000Y-82930000D02*
X166070000Y-82930000D01*
X121300000Y-105850000D02*
X121320000Y-105850000D01*
X166070000Y-82930000D02*
X166760000Y-83620000D01*
X149140000Y-87790000D02*
X150350000Y-86580000D01*
X149140000Y-96230000D02*
X149140000Y-87790000D01*
%TO.N,D3*%
X151880000Y-88500000D02*
X151950000Y-88430000D01*
X121020000Y-103320000D02*
X121380000Y-103320000D01*
X143256000Y-102870000D02*
X139030000Y-98644000D01*
X168150000Y-88430000D02*
X169300000Y-87280000D01*
X139030000Y-98644000D02*
X139030000Y-90920000D01*
X139030000Y-90920000D02*
X140950000Y-89000000D01*
X121380000Y-103320000D02*
X125820000Y-98880000D01*
X151950000Y-88430000D02*
X168150000Y-88430000D01*
X125820000Y-98880000D02*
X126310000Y-98880000D01*
X169300000Y-87280000D02*
X169300000Y-84670000D01*
%TO.N,D4*%
X140140000Y-98100000D02*
X140140000Y-92110000D01*
X118770000Y-100860000D02*
X121440000Y-100860000D01*
X152060000Y-89660000D02*
X152130000Y-89590000D01*
X140760000Y-91490000D02*
X141700000Y-91490000D01*
X121440000Y-100860000D02*
X125780000Y-96520000D01*
X143256000Y-100330000D02*
X142370000Y-100330000D01*
X140140000Y-98100000D02*
X142370000Y-100330000D01*
X152130000Y-89590000D02*
X170410000Y-89590000D01*
X170410000Y-89590000D02*
X171840000Y-88160000D01*
X140140000Y-92110000D02*
X140760000Y-91490000D01*
X171840000Y-88160000D02*
X171840000Y-84670000D01*
X125780000Y-96520000D02*
X126150000Y-96520000D01*
%TO.N,D5*%
X117410000Y-99090000D02*
X117510000Y-98990000D01*
X171940000Y-90650000D02*
X174380000Y-88210000D01*
X151540000Y-90650000D02*
X171940000Y-90650000D01*
X174380000Y-88210000D02*
X174380000Y-84670000D01*
X120650000Y-98990000D02*
X120740000Y-98990000D01*
X117510000Y-98990000D02*
X120650000Y-98990000D01*
X120740000Y-98990000D02*
X125760000Y-93970000D01*
X150690000Y-91500000D02*
X151540000Y-90650000D01*
X150690000Y-93844500D02*
X150690000Y-91500000D01*
X125760000Y-93970000D02*
X126510000Y-93970000D01*
%TO.N,D6*%
X109970000Y-96530000D02*
X108710000Y-97790000D01*
X125590000Y-91520000D02*
X120580000Y-96530000D01*
X151620000Y-91700000D02*
X151990000Y-91330000D01*
X174420000Y-91330000D02*
X176920000Y-88830000D01*
X176920000Y-88830000D02*
X176920000Y-84670000D01*
X151990000Y-91330000D02*
X174420000Y-91330000D01*
X126250000Y-91520000D02*
X125590000Y-91520000D01*
X108710000Y-97790000D02*
X106553000Y-97790000D01*
X151620000Y-92994500D02*
X151620000Y-91700000D01*
X120580000Y-96530000D02*
X109970000Y-96530000D01*
%TO.N,D7*%
X175800000Y-92260000D02*
X179460000Y-88600000D01*
X111700000Y-95250000D02*
X106553000Y-95250000D01*
X152700000Y-92210000D02*
X152750000Y-92260000D01*
X152750000Y-92260000D02*
X175800000Y-92260000D01*
X113000000Y-93950000D02*
X111700000Y-95250000D01*
X125590000Y-88070000D02*
X123940000Y-88070000D01*
X179460000Y-88600000D02*
X179460000Y-84670000D01*
X118060000Y-93950000D02*
X113000000Y-93950000D01*
X123940000Y-88070000D02*
X118060000Y-93950000D01*
%TO.N,~{LATCHCE}*%
X146168000Y-101210000D02*
X172080000Y-101210000D01*
X144018000Y-93980000D02*
X144790000Y-94752000D01*
X126160000Y-88830000D02*
X119740000Y-95250000D01*
X141250000Y-93980000D02*
X144018000Y-93980000D01*
X130890000Y-90190000D02*
X130360000Y-90190000D01*
X141190000Y-93920000D02*
X141250000Y-93980000D01*
X130360000Y-90190000D02*
X129000000Y-88830000D01*
X129000000Y-88830000D02*
X126160000Y-88830000D01*
X172080000Y-101210000D02*
X174485000Y-98805000D01*
X144790000Y-94752000D02*
X144790000Y-99832000D01*
X174485000Y-98805000D02*
X174485000Y-96820000D01*
X119740000Y-95250000D02*
X114173000Y-95250000D01*
X144790000Y-99832000D02*
X146168000Y-101210000D01*
%TO.N,ROMA10*%
X164500000Y-100400000D02*
X166865000Y-98035000D01*
X143256000Y-87884000D02*
X145490000Y-90118000D01*
X146570000Y-100400000D02*
X164500000Y-100400000D01*
X166865000Y-98035000D02*
X166865000Y-96820000D01*
X145490000Y-90118000D02*
X145490000Y-99320000D01*
X143256000Y-87630000D02*
X143256000Y-87884000D01*
X145490000Y-99320000D02*
X146570000Y-100400000D01*
%TO.N,~{ROMOE}*%
X164325000Y-96820000D02*
X164325000Y-98515000D01*
X146200000Y-89510000D02*
X144920000Y-88230000D01*
X146200000Y-98850000D02*
X146200000Y-89510000D01*
X144920000Y-86754000D02*
X143256000Y-85090000D01*
X164325000Y-98515000D02*
X163140000Y-99700000D01*
X147050000Y-99700000D02*
X146200000Y-98850000D01*
X163140000Y-99700000D02*
X147050000Y-99700000D01*
X144920000Y-88230000D02*
X144920000Y-86754000D01*
%TO.N,ROMA9*%
X163740000Y-95420000D02*
X163150489Y-96009511D01*
X146910000Y-88890000D02*
X145730000Y-87710000D01*
X169405000Y-96820000D02*
X168005000Y-95420000D01*
X168005000Y-95420000D02*
X163740000Y-95420000D01*
X144970000Y-85300000D02*
X144970000Y-81724000D01*
X161590000Y-99040000D02*
X147700000Y-99040000D01*
X147700000Y-99040000D02*
X146910000Y-98250000D01*
X145730000Y-87710000D02*
X145730000Y-86060000D01*
X163150489Y-96009511D02*
X163150489Y-97479511D01*
X163150489Y-97479511D02*
X161590000Y-99040000D01*
X146910000Y-98250000D02*
X146910000Y-88890000D01*
X145730000Y-86060000D02*
X144970000Y-85300000D01*
X144970000Y-81724000D02*
X143256000Y-80010000D01*
%TO.N,ROMA8*%
X159730000Y-98390000D02*
X148280000Y-98390000D01*
X161690000Y-94680000D02*
X160540000Y-95830000D01*
X147670000Y-97780000D02*
X147670000Y-88210000D01*
X160540000Y-97580000D02*
X159730000Y-98390000D01*
X145080000Y-80840000D02*
X145080000Y-79294000D01*
X146420000Y-85350000D02*
X145690000Y-84620000D01*
X160540000Y-95830000D02*
X160540000Y-97580000D01*
X169805000Y-94680000D02*
X161690000Y-94680000D01*
X171945000Y-96820000D02*
X169805000Y-94680000D01*
X147670000Y-88210000D02*
X146420000Y-86960000D01*
X145690000Y-81450000D02*
X145080000Y-80840000D01*
X145080000Y-79294000D02*
X143256000Y-77470000D01*
X145690000Y-84620000D02*
X145690000Y-81450000D01*
X148280000Y-98390000D02*
X147670000Y-97780000D01*
X146420000Y-86960000D02*
X146420000Y-85350000D01*
%TO.N,Net-(U4-Pad2)*%
X154100000Y-66270000D02*
X154000000Y-66370000D01*
X127825500Y-63885500D02*
X127825500Y-61404500D01*
X166760000Y-69430000D02*
X166760000Y-71800000D01*
X130310000Y-66370000D02*
X127825500Y-63885500D01*
X166760000Y-71800000D02*
X168200000Y-73240000D01*
X154000000Y-66370000D02*
X130310000Y-66370000D01*
%TO.N,Net-(U5-Pad12)*%
X135445500Y-61404500D02*
X135445500Y-61525500D01*
X159140000Y-66700000D02*
X159140000Y-69430000D01*
X156265000Y-63825000D02*
X159140000Y-66700000D01*
X137745000Y-63825000D02*
X156265000Y-63825000D01*
X135445500Y-61525500D02*
X137745000Y-63825000D01*
%TO.N,Net-(U5-Pad11)*%
X161680000Y-62556500D02*
X160528000Y-61404500D01*
X161680000Y-69430000D02*
X161680000Y-62556500D01*
%TO.N,Net-(U5-Pad10)*%
X157920000Y-70960000D02*
X157920000Y-68450000D01*
X153980000Y-64510000D02*
X136011000Y-64510000D01*
X136011000Y-64510000D02*
X132905500Y-61404500D01*
X157920000Y-68450000D02*
X153980000Y-64510000D01*
X158420000Y-71460000D02*
X157920000Y-70960000D01*
%TO.N,Net-(U5-Pad8)*%
X130365500Y-63005500D02*
X130365500Y-61404500D01*
X152470000Y-65540000D02*
X132900000Y-65540000D01*
X152540000Y-65470000D02*
X152470000Y-65540000D01*
X132900000Y-65540000D02*
X130365500Y-63005500D01*
%TO.N,Net-(U5-Pad17)*%
X165480000Y-71390000D02*
X165480000Y-66730000D01*
X163068000Y-64318000D02*
X163068000Y-61404500D01*
X165480000Y-66730000D02*
X163068000Y-64318000D01*
X163120000Y-73750000D02*
X165480000Y-71390000D01*
%TO.N,Net-(U5-Pad16)*%
X159710000Y-73790000D02*
X160390000Y-73110000D01*
X160390000Y-73110000D02*
X160390000Y-66346500D01*
X160390000Y-66346500D02*
X155448000Y-61404500D01*
%TO.N,PHI2*%
X176200000Y-93730000D02*
X184540000Y-85390000D01*
X163930000Y-93730000D02*
X176200000Y-93730000D01*
X184540000Y-85390000D02*
X184540000Y-84670000D01*
X163860000Y-93800000D02*
X163930000Y-93730000D01*
%TO.N,MD7*%
X120110000Y-107920000D02*
X120110000Y-104040000D01*
X149733000Y-118003000D02*
X141860000Y-110130000D01*
X122320000Y-110130000D02*
X120110000Y-107920000D01*
X141860000Y-110130000D02*
X122320000Y-110130000D01*
X120110000Y-104040000D02*
X114173000Y-98103000D01*
X114173000Y-98103000D02*
X114173000Y-97790000D01*
X149733000Y-123190000D02*
X149733000Y-118003000D01*
%TO.N,MD6*%
X119080000Y-108970000D02*
X119080000Y-105237000D01*
X119080000Y-105237000D02*
X114173000Y-100330000D01*
X121060000Y-110950000D02*
X119080000Y-108970000D01*
X147193000Y-117943000D02*
X140200000Y-110950000D01*
X147193000Y-123190000D02*
X147193000Y-117943000D01*
X140200000Y-110950000D02*
X121060000Y-110950000D01*
%TO.N,MD5*%
X138090000Y-111790000D02*
X119670000Y-111790000D01*
X144653000Y-118353000D02*
X138090000Y-111790000D01*
X114173000Y-102983000D02*
X114173000Y-102870000D01*
X118150000Y-110270000D02*
X118150000Y-106960000D01*
X119670000Y-111790000D02*
X118150000Y-110270000D01*
X144653000Y-123190000D02*
X144653000Y-118353000D01*
X118150000Y-106960000D02*
X114173000Y-102983000D01*
%TO.N,MD4*%
X135980000Y-112560000D02*
X118910000Y-112560000D01*
X142113000Y-118693000D02*
X135980000Y-112560000D01*
X142113000Y-123190000D02*
X142113000Y-118693000D01*
X118910000Y-112560000D02*
X116950000Y-110600000D01*
X116950000Y-110600000D02*
X116950000Y-108187000D01*
X116950000Y-108187000D02*
X114173000Y-105410000D01*
%TO.N,MD3*%
X115860000Y-109637000D02*
X114173000Y-107950000D01*
X134170000Y-113330000D02*
X117920000Y-113330000D01*
X139573000Y-123190000D02*
X139573000Y-118733000D01*
X139573000Y-118733000D02*
X134170000Y-113330000D01*
X115860000Y-111270000D02*
X115860000Y-109637000D01*
X117920000Y-113330000D02*
X115860000Y-111270000D01*
%TO.N,MD2*%
X117550000Y-114090000D02*
X114173000Y-110713000D01*
X137033000Y-123190000D02*
X137033000Y-118443000D01*
X137033000Y-118443000D02*
X132680000Y-114090000D01*
X132680000Y-114090000D02*
X117550000Y-114090000D01*
X114173000Y-110713000D02*
X114173000Y-110490000D01*
%TO.N,MD1*%
X134493000Y-118543000D02*
X130780000Y-114830000D01*
X134493000Y-123190000D02*
X134493000Y-118543000D01*
X130780000Y-114830000D02*
X115973000Y-114830000D01*
X115973000Y-114830000D02*
X114173000Y-113030000D01*
%TO.N,MD0*%
X128640000Y-115570000D02*
X114173000Y-115570000D01*
X131953000Y-118883000D02*
X128640000Y-115570000D01*
X131953000Y-123190000D02*
X131953000Y-118883000D01*
%TD*%
M02*
