M48
; DRILL file {KiCad (6.0.2)} date Wed Jul  6 23:21:20 2022
; FORMAT={-:-/ absolute / inch / decimal}
; #@! TF.CreationDate,2022-07-06T23:21:20-05:00
; #@! TF.GenerationSoftware,Kicad,Pcbnew,(6.0.2)
; #@! TF.FileFunction,Plated,1,2,PTH
FMAT,2
INCH
; #@! TA.AperFunction,Plated,PTH,ViaDrill
T1C0.0157
; #@! TA.AperFunction,Plated,PTH,ComponentDrill
T2C0.0315
; #@! TA.AperFunction,Plated,PTH,ComponentDrill
T3C0.0394
%
G90
G05
T1
X4.6224Y-3.9012
X4.676Y-3.9709
X4.7646Y-4.0677
X4.7756Y-4.1673
X4.8051Y-4.2441
X4.8563Y-4.2925
X4.874Y-2.8409
X4.9445Y-3.4673
X4.948Y-2.8283
X4.9665Y-3.8
X4.9705Y-3.6031
X4.9728Y-3.8929
X4.9807Y-3.6996
X5.1083Y-4.2949
X5.1323Y-4.2374
X5.1472Y-2.8583
X5.1531Y-3.5508
X5.1965Y-4.2307
X5.2575Y-4.2319
X5.3177Y-4.2287
X5.3969Y-4.2098
X5.3984Y-2.3256
X5.463Y-4.2098
X5.5276Y-4.2083
X5.5492Y-3.5039
X5.5587Y-3.6976
X5.5787Y-3.602
X5.5961Y-4.2087
X5.7138Y-2.9512
X5.8862Y-3.8031
X5.9272Y-3.763
X5.9327Y-3.6947
X5.9508Y-3.839
X5.9693Y-3.6612
X5.9756Y-3.7252
X5.9795Y-3.4843
X6.0039Y-3.5189
X6.0055Y-2.5776
X6.0118Y-3.6303
X6.0496Y-4.5028
X6.0669Y-2.6091
X6.1441Y-4.4563
X6.237Y-2.8134
X6.2406Y-4.4193
X6.2831Y-4.2929
X6.2878Y-2.9051
X6.3846Y-4.378
X6.422Y-2.9035
X6.4303Y-3.6925
X6.572Y-4.2709
X6.622Y-2.8835
X7.0236Y-3.9972
X7.1425Y-3.9862
X7.2965Y-4.6055
X7.35Y-4.5319
X7.3917Y-4.6031
X7.49Y-4.57
T2
X4.195Y-3.65
X4.195Y-3.75
X4.195Y-3.85
X4.195Y-3.95
X4.195Y-4.05
X4.195Y-4.15
X4.195Y-4.25
X4.195Y-4.35
X4.195Y-4.45
X4.195Y-4.55
X4.2559Y-3.4319
X4.4528Y-3.4319
X4.495Y-3.65
X4.495Y-3.75
X4.495Y-3.85
X4.495Y-3.95
X4.495Y-4.05
X4.495Y-4.15
X4.495Y-4.25
X4.495Y-4.35
X4.495Y-4.45
X4.495Y-4.55
X4.9591Y-1.9175
X5.0325Y-2.1175
X5.0325Y-2.4175
X5.04Y-2.75
X5.04Y-2.85
X5.04Y-2.95
X5.04Y-3.05
X5.04Y-3.15
X5.04Y-3.25
X5.04Y-3.35
X5.04Y-3.45
X5.04Y-3.55
X5.04Y-3.65
X5.04Y-3.75
X5.04Y-3.85
X5.04Y-3.95
X5.04Y-4.05
X5.0575Y-1.9175
X5.1325Y-2.1175
X5.1325Y-2.4175
X5.2091Y-1.9175
X5.2325Y-2.1175
X5.2325Y-2.4175
X5.3075Y-1.9175
X5.3325Y-2.1175
X5.3325Y-2.4175
X5.4325Y-2.1175
X5.4325Y-2.4175
X5.4591Y-1.9175
X5.5325Y-2.1175
X5.5325Y-2.4175
X5.5575Y-1.9175
X5.6325Y-2.1175
X5.6325Y-2.4175
X5.64Y-2.75
X5.64Y-2.85
X5.64Y-2.95
X5.64Y-3.05
X5.64Y-3.15
X5.64Y-3.25
X5.64Y-3.35
X5.64Y-3.45
X5.64Y-3.55
X5.64Y-3.65
X5.64Y-3.75
X5.64Y-3.85
X5.64Y-3.95
X5.64Y-4.05
X5.7091Y-1.9175
X5.7325Y-2.1175
X5.7325Y-2.4175
X5.785Y-2.7315
X5.785Y-2.9283
X5.8075Y-1.9175
X5.8825Y-2.2431
X5.8825Y-2.44
X5.9335Y-3.1406
X5.9335Y-3.3374
X6.0466Y-1.9175
X6.0654Y-2.7335
X6.0654Y-3.3335
X6.0695Y-3.8118
X6.0695Y-4.1118
X6.1094Y-3.6937
X6.12Y-2.1175
X6.12Y-2.4175
X6.145Y-1.9175
X6.1654Y-2.7335
X6.1654Y-3.3335
X6.1695Y-3.8118
X6.1695Y-4.1118
X6.22Y-2.1175
X6.22Y-2.4175
X6.2654Y-2.7335
X6.2654Y-3.3335
X6.2695Y-3.8118
X6.2695Y-4.1118
X6.2966Y-1.9175
X6.3063Y-3.6937
X6.32Y-2.1175
X6.32Y-2.4175
X6.3654Y-2.7335
X6.3654Y-3.3335
X6.3695Y-3.8118
X6.3695Y-4.1118
X6.395Y-1.9175
X6.42Y-2.1175
X6.42Y-2.4175
X6.4654Y-2.7335
X6.4654Y-3.3335
X6.4695Y-3.8118
X6.4695Y-4.1118
X6.52Y-2.1175
X6.52Y-2.4175
X6.5466Y-1.9175
X6.5654Y-2.7335
X6.5654Y-3.3335
X6.5695Y-3.8118
X6.5695Y-4.1118
X6.62Y-2.1175
X6.62Y-2.4175
X6.645Y-1.9175
X6.6654Y-2.7335
X6.6654Y-3.3335
X6.6695Y-3.8118
X6.6695Y-4.1118
X6.72Y-2.1175
X6.72Y-2.4175
X6.7654Y-2.7335
X6.7654Y-3.3335
X6.7695Y-3.8118
X6.7695Y-4.1118
X6.7966Y-1.9175
X6.82Y-2.1175
X6.82Y-2.4175
X6.8654Y-2.7335
X6.8654Y-3.3335
X6.8695Y-3.8118
X6.8695Y-4.1118
X6.895Y-1.9175
X6.9654Y-2.7335
X6.9654Y-3.3335
X6.9695Y-3.8118
X6.9695Y-4.1118
X6.97Y-2.2431
X6.97Y-2.44
X7.0654Y-2.7335
X7.0654Y-3.3335
X7.0695Y-3.8118
X7.0695Y-4.1118
X7.1654Y-2.7335
X7.1654Y-3.3335
X7.1695Y-3.8118
X7.1695Y-4.1118
X7.2654Y-2.7335
X7.2654Y-3.3335
X7.3654Y-2.7335
X7.3654Y-3.3335
X7.374Y-4.0417
X7.374Y-4.2386
X7.378Y-3.6874
X7.378Y-3.8843
X7.4874Y-4.2335
X7.4913Y-3.4551
X7.4913Y-3.5551
X7.4913Y-3.6551
X7.4913Y-3.7551
X7.4913Y-3.8551
X7.4913Y-3.9551
X7.4913Y-4.0551
X7.5417Y-4.4071
X7.6114Y-4.5815
X7.7339Y-4.4071
X7.7874Y-4.2335
X7.7913Y-3.4551
X7.7913Y-3.5551
X7.7913Y-3.6551
X7.7913Y-3.7551
X7.7913Y-3.8551
X7.7913Y-3.9551
X7.7913Y-4.0551
X7.8083Y-4.5815
T3
X7.515Y-1.97
X7.515Y-2.07
X7.515Y-2.17
X7.515Y-2.27
X7.515Y-2.37
X7.615Y-1.97
X7.615Y-2.07
X7.615Y-2.17
X7.615Y-2.27
X7.615Y-2.37
X7.62Y-3.13
X7.62Y-3.23
T0
M30
