%TF.GenerationSoftware,KiCad,Pcbnew,(6.0.2)*%
%TF.CreationDate,2022-07-06T23:21:18-05:00*%
%TF.ProjectId,ssc,7373632e-6b69-4636-9164-5f7063625858,rev?*%
%TF.SameCoordinates,Original*%
%TF.FileFunction,Soldermask,Top*%
%TF.FilePolarity,Negative*%
%FSLAX46Y46*%
G04 Gerber Fmt 4.6, Leading zero omitted, Abs format (unit mm)*
G04 Created by KiCad (PCBNEW (6.0.2)) date 2022-07-06 23:21:18*
%MOMM*%
%LPD*%
G01*
G04 APERTURE LIST*
G04 Aperture macros list*
%AMRoundRect*
0 Rectangle with rounded corners*
0 $1 Rounding radius*
0 $2 $3 $4 $5 $6 $7 $8 $9 X,Y pos of 4 corners*
0 Add a 4 corners polygon primitive as box body*
4,1,4,$2,$3,$4,$5,$6,$7,$8,$9,$2,$3,0*
0 Add four circle primitives for the rounded corners*
1,1,$1+$1,$2,$3*
1,1,$1+$1,$4,$5*
1,1,$1+$1,$6,$7*
1,1,$1+$1,$8,$9*
0 Add four rect primitives between the rounded corners*
20,1,$1+$1,$2,$3,$4,$5,0*
20,1,$1+$1,$4,$5,$6,$7,0*
20,1,$1+$1,$6,$7,$8,$9,0*
20,1,$1+$1,$8,$9,$2,$3,0*%
G04 Aperture macros list end*
%TA.AperFunction,Profile*%
%ADD10C,0.050000*%
%TD*%
%ADD11C,0.001000*%
%ADD12R,1.700000X1.700000*%
%ADD13O,1.700000X1.700000*%
%ADD14R,1.600000X1.600000*%
%ADD15O,1.600000X1.600000*%
%ADD16C,1.600000*%
%ADD17RoundRect,0.650000X-0.762000X3.175000X-0.762000X-3.175000X0.762000X-3.175000X0.762000X3.175000X0*%
%ADD18C,1.500000*%
G04 APERTURE END LIST*
D10*
X127000000Y-127000000D02*
X192786000Y-127000000D01*
X192786000Y-119380000D02*
X200406000Y-119380000D01*
X127000000Y-119380000D02*
X127000000Y-127000000D01*
X101600000Y-41910000D02*
X101600000Y-119380000D01*
X101600000Y-41910000D02*
X200406000Y-41910000D01*
X101600000Y-119380000D02*
X127000000Y-119380000D01*
X200406000Y-41910000D02*
X200406000Y-119380000D01*
X192786000Y-119380000D02*
X192786000Y-127000000D01*
D11*
%TO.C,P1*%
X127000000Y-119380000D02*
X128143000Y-119380000D01*
X128143000Y-119380000D02*
X128143000Y-127000000D01*
X128143000Y-127000000D02*
X127000000Y-127000000D01*
X127000000Y-127000000D02*
X127000000Y-119380000D01*
G36*
X128143000Y-127000000D02*
G01*
X127000000Y-127000000D01*
X127000000Y-119380000D01*
X128143000Y-119380000D01*
X128143000Y-127000000D01*
G37*
X128143000Y-127000000D02*
X127000000Y-127000000D01*
X127000000Y-119380000D01*
X128143000Y-119380000D01*
X128143000Y-127000000D01*
X192786000Y-119380000D02*
X191643000Y-119380000D01*
X191643000Y-119380000D02*
X191643000Y-127000000D01*
X191643000Y-127000000D02*
X192786000Y-127000000D01*
X192786000Y-127000000D02*
X192786000Y-119380000D01*
G36*
X192786000Y-127000000D02*
G01*
X191643000Y-127000000D01*
X191643000Y-119380000D01*
X192786000Y-119380000D01*
X192786000Y-127000000D01*
G37*
X192786000Y-127000000D02*
X191643000Y-127000000D01*
X191643000Y-119380000D01*
X192786000Y-119380000D01*
X192786000Y-127000000D01*
%TD*%
D12*
%TO.C,J2*%
X190881000Y-50038000D03*
D13*
X193421000Y-50038000D03*
X190881000Y-52578000D03*
X193421000Y-52578000D03*
X190881000Y-55118000D03*
X193421000Y-55118000D03*
X190881000Y-57658000D03*
X193421000Y-57658000D03*
X190881000Y-60198000D03*
X193421000Y-60198000D03*
%TD*%
D14*
%TO.C,U1*%
X106553000Y-92710000D03*
D15*
X106553000Y-95250000D03*
X106553000Y-97790000D03*
X106553000Y-100330000D03*
X106553000Y-102870000D03*
X106553000Y-105410000D03*
X106553000Y-107950000D03*
X106553000Y-110490000D03*
X106553000Y-113030000D03*
X106553000Y-115570000D03*
X114173000Y-115570000D03*
X114173000Y-113030000D03*
X114173000Y-110490000D03*
X114173000Y-107950000D03*
X114173000Y-105410000D03*
X114173000Y-102870000D03*
X114173000Y-100330000D03*
X114173000Y-97790000D03*
X114173000Y-95250000D03*
X114173000Y-92710000D03*
%TD*%
D14*
%TO.C,U2*%
X128016000Y-69850000D03*
D15*
X128016000Y-72390000D03*
X128016000Y-74930000D03*
X128016000Y-77470000D03*
X128016000Y-80010000D03*
X128016000Y-82550000D03*
X128016000Y-85090000D03*
X128016000Y-87630000D03*
X128016000Y-90170000D03*
X128016000Y-92710000D03*
X128016000Y-95250000D03*
X128016000Y-97790000D03*
X128016000Y-100330000D03*
X128016000Y-102870000D03*
X143256000Y-102870000D03*
X143256000Y-100330000D03*
X143256000Y-97790000D03*
X143256000Y-95250000D03*
X143256000Y-92710000D03*
X143256000Y-90170000D03*
X143256000Y-87630000D03*
X143256000Y-85090000D03*
X143256000Y-82550000D03*
X143256000Y-80010000D03*
X143256000Y-77470000D03*
X143256000Y-74930000D03*
X143256000Y-72390000D03*
X143256000Y-69850000D03*
%TD*%
D14*
%TO.C,U7*%
X173228000Y-53784500D03*
D15*
X170688000Y-53784500D03*
X168148000Y-53784500D03*
X165608000Y-53784500D03*
X163068000Y-53784500D03*
X160528000Y-53784500D03*
X157988000Y-53784500D03*
X155448000Y-53784500D03*
X155448000Y-61404500D03*
X157988000Y-61404500D03*
X160528000Y-61404500D03*
X163068000Y-61404500D03*
X165608000Y-61404500D03*
X168148000Y-61404500D03*
X170688000Y-61404500D03*
X173228000Y-61404500D03*
%TD*%
D16*
%TO.C,C2*%
X146940000Y-69380000D03*
X146940000Y-74380000D03*
%TD*%
%TO.C,C3*%
X150710000Y-84770000D03*
X150710000Y-79770000D03*
%TD*%
%TO.C,C4*%
X160180000Y-93820000D03*
X155180000Y-93820000D03*
%TD*%
%TO.C,C5*%
X187400000Y-98660000D03*
X187400000Y-93660000D03*
%TD*%
%TO.C,C7*%
X177038000Y-61976000D03*
X177038000Y-56976000D03*
%TD*%
D14*
%TO.C,C12*%
X162433000Y-48704500D03*
D16*
X159933000Y-48704500D03*
%TD*%
D14*
%TO.C,C13*%
X128460500Y-48704500D03*
D16*
X125960500Y-48704500D03*
%TD*%
D14*
%TO.C,C16*%
X175133000Y-48704500D03*
D16*
X172633000Y-48704500D03*
%TD*%
D14*
%TO.C,C14*%
X156083000Y-48704500D03*
D16*
X153583000Y-48704500D03*
%TD*%
D14*
%TO.C,U5*%
X187080000Y-69430000D03*
D15*
X184540000Y-69430000D03*
X182000000Y-69430000D03*
X179460000Y-69430000D03*
X176920000Y-69430000D03*
X174380000Y-69430000D03*
X171840000Y-69430000D03*
X169300000Y-69430000D03*
X166760000Y-69430000D03*
X164220000Y-69430000D03*
X161680000Y-69430000D03*
X159140000Y-69430000D03*
X156600000Y-69430000D03*
X154060000Y-69430000D03*
X154060000Y-84670000D03*
X156600000Y-84670000D03*
X159140000Y-84670000D03*
X161680000Y-84670000D03*
X164220000Y-84670000D03*
X166760000Y-84670000D03*
X169300000Y-84670000D03*
X171840000Y-84670000D03*
X174380000Y-84670000D03*
X176920000Y-84670000D03*
X179460000Y-84670000D03*
X182000000Y-84670000D03*
X184540000Y-84670000D03*
X187080000Y-84670000D03*
%TD*%
D16*
%TO.C,C1*%
X113100000Y-87170000D03*
X108100000Y-87170000D03*
%TD*%
D14*
%TO.C,C9*%
X141160500Y-48704500D03*
D16*
X138660500Y-48704500D03*
%TD*%
D14*
%TO.C,U6*%
X145605500Y-53784500D03*
D15*
X143065500Y-53784500D03*
X140525500Y-53784500D03*
X137985500Y-53784500D03*
X135445500Y-53784500D03*
X132905500Y-53784500D03*
X130365500Y-53784500D03*
X127825500Y-53784500D03*
X127825500Y-61404500D03*
X130365500Y-61404500D03*
X132905500Y-61404500D03*
X135445500Y-61404500D03*
X137985500Y-61404500D03*
X140525500Y-61404500D03*
X143065500Y-61404500D03*
X145605500Y-61404500D03*
%TD*%
D16*
%TO.C,C6*%
X149415500Y-61976000D03*
X149415500Y-56976000D03*
%TD*%
D14*
%TO.C,C15*%
X147510500Y-48704500D03*
D16*
X145010500Y-48704500D03*
%TD*%
D14*
%TO.C,C11*%
X134810500Y-48704500D03*
D16*
X132310500Y-48704500D03*
%TD*%
D14*
%TO.C,C10*%
X168783000Y-48704500D03*
D16*
X166283000Y-48704500D03*
%TD*%
D17*
%TO.C,P1*%
X129413000Y-123190000D03*
X131953000Y-123190000D03*
X134493000Y-123190000D03*
X137033000Y-123190000D03*
X139573000Y-123190000D03*
X142113000Y-123190000D03*
X144653000Y-123190000D03*
X147193000Y-123190000D03*
X149733000Y-123190000D03*
X152273000Y-123190000D03*
X154813000Y-123190000D03*
X157353000Y-123190000D03*
X159893000Y-123190000D03*
X162433000Y-123190000D03*
X164973000Y-123190000D03*
X167513000Y-123190000D03*
X170053000Y-123190000D03*
X172593000Y-123190000D03*
X175133000Y-123190000D03*
X177673000Y-123190000D03*
X180213000Y-123190000D03*
X182753000Y-123190000D03*
X185293000Y-123190000D03*
X187833000Y-123190000D03*
X190373000Y-123190000D03*
%TD*%
D14*
%TO.C,U4*%
X154165000Y-104440000D03*
D15*
X156705000Y-104440000D03*
X159245000Y-104440000D03*
X161785000Y-104440000D03*
X164325000Y-104440000D03*
X166865000Y-104440000D03*
X169405000Y-104440000D03*
X171945000Y-104440000D03*
X174485000Y-104440000D03*
X177025000Y-104440000D03*
X179565000Y-104440000D03*
X182105000Y-104440000D03*
X182105000Y-96820000D03*
X179565000Y-96820000D03*
X177025000Y-96820000D03*
X174485000Y-96820000D03*
X171945000Y-96820000D03*
X169405000Y-96820000D03*
X166865000Y-96820000D03*
X164325000Y-96820000D03*
X161785000Y-96820000D03*
X159245000Y-96820000D03*
X156705000Y-96820000D03*
X154165000Y-96820000D03*
%TD*%
D12*
%TO.C,J1*%
X193548000Y-79502000D03*
D13*
X193548000Y-82042000D03*
%TD*%
D14*
%TO.C,U3*%
X197900000Y-103000000D03*
D15*
X197900000Y-100460000D03*
X197900000Y-97920000D03*
X197900000Y-95380000D03*
X197900000Y-92840000D03*
X197900000Y-90300000D03*
X197900000Y-87760000D03*
X190280000Y-87760000D03*
X190280000Y-90300000D03*
X190280000Y-92840000D03*
X190280000Y-95380000D03*
X190280000Y-97920000D03*
X190280000Y-100460000D03*
X190280000Y-103000000D03*
%TD*%
D16*
%TO.C,C17*%
X187300000Y-107660000D03*
X187300000Y-102660000D03*
%TD*%
D18*
%TO.C,Y1*%
X196440000Y-111940000D03*
X191560000Y-111940000D03*
%TD*%
D16*
%TO.C,R1*%
X197800000Y-107530000D03*
D15*
X190180000Y-107530000D03*
%TD*%
D16*
%TO.C,C8*%
X198330000Y-116370000D03*
X193330000Y-116370000D03*
%TD*%
M02*
