%TF.GenerationSoftware,KiCad,Pcbnew,(6.0.2)*%
%TF.CreationDate,2022-07-06T23:21:18-05:00*%
%TF.ProjectId,ssc,7373632e-6b69-4636-9164-5f7063625858,rev?*%
%TF.SameCoordinates,Original*%
%TF.FileFunction,Legend,Top*%
%TF.FilePolarity,Positive*%
%FSLAX46Y46*%
G04 Gerber Fmt 4.6, Leading zero omitted, Abs format (unit mm)*
G04 Created by KiCad (PCBNEW (6.0.2)) date 2022-07-06 23:21:18*
%MOMM*%
%LPD*%
G01*
G04 APERTURE LIST*
%TA.AperFunction,Profile*%
%ADD10C,0.050000*%
%TD*%
%ADD11C,0.150000*%
%ADD12C,0.120000*%
G04 APERTURE END LIST*
D10*
X127000000Y-127000000D02*
X192786000Y-127000000D01*
X192786000Y-119380000D02*
X200406000Y-119380000D01*
X127000000Y-119380000D02*
X127000000Y-127000000D01*
X101600000Y-41910000D02*
X101600000Y-119380000D01*
X101600000Y-41910000D02*
X200406000Y-41910000D01*
X101600000Y-119380000D02*
X127000000Y-119380000D01*
X200406000Y-41910000D02*
X200406000Y-119380000D01*
X192786000Y-119380000D02*
X192786000Y-127000000D01*
D11*
X125674380Y-60070666D02*
X124674380Y-60070666D01*
X125388666Y-59737333D01*
X124674380Y-59404000D01*
X125674380Y-59404000D01*
X125388666Y-58975428D02*
X125388666Y-58499238D01*
X125674380Y-59070666D02*
X124674380Y-58737333D01*
X125674380Y-58404000D01*
X124674380Y-58165904D02*
X125674380Y-57499238D01*
X124674380Y-57499238D02*
X125674380Y-58165904D01*
X124769619Y-57165904D02*
X124722000Y-57118285D01*
X124674380Y-57023047D01*
X124674380Y-56784952D01*
X124722000Y-56689714D01*
X124769619Y-56642095D01*
X124864857Y-56594476D01*
X124960095Y-56594476D01*
X125102952Y-56642095D01*
X125674380Y-57213523D01*
X125674380Y-56594476D01*
X124674380Y-56261142D02*
X124674380Y-55642095D01*
X125055333Y-55975428D01*
X125055333Y-55832571D01*
X125102952Y-55737333D01*
X125150571Y-55689714D01*
X125245809Y-55642095D01*
X125483904Y-55642095D01*
X125579142Y-55689714D01*
X125626761Y-55737333D01*
X125674380Y-55832571D01*
X125674380Y-56118285D01*
X125626761Y-56213523D01*
X125579142Y-56261142D01*
X124769619Y-55261142D02*
X124722000Y-55213523D01*
X124674380Y-55118285D01*
X124674380Y-54880190D01*
X124722000Y-54784952D01*
X124769619Y-54737333D01*
X124864857Y-54689714D01*
X124960095Y-54689714D01*
X125102952Y-54737333D01*
X125674380Y-55308761D01*
X125674380Y-54689714D01*
X104679714Y-93162380D02*
X104108285Y-93162380D01*
X104394000Y-93162380D02*
X104394000Y-92162380D01*
X104298761Y-92305238D01*
X104203523Y-92400476D01*
X104108285Y-92448095D01*
X153614380Y-60324666D02*
X152614380Y-60324666D01*
X153328666Y-59991333D01*
X152614380Y-59658000D01*
X153614380Y-59658000D01*
X153328666Y-59229428D02*
X153328666Y-58753238D01*
X153614380Y-59324666D02*
X152614380Y-58991333D01*
X153614380Y-58658000D01*
X152614380Y-58419904D02*
X153614380Y-57753238D01*
X152614380Y-57753238D02*
X153614380Y-58419904D01*
X152709619Y-57419904D02*
X152662000Y-57372285D01*
X152614380Y-57277047D01*
X152614380Y-57038952D01*
X152662000Y-56943714D01*
X152709619Y-56896095D01*
X152804857Y-56848476D01*
X152900095Y-56848476D01*
X153042952Y-56896095D01*
X153614380Y-57467523D01*
X153614380Y-56848476D01*
X152614380Y-56515142D02*
X152614380Y-55896095D01*
X152995333Y-56229428D01*
X152995333Y-56086571D01*
X153042952Y-55991333D01*
X153090571Y-55943714D01*
X153185809Y-55896095D01*
X153423904Y-55896095D01*
X153519142Y-55943714D01*
X153566761Y-55991333D01*
X153614380Y-56086571D01*
X153614380Y-56372285D01*
X153566761Y-56467523D01*
X153519142Y-56515142D01*
X152709619Y-55515142D02*
X152662000Y-55467523D01*
X152614380Y-55372285D01*
X152614380Y-55134190D01*
X152662000Y-55038952D01*
X152709619Y-54991333D01*
X152804857Y-54943714D01*
X152900095Y-54943714D01*
X153042952Y-54991333D01*
X153614380Y-55562761D01*
X153614380Y-54943714D01*
X154463714Y-107386380D02*
X153892285Y-107386380D01*
X154178000Y-107386380D02*
X154178000Y-106386380D01*
X154082761Y-106529238D01*
X153987523Y-106624476D01*
X153892285Y-106672095D01*
X132945523Y-66857619D02*
X132993142Y-66810000D01*
X133088380Y-66762380D01*
X133326476Y-66762380D01*
X133421714Y-66810000D01*
X133469333Y-66857619D01*
X133516952Y-66952857D01*
X133516952Y-67048095D01*
X133469333Y-67190952D01*
X132897904Y-67762380D01*
X133516952Y-67762380D01*
X134088380Y-67190952D02*
X133993142Y-67143333D01*
X133945523Y-67095714D01*
X133897904Y-67000476D01*
X133897904Y-66952857D01*
X133945523Y-66857619D01*
X133993142Y-66810000D01*
X134088380Y-66762380D01*
X134278857Y-66762380D01*
X134374095Y-66810000D01*
X134421714Y-66857619D01*
X134469333Y-66952857D01*
X134469333Y-67000476D01*
X134421714Y-67095714D01*
X134374095Y-67143333D01*
X134278857Y-67190952D01*
X134088380Y-67190952D01*
X133993142Y-67238571D01*
X133945523Y-67286190D01*
X133897904Y-67381428D01*
X133897904Y-67571904D01*
X133945523Y-67667142D01*
X133993142Y-67714761D01*
X134088380Y-67762380D01*
X134278857Y-67762380D01*
X134374095Y-67714761D01*
X134421714Y-67667142D01*
X134469333Y-67571904D01*
X134469333Y-67381428D01*
X134421714Y-67286190D01*
X134374095Y-67238571D01*
X134278857Y-67190952D01*
X135469333Y-67667142D02*
X135421714Y-67714761D01*
X135278857Y-67762380D01*
X135183619Y-67762380D01*
X135040761Y-67714761D01*
X134945523Y-67619523D01*
X134897904Y-67524285D01*
X134850285Y-67333809D01*
X134850285Y-67190952D01*
X134897904Y-67000476D01*
X134945523Y-66905238D01*
X135040761Y-66810000D01*
X135183619Y-66762380D01*
X135278857Y-66762380D01*
X135421714Y-66810000D01*
X135469333Y-66857619D01*
X135850285Y-66857619D02*
X135897904Y-66810000D01*
X135993142Y-66762380D01*
X136231238Y-66762380D01*
X136326476Y-66810000D01*
X136374095Y-66857619D01*
X136421714Y-66952857D01*
X136421714Y-67048095D01*
X136374095Y-67190952D01*
X135802666Y-67762380D01*
X136421714Y-67762380D01*
X137326476Y-66762380D02*
X136850285Y-66762380D01*
X136802666Y-67238571D01*
X136850285Y-67190952D01*
X136945523Y-67143333D01*
X137183619Y-67143333D01*
X137278857Y-67190952D01*
X137326476Y-67238571D01*
X137374095Y-67333809D01*
X137374095Y-67571904D01*
X137326476Y-67667142D01*
X137278857Y-67714761D01*
X137183619Y-67762380D01*
X136945523Y-67762380D01*
X136850285Y-67714761D01*
X136802666Y-67667142D01*
X138231238Y-66762380D02*
X138040761Y-66762380D01*
X137945523Y-66810000D01*
X137897904Y-66857619D01*
X137802666Y-67000476D01*
X137755047Y-67190952D01*
X137755047Y-67571904D01*
X137802666Y-67667142D01*
X137850285Y-67714761D01*
X137945523Y-67762380D01*
X138136000Y-67762380D01*
X138231238Y-67714761D01*
X138278857Y-67667142D01*
X138326476Y-67571904D01*
X138326476Y-67333809D01*
X138278857Y-67238571D01*
X138231238Y-67190952D01*
X138136000Y-67143333D01*
X137945523Y-67143333D01*
X137850285Y-67190952D01*
X137802666Y-67238571D01*
X137755047Y-67333809D01*
X105903809Y-54889761D02*
X106046666Y-54937380D01*
X106284761Y-54937380D01*
X106380000Y-54889761D01*
X106427619Y-54842142D01*
X106475238Y-54746904D01*
X106475238Y-54651666D01*
X106427619Y-54556428D01*
X106380000Y-54508809D01*
X106284761Y-54461190D01*
X106094285Y-54413571D01*
X105999047Y-54365952D01*
X105951428Y-54318333D01*
X105903809Y-54223095D01*
X105903809Y-54127857D01*
X105951428Y-54032619D01*
X105999047Y-53985000D01*
X106094285Y-53937380D01*
X106332380Y-53937380D01*
X106475238Y-53985000D01*
X106903809Y-54937380D02*
X106903809Y-54270714D01*
X106903809Y-53937380D02*
X106856190Y-53985000D01*
X106903809Y-54032619D01*
X106951428Y-53985000D01*
X106903809Y-53937380D01*
X106903809Y-54032619D01*
X107380000Y-54937380D02*
X107380000Y-54270714D01*
X107380000Y-54365952D02*
X107427619Y-54318333D01*
X107522857Y-54270714D01*
X107665714Y-54270714D01*
X107760952Y-54318333D01*
X107808571Y-54413571D01*
X107808571Y-54937380D01*
X107808571Y-54413571D02*
X107856190Y-54318333D01*
X107951428Y-54270714D01*
X108094285Y-54270714D01*
X108189523Y-54318333D01*
X108237142Y-54413571D01*
X108237142Y-54937380D01*
X108713333Y-54270714D02*
X108713333Y-55270714D01*
X108713333Y-54318333D02*
X108808571Y-54270714D01*
X108999047Y-54270714D01*
X109094285Y-54318333D01*
X109141904Y-54365952D01*
X109189523Y-54461190D01*
X109189523Y-54746904D01*
X109141904Y-54842142D01*
X109094285Y-54889761D01*
X108999047Y-54937380D01*
X108808571Y-54937380D01*
X108713333Y-54889761D01*
X109760952Y-54937380D02*
X109665714Y-54889761D01*
X109618095Y-54794523D01*
X109618095Y-53937380D01*
X110522857Y-54889761D02*
X110427619Y-54937380D01*
X110237142Y-54937380D01*
X110141904Y-54889761D01*
X110094285Y-54794523D01*
X110094285Y-54413571D01*
X110141904Y-54318333D01*
X110237142Y-54270714D01*
X110427619Y-54270714D01*
X110522857Y-54318333D01*
X110570476Y-54413571D01*
X110570476Y-54508809D01*
X110094285Y-54604047D01*
X111713333Y-54889761D02*
X111856190Y-54937380D01*
X112094285Y-54937380D01*
X112189523Y-54889761D01*
X112237142Y-54842142D01*
X112284761Y-54746904D01*
X112284761Y-54651666D01*
X112237142Y-54556428D01*
X112189523Y-54508809D01*
X112094285Y-54461190D01*
X111903809Y-54413571D01*
X111808571Y-54365952D01*
X111760952Y-54318333D01*
X111713333Y-54223095D01*
X111713333Y-54127857D01*
X111760952Y-54032619D01*
X111808571Y-53985000D01*
X111903809Y-53937380D01*
X112141904Y-53937380D01*
X112284761Y-53985000D01*
X113094285Y-54889761D02*
X112999047Y-54937380D01*
X112808571Y-54937380D01*
X112713333Y-54889761D01*
X112665714Y-54794523D01*
X112665714Y-54413571D01*
X112713333Y-54318333D01*
X112808571Y-54270714D01*
X112999047Y-54270714D01*
X113094285Y-54318333D01*
X113141904Y-54413571D01*
X113141904Y-54508809D01*
X112665714Y-54604047D01*
X113570476Y-54937380D02*
X113570476Y-54270714D01*
X113570476Y-54461190D02*
X113618095Y-54365952D01*
X113665714Y-54318333D01*
X113760952Y-54270714D01*
X113856190Y-54270714D01*
X114189523Y-54937380D02*
X114189523Y-54270714D01*
X114189523Y-53937380D02*
X114141904Y-53985000D01*
X114189523Y-54032619D01*
X114237142Y-53985000D01*
X114189523Y-53937380D01*
X114189523Y-54032619D01*
X115094285Y-54937380D02*
X115094285Y-54413571D01*
X115046666Y-54318333D01*
X114951428Y-54270714D01*
X114760952Y-54270714D01*
X114665714Y-54318333D01*
X115094285Y-54889761D02*
X114999047Y-54937380D01*
X114760952Y-54937380D01*
X114665714Y-54889761D01*
X114618095Y-54794523D01*
X114618095Y-54699285D01*
X114665714Y-54604047D01*
X114760952Y-54556428D01*
X114999047Y-54556428D01*
X115094285Y-54508809D01*
X115713333Y-54937380D02*
X115618095Y-54889761D01*
X115570476Y-54794523D01*
X115570476Y-53937380D01*
X117427619Y-54842142D02*
X117380000Y-54889761D01*
X117237142Y-54937380D01*
X117141904Y-54937380D01*
X116999047Y-54889761D01*
X116903809Y-54794523D01*
X116856190Y-54699285D01*
X116808571Y-54508809D01*
X116808571Y-54365952D01*
X116856190Y-54175476D01*
X116903809Y-54080238D01*
X116999047Y-53985000D01*
X117141904Y-53937380D01*
X117237142Y-53937380D01*
X117380000Y-53985000D01*
X117427619Y-54032619D01*
X118284761Y-54937380D02*
X118284761Y-54413571D01*
X118237142Y-54318333D01*
X118141904Y-54270714D01*
X117951428Y-54270714D01*
X117856190Y-54318333D01*
X118284761Y-54889761D02*
X118189523Y-54937380D01*
X117951428Y-54937380D01*
X117856190Y-54889761D01*
X117808571Y-54794523D01*
X117808571Y-54699285D01*
X117856190Y-54604047D01*
X117951428Y-54556428D01*
X118189523Y-54556428D01*
X118284761Y-54508809D01*
X118760952Y-54937380D02*
X118760952Y-54270714D01*
X118760952Y-54461190D02*
X118808571Y-54365952D01*
X118856190Y-54318333D01*
X118951428Y-54270714D01*
X119046666Y-54270714D01*
X119808571Y-54937380D02*
X119808571Y-53937380D01*
X119808571Y-54889761D02*
X119713333Y-54937380D01*
X119522857Y-54937380D01*
X119427619Y-54889761D01*
X119380000Y-54842142D01*
X119332380Y-54746904D01*
X119332380Y-54461190D01*
X119380000Y-54365952D01*
X119427619Y-54318333D01*
X119522857Y-54270714D01*
X119713333Y-54270714D01*
X119808571Y-54318333D01*
X104308571Y-56023571D02*
X104451428Y-56071190D01*
X104499047Y-56118809D01*
X104546666Y-56214047D01*
X104546666Y-56356904D01*
X104499047Y-56452142D01*
X104451428Y-56499761D01*
X104356190Y-56547380D01*
X103975238Y-56547380D01*
X103975238Y-55547380D01*
X104308571Y-55547380D01*
X104403809Y-55595000D01*
X104451428Y-55642619D01*
X104499047Y-55737857D01*
X104499047Y-55833095D01*
X104451428Y-55928333D01*
X104403809Y-55975952D01*
X104308571Y-56023571D01*
X103975238Y-56023571D01*
X104880000Y-55880714D02*
X105118095Y-56547380D01*
X105356190Y-55880714D02*
X105118095Y-56547380D01*
X105022857Y-56785476D01*
X104975238Y-56833095D01*
X104880000Y-56880714D01*
X106784761Y-55547380D02*
X106784761Y-56261666D01*
X106737142Y-56404523D01*
X106641904Y-56499761D01*
X106499047Y-56547380D01*
X106403809Y-56547380D01*
X107403809Y-56547380D02*
X107308571Y-56499761D01*
X107260952Y-56452142D01*
X107213333Y-56356904D01*
X107213333Y-56071190D01*
X107260952Y-55975952D01*
X107308571Y-55928333D01*
X107403809Y-55880714D01*
X107546666Y-55880714D01*
X107641904Y-55928333D01*
X107689523Y-55975952D01*
X107737142Y-56071190D01*
X107737142Y-56356904D01*
X107689523Y-56452142D01*
X107641904Y-56499761D01*
X107546666Y-56547380D01*
X107403809Y-56547380D01*
X108118095Y-56499761D02*
X108213333Y-56547380D01*
X108403809Y-56547380D01*
X108499047Y-56499761D01*
X108546666Y-56404523D01*
X108546666Y-56356904D01*
X108499047Y-56261666D01*
X108403809Y-56214047D01*
X108260952Y-56214047D01*
X108165714Y-56166428D01*
X108118095Y-56071190D01*
X108118095Y-56023571D01*
X108165714Y-55928333D01*
X108260952Y-55880714D01*
X108403809Y-55880714D01*
X108499047Y-55928333D01*
X108975238Y-56547380D02*
X108975238Y-55547380D01*
X109403809Y-56547380D02*
X109403809Y-56023571D01*
X109356190Y-55928333D01*
X109260952Y-55880714D01*
X109118095Y-55880714D01*
X109022857Y-55928333D01*
X108975238Y-55975952D01*
X110308571Y-55880714D02*
X110308571Y-56547380D01*
X109880000Y-55880714D02*
X109880000Y-56404523D01*
X109927619Y-56499761D01*
X110022857Y-56547380D01*
X110165714Y-56547380D01*
X110260952Y-56499761D01*
X110308571Y-56452142D01*
X111213333Y-56547380D02*
X111213333Y-56023571D01*
X111165714Y-55928333D01*
X111070476Y-55880714D01*
X110880000Y-55880714D01*
X110784761Y-55928333D01*
X111213333Y-56499761D02*
X111118095Y-56547380D01*
X110880000Y-56547380D01*
X110784761Y-56499761D01*
X110737142Y-56404523D01*
X110737142Y-56309285D01*
X110784761Y-56214047D01*
X110880000Y-56166428D01*
X111118095Y-56166428D01*
X111213333Y-56118809D01*
X112451428Y-56547380D02*
X112451428Y-55547380D01*
X112784761Y-56261666D01*
X113118095Y-55547380D01*
X113118095Y-56547380D01*
X113594285Y-56452142D02*
X113641904Y-56499761D01*
X113594285Y-56547380D01*
X113546666Y-56499761D01*
X113594285Y-56452142D01*
X113594285Y-56547380D01*
X114689523Y-55547380D02*
X115260952Y-55547380D01*
X114975238Y-56547380D02*
X114975238Y-55547380D01*
X115594285Y-56547380D02*
X115594285Y-55547380D01*
X116022857Y-56547380D02*
X116022857Y-56023571D01*
X115975238Y-55928333D01*
X115880000Y-55880714D01*
X115737142Y-55880714D01*
X115641904Y-55928333D01*
X115594285Y-55975952D01*
X116641904Y-56547380D02*
X116546666Y-56499761D01*
X116499047Y-56452142D01*
X116451428Y-56356904D01*
X116451428Y-56071190D01*
X116499047Y-55975952D01*
X116546666Y-55928333D01*
X116641904Y-55880714D01*
X116784761Y-55880714D01*
X116880000Y-55928333D01*
X116927619Y-55975952D01*
X116975238Y-56071190D01*
X116975238Y-56356904D01*
X116927619Y-56452142D01*
X116880000Y-56499761D01*
X116784761Y-56547380D01*
X116641904Y-56547380D01*
X117403809Y-56547380D02*
X117403809Y-55880714D01*
X117403809Y-55975952D02*
X117451428Y-55928333D01*
X117546666Y-55880714D01*
X117689523Y-55880714D01*
X117784761Y-55928333D01*
X117832380Y-56023571D01*
X117832380Y-56547380D01*
X117832380Y-56023571D02*
X117880000Y-55928333D01*
X117975238Y-55880714D01*
X118118095Y-55880714D01*
X118213333Y-55928333D01*
X118260952Y-56023571D01*
X118260952Y-56547380D01*
X118737142Y-55880714D02*
X118737142Y-56880714D01*
X118737142Y-55928333D02*
X118832380Y-55880714D01*
X119022857Y-55880714D01*
X119118095Y-55928333D01*
X119165714Y-55975952D01*
X119213333Y-56071190D01*
X119213333Y-56356904D01*
X119165714Y-56452142D01*
X119118095Y-56499761D01*
X119022857Y-56547380D01*
X118832380Y-56547380D01*
X118737142Y-56499761D01*
X119594285Y-56499761D02*
X119689523Y-56547380D01*
X119880000Y-56547380D01*
X119975238Y-56499761D01*
X120022857Y-56404523D01*
X120022857Y-56356904D01*
X119975238Y-56261666D01*
X119880000Y-56214047D01*
X119737142Y-56214047D01*
X119641904Y-56166428D01*
X119594285Y-56071190D01*
X119594285Y-56023571D01*
X119641904Y-55928333D01*
X119737142Y-55880714D01*
X119880000Y-55880714D01*
X119975238Y-55928333D01*
X120594285Y-56547380D02*
X120499047Y-56499761D01*
X120451428Y-56452142D01*
X120403809Y-56356904D01*
X120403809Y-56071190D01*
X120451428Y-55975952D01*
X120499047Y-55928333D01*
X120594285Y-55880714D01*
X120737142Y-55880714D01*
X120832380Y-55928333D01*
X120880000Y-55975952D01*
X120927619Y-56071190D01*
X120927619Y-56356904D01*
X120880000Y-56452142D01*
X120832380Y-56499761D01*
X120737142Y-56547380D01*
X120594285Y-56547380D01*
X121356190Y-55880714D02*
X121356190Y-56547380D01*
X121356190Y-55975952D02*
X121403809Y-55928333D01*
X121499047Y-55880714D01*
X121641904Y-55880714D01*
X121737142Y-55928333D01*
X121784761Y-56023571D01*
X121784761Y-56547380D01*
X103927619Y-58157380D02*
X103927619Y-57157380D01*
X104356190Y-58157380D02*
X104356190Y-57633571D01*
X104308571Y-57538333D01*
X104213333Y-57490714D01*
X104070476Y-57490714D01*
X103975238Y-57538333D01*
X103927619Y-57585952D01*
X104689523Y-57490714D02*
X105070476Y-57490714D01*
X104832380Y-57157380D02*
X104832380Y-58014523D01*
X104880000Y-58109761D01*
X104975238Y-58157380D01*
X105070476Y-58157380D01*
X105260952Y-57490714D02*
X105641904Y-57490714D01*
X105403809Y-57157380D02*
X105403809Y-58014523D01*
X105451428Y-58109761D01*
X105546666Y-58157380D01*
X105641904Y-58157380D01*
X105975238Y-57490714D02*
X105975238Y-58490714D01*
X105975238Y-57538333D02*
X106070476Y-57490714D01*
X106260952Y-57490714D01*
X106356190Y-57538333D01*
X106403809Y-57585952D01*
X106451428Y-57681190D01*
X106451428Y-57966904D01*
X106403809Y-58062142D01*
X106356190Y-58109761D01*
X106260952Y-58157380D01*
X106070476Y-58157380D01*
X105975238Y-58109761D01*
X106832380Y-58109761D02*
X106927619Y-58157380D01*
X107118095Y-58157380D01*
X107213333Y-58109761D01*
X107260952Y-58014523D01*
X107260952Y-57966904D01*
X107213333Y-57871666D01*
X107118095Y-57824047D01*
X106975238Y-57824047D01*
X106880000Y-57776428D01*
X106832380Y-57681190D01*
X106832380Y-57633571D01*
X106880000Y-57538333D01*
X106975238Y-57490714D01*
X107118095Y-57490714D01*
X107213333Y-57538333D01*
X107689523Y-58062142D02*
X107737142Y-58109761D01*
X107689523Y-58157380D01*
X107641904Y-58109761D01*
X107689523Y-58062142D01*
X107689523Y-58157380D01*
X107689523Y-57538333D02*
X107737142Y-57585952D01*
X107689523Y-57633571D01*
X107641904Y-57585952D01*
X107689523Y-57538333D01*
X107689523Y-57633571D01*
X108880000Y-57109761D02*
X108022857Y-58395476D01*
X109927619Y-57109761D02*
X109070476Y-58395476D01*
X110165714Y-57490714D02*
X110356190Y-58157380D01*
X110546666Y-57681190D01*
X110737142Y-58157380D01*
X110927619Y-57490714D01*
X111213333Y-57490714D02*
X111403809Y-58157380D01*
X111594285Y-57681190D01*
X111784761Y-58157380D01*
X111975238Y-57490714D01*
X112260952Y-57490714D02*
X112451428Y-58157380D01*
X112641904Y-57681190D01*
X112832380Y-58157380D01*
X113022857Y-57490714D01*
X113403809Y-58062142D02*
X113451428Y-58109761D01*
X113403809Y-58157380D01*
X113356190Y-58109761D01*
X113403809Y-58062142D01*
X113403809Y-58157380D01*
X114308571Y-58157380D02*
X114308571Y-57633571D01*
X114260952Y-57538333D01*
X114165714Y-57490714D01*
X113975238Y-57490714D01*
X113880000Y-57538333D01*
X114308571Y-58109761D02*
X114213333Y-58157380D01*
X113975238Y-58157380D01*
X113880000Y-58109761D01*
X113832380Y-58014523D01*
X113832380Y-57919285D01*
X113880000Y-57824047D01*
X113975238Y-57776428D01*
X114213333Y-57776428D01*
X114308571Y-57728809D01*
X114784761Y-58157380D02*
X114784761Y-57490714D01*
X114784761Y-57681190D02*
X114832380Y-57585952D01*
X114880000Y-57538333D01*
X114975238Y-57490714D01*
X115070476Y-57490714D01*
X115784761Y-58109761D02*
X115689523Y-58157380D01*
X115499047Y-58157380D01*
X115403809Y-58109761D01*
X115356190Y-58014523D01*
X115356190Y-57633571D01*
X115403809Y-57538333D01*
X115499047Y-57490714D01*
X115689523Y-57490714D01*
X115784761Y-57538333D01*
X115832380Y-57633571D01*
X115832380Y-57728809D01*
X115356190Y-57824047D01*
X116689523Y-58157380D02*
X116689523Y-57633571D01*
X116641904Y-57538333D01*
X116546666Y-57490714D01*
X116356190Y-57490714D01*
X116260952Y-57538333D01*
X116689523Y-58109761D02*
X116594285Y-58157380D01*
X116356190Y-58157380D01*
X116260952Y-58109761D01*
X116213333Y-58014523D01*
X116213333Y-57919285D01*
X116260952Y-57824047D01*
X116356190Y-57776428D01*
X116594285Y-57776428D01*
X116689523Y-57728809D01*
X117070476Y-57157380D02*
X117737142Y-57157380D01*
X117308571Y-58157380D01*
X118022857Y-57157380D02*
X118641904Y-57157380D01*
X118308571Y-57538333D01*
X118451428Y-57538333D01*
X118546666Y-57585952D01*
X118594285Y-57633571D01*
X118641904Y-57728809D01*
X118641904Y-57966904D01*
X118594285Y-58062142D01*
X118546666Y-58109761D01*
X118451428Y-58157380D01*
X118165714Y-58157380D01*
X118070476Y-58109761D01*
X118022857Y-58062142D01*
X119070476Y-58062142D02*
X119118095Y-58109761D01*
X119070476Y-58157380D01*
X119022857Y-58109761D01*
X119070476Y-58062142D01*
X119070476Y-58157380D01*
X119975238Y-57490714D02*
X119975238Y-58157380D01*
X119546666Y-57490714D02*
X119546666Y-58014523D01*
X119594285Y-58109761D01*
X119689523Y-58157380D01*
X119832380Y-58157380D01*
X119927619Y-58109761D01*
X119975238Y-58062142D01*
X120403809Y-58109761D02*
X120499047Y-58157380D01*
X120689523Y-58157380D01*
X120784761Y-58109761D01*
X120832380Y-58014523D01*
X120832380Y-57966904D01*
X120784761Y-57871666D01*
X120689523Y-57824047D01*
X120546666Y-57824047D01*
X120451428Y-57776428D01*
X120403809Y-57681190D01*
X120403809Y-57633571D01*
X120451428Y-57538333D01*
X120546666Y-57490714D01*
X120689523Y-57490714D01*
X120784761Y-57538333D01*
X121975238Y-57109761D02*
X121118095Y-58395476D01*
X107427619Y-60472619D02*
X107475238Y-60425000D01*
X107570476Y-60377380D01*
X107808571Y-60377380D01*
X107903809Y-60425000D01*
X107951428Y-60472619D01*
X107999047Y-60567857D01*
X107999047Y-60663095D01*
X107951428Y-60805952D01*
X107380000Y-61377380D01*
X107999047Y-61377380D01*
X109665714Y-61377380D02*
X109189523Y-61377380D01*
X109189523Y-60377380D01*
X110427619Y-61377380D02*
X110427619Y-60853571D01*
X110380000Y-60758333D01*
X110284761Y-60710714D01*
X110094285Y-60710714D01*
X109999047Y-60758333D01*
X110427619Y-61329761D02*
X110332380Y-61377380D01*
X110094285Y-61377380D01*
X109999047Y-61329761D01*
X109951428Y-61234523D01*
X109951428Y-61139285D01*
X109999047Y-61044047D01*
X110094285Y-60996428D01*
X110332380Y-60996428D01*
X110427619Y-60948809D01*
X110808571Y-60710714D02*
X111046666Y-61377380D01*
X111284761Y-60710714D02*
X111046666Y-61377380D01*
X110951428Y-61615476D01*
X110903809Y-61663095D01*
X110808571Y-61710714D01*
X112046666Y-61329761D02*
X111951428Y-61377380D01*
X111760952Y-61377380D01*
X111665714Y-61329761D01*
X111618095Y-61234523D01*
X111618095Y-60853571D01*
X111665714Y-60758333D01*
X111760952Y-60710714D01*
X111951428Y-60710714D01*
X112046666Y-60758333D01*
X112094285Y-60853571D01*
X112094285Y-60948809D01*
X111618095Y-61044047D01*
X112522857Y-61377380D02*
X112522857Y-60710714D01*
X112522857Y-60901190D02*
X112570476Y-60805952D01*
X112618095Y-60758333D01*
X112713333Y-60710714D01*
X112808571Y-60710714D01*
X114380000Y-61377380D02*
X113903809Y-61377380D01*
X113903809Y-60377380D01*
X115141904Y-61377380D02*
X115141904Y-60853571D01*
X115094285Y-60758333D01*
X114999047Y-60710714D01*
X114808571Y-60710714D01*
X114713333Y-60758333D01*
X115141904Y-61329761D02*
X115046666Y-61377380D01*
X114808571Y-61377380D01*
X114713333Y-61329761D01*
X114665714Y-61234523D01*
X114665714Y-61139285D01*
X114713333Y-61044047D01*
X114808571Y-60996428D01*
X115046666Y-60996428D01*
X115141904Y-60948809D01*
X115522857Y-60710714D02*
X115760952Y-61377380D01*
X115999047Y-60710714D02*
X115760952Y-61377380D01*
X115665714Y-61615476D01*
X115618095Y-61663095D01*
X115522857Y-61710714D01*
X116522857Y-61377380D02*
X116427619Y-61329761D01*
X116380000Y-61282142D01*
X116332380Y-61186904D01*
X116332380Y-60901190D01*
X116380000Y-60805952D01*
X116427619Y-60758333D01*
X116522857Y-60710714D01*
X116665714Y-60710714D01*
X116760952Y-60758333D01*
X116808571Y-60805952D01*
X116856190Y-60901190D01*
X116856190Y-61186904D01*
X116808571Y-61282142D01*
X116760952Y-61329761D01*
X116665714Y-61377380D01*
X116522857Y-61377380D01*
X117713333Y-60710714D02*
X117713333Y-61377380D01*
X117284761Y-60710714D02*
X117284761Y-61234523D01*
X117332380Y-61329761D01*
X117427619Y-61377380D01*
X117570476Y-61377380D01*
X117665714Y-61329761D01*
X117713333Y-61282142D01*
X118046666Y-60710714D02*
X118427619Y-60710714D01*
X118189523Y-60377380D02*
X118189523Y-61234523D01*
X118237142Y-61329761D01*
X118332380Y-61377380D01*
X118427619Y-61377380D01*
X107046666Y-62987380D02*
X107046666Y-61987380D01*
X107046666Y-62368333D02*
X107141904Y-62320714D01*
X107332380Y-62320714D01*
X107427619Y-62368333D01*
X107475238Y-62415952D01*
X107522857Y-62511190D01*
X107522857Y-62796904D01*
X107475238Y-62892142D01*
X107427619Y-62939761D01*
X107332380Y-62987380D01*
X107141904Y-62987380D01*
X107046666Y-62939761D01*
X107856190Y-62320714D02*
X108094285Y-62987380D01*
X108332380Y-62320714D02*
X108094285Y-62987380D01*
X107999047Y-63225476D01*
X107951428Y-63273095D01*
X107856190Y-63320714D01*
X109475238Y-62987380D02*
X109475238Y-61987380D01*
X109713333Y-61987380D01*
X109856190Y-62035000D01*
X109951428Y-62130238D01*
X109999047Y-62225476D01*
X110046666Y-62415952D01*
X110046666Y-62558809D01*
X109999047Y-62749285D01*
X109951428Y-62844523D01*
X109856190Y-62939761D01*
X109713333Y-62987380D01*
X109475238Y-62987380D01*
X110903809Y-62987380D02*
X110903809Y-62463571D01*
X110856190Y-62368333D01*
X110760952Y-62320714D01*
X110570476Y-62320714D01*
X110475238Y-62368333D01*
X110903809Y-62939761D02*
X110808571Y-62987380D01*
X110570476Y-62987380D01*
X110475238Y-62939761D01*
X110427619Y-62844523D01*
X110427619Y-62749285D01*
X110475238Y-62654047D01*
X110570476Y-62606428D01*
X110808571Y-62606428D01*
X110903809Y-62558809D01*
X111380000Y-62320714D02*
X111380000Y-62987380D01*
X111380000Y-62415952D02*
X111427619Y-62368333D01*
X111522857Y-62320714D01*
X111665714Y-62320714D01*
X111760952Y-62368333D01*
X111808571Y-62463571D01*
X111808571Y-62987380D01*
X112284761Y-62987380D02*
X112284761Y-62320714D01*
X112284761Y-61987380D02*
X112237142Y-62035000D01*
X112284761Y-62082619D01*
X112332380Y-62035000D01*
X112284761Y-61987380D01*
X112284761Y-62082619D01*
X113141904Y-62939761D02*
X113046666Y-62987380D01*
X112856190Y-62987380D01*
X112760952Y-62939761D01*
X112713333Y-62844523D01*
X112713333Y-62463571D01*
X112760952Y-62368333D01*
X112856190Y-62320714D01*
X113046666Y-62320714D01*
X113141904Y-62368333D01*
X113189523Y-62463571D01*
X113189523Y-62558809D01*
X112713333Y-62654047D01*
X113760952Y-62987380D02*
X113665714Y-62939761D01*
X113618095Y-62844523D01*
X113618095Y-61987380D01*
X114903809Y-62987380D02*
X114903809Y-61987380D01*
X115237142Y-62701666D01*
X115570476Y-61987380D01*
X115570476Y-62987380D01*
X116475238Y-62987380D02*
X116475238Y-62463571D01*
X116427619Y-62368333D01*
X116332380Y-62320714D01*
X116141904Y-62320714D01*
X116046666Y-62368333D01*
X116475238Y-62939761D02*
X116380000Y-62987380D01*
X116141904Y-62987380D01*
X116046666Y-62939761D01*
X115999047Y-62844523D01*
X115999047Y-62749285D01*
X116046666Y-62654047D01*
X116141904Y-62606428D01*
X116380000Y-62606428D01*
X116475238Y-62558809D01*
X116951428Y-62987380D02*
X116951428Y-62320714D01*
X116951428Y-62511190D02*
X116999047Y-62415952D01*
X117046666Y-62368333D01*
X117141904Y-62320714D01*
X117237142Y-62320714D01*
X117570476Y-62987380D02*
X117570476Y-61987380D01*
X117665714Y-62606428D02*
X117951428Y-62987380D01*
X117951428Y-62320714D02*
X117570476Y-62701666D01*
X118332380Y-62939761D02*
X118427619Y-62987380D01*
X118618095Y-62987380D01*
X118713333Y-62939761D01*
X118760952Y-62844523D01*
X118760952Y-62796904D01*
X118713333Y-62701666D01*
X118618095Y-62654047D01*
X118475238Y-62654047D01*
X118380000Y-62606428D01*
X118332380Y-62511190D01*
X118332380Y-62463571D01*
X118380000Y-62368333D01*
X118475238Y-62320714D01*
X118618095Y-62320714D01*
X118713333Y-62368333D01*
X175545714Y-54046380D02*
X174974285Y-54046380D01*
X175260000Y-54046380D02*
X175260000Y-53046380D01*
X175164761Y-53189238D01*
X175069523Y-53284476D01*
X174974285Y-53332095D01*
X189190380Y-79176285D02*
X189190380Y-79366761D01*
X189238000Y-79462000D01*
X189285619Y-79509619D01*
X189428476Y-79604857D01*
X189618952Y-79652476D01*
X189999904Y-79652476D01*
X190095142Y-79604857D01*
X190142761Y-79557238D01*
X190190380Y-79462000D01*
X190190380Y-79271523D01*
X190142761Y-79176285D01*
X190095142Y-79128666D01*
X189999904Y-79081047D01*
X189761809Y-79081047D01*
X189666571Y-79128666D01*
X189618952Y-79176285D01*
X189571333Y-79271523D01*
X189571333Y-79462000D01*
X189618952Y-79557238D01*
X189666571Y-79604857D01*
X189761809Y-79652476D01*
X189190380Y-78176285D02*
X189190380Y-78652476D01*
X189666571Y-78700095D01*
X189618952Y-78652476D01*
X189571333Y-78557238D01*
X189571333Y-78319142D01*
X189618952Y-78223904D01*
X189666571Y-78176285D01*
X189761809Y-78128666D01*
X189999904Y-78128666D01*
X190095142Y-78176285D01*
X190142761Y-78223904D01*
X190190380Y-78319142D01*
X190190380Y-78557238D01*
X190142761Y-78652476D01*
X190095142Y-78700095D01*
X190142761Y-77747714D02*
X190190380Y-77604857D01*
X190190380Y-77366761D01*
X190142761Y-77271523D01*
X190095142Y-77223904D01*
X189999904Y-77176285D01*
X189904666Y-77176285D01*
X189809428Y-77223904D01*
X189761809Y-77271523D01*
X189714190Y-77366761D01*
X189666571Y-77557238D01*
X189618952Y-77652476D01*
X189571333Y-77700095D01*
X189476095Y-77747714D01*
X189380857Y-77747714D01*
X189285619Y-77700095D01*
X189238000Y-77652476D01*
X189190380Y-77557238D01*
X189190380Y-77319142D01*
X189238000Y-77176285D01*
X190095142Y-76176285D02*
X190142761Y-76223904D01*
X190190380Y-76366761D01*
X190190380Y-76462000D01*
X190142761Y-76604857D01*
X190047523Y-76700095D01*
X189952285Y-76747714D01*
X189761809Y-76795333D01*
X189618952Y-76795333D01*
X189428476Y-76747714D01*
X189333238Y-76700095D01*
X189238000Y-76604857D01*
X189190380Y-76462000D01*
X189190380Y-76366761D01*
X189238000Y-76223904D01*
X189285619Y-76176285D01*
X189190380Y-75271523D02*
X189190380Y-75747714D01*
X189666571Y-75795333D01*
X189618952Y-75747714D01*
X189571333Y-75652476D01*
X189571333Y-75414380D01*
X189618952Y-75319142D01*
X189666571Y-75271523D01*
X189761809Y-75223904D01*
X189999904Y-75223904D01*
X190095142Y-75271523D01*
X190142761Y-75319142D01*
X190190380Y-75414380D01*
X190190380Y-75652476D01*
X190142761Y-75747714D01*
X190095142Y-75795333D01*
X190190380Y-74271523D02*
X190190380Y-74842952D01*
X190190380Y-74557238D02*
X189190380Y-74557238D01*
X189333238Y-74652476D01*
X189428476Y-74747714D01*
X189476095Y-74842952D01*
X151138000Y-104504761D02*
X151090380Y-104600000D01*
X151090380Y-104742857D01*
X151138000Y-104885714D01*
X151233238Y-104980952D01*
X151328476Y-105028571D01*
X151518952Y-105076190D01*
X151661809Y-105076190D01*
X151852285Y-105028571D01*
X151947523Y-104980952D01*
X152042761Y-104885714D01*
X152090380Y-104742857D01*
X152090380Y-104647619D01*
X152042761Y-104504761D01*
X151995142Y-104457142D01*
X151661809Y-104457142D01*
X151661809Y-104647619D01*
X151804666Y-104076190D02*
X151804666Y-103600000D01*
X152090380Y-104171428D02*
X151090380Y-103838095D01*
X152090380Y-103504761D01*
X152090380Y-102695238D02*
X152090380Y-103171428D01*
X151090380Y-103171428D01*
X151185619Y-102409523D02*
X151138000Y-102361904D01*
X151090380Y-102266666D01*
X151090380Y-102028571D01*
X151138000Y-101933333D01*
X151185619Y-101885714D01*
X151280857Y-101838095D01*
X151376095Y-101838095D01*
X151518952Y-101885714D01*
X152090380Y-102457142D01*
X152090380Y-101838095D01*
X151185619Y-101457142D02*
X151138000Y-101409523D01*
X151090380Y-101314285D01*
X151090380Y-101076190D01*
X151138000Y-100980952D01*
X151185619Y-100933333D01*
X151280857Y-100885714D01*
X151376095Y-100885714D01*
X151518952Y-100933333D01*
X152090380Y-101504761D01*
X152090380Y-100885714D01*
X151090380Y-100600000D02*
X152090380Y-100266666D01*
X151090380Y-99933333D01*
X152090380Y-99076190D02*
X152090380Y-99647619D01*
X152090380Y-99361904D02*
X151090380Y-99361904D01*
X151233238Y-99457142D01*
X151328476Y-99552380D01*
X151376095Y-99647619D01*
X151090380Y-98457142D02*
X151090380Y-98361904D01*
X151138000Y-98266666D01*
X151185619Y-98219047D01*
X151280857Y-98171428D01*
X151471333Y-98123809D01*
X151709428Y-98123809D01*
X151899904Y-98171428D01*
X151995142Y-98219047D01*
X152042761Y-98266666D01*
X152090380Y-98361904D01*
X152090380Y-98457142D01*
X152042761Y-98552380D01*
X151995142Y-98600000D01*
X151899904Y-98647619D01*
X151709428Y-98695238D01*
X151471333Y-98695238D01*
X151280857Y-98647619D01*
X151185619Y-98600000D01*
X151138000Y-98552380D01*
X151090380Y-98457142D01*
X198405714Y-105862380D02*
X197834285Y-105862380D01*
X198120000Y-105862380D02*
X198120000Y-104862380D01*
X198024761Y-105005238D01*
X197929523Y-105100476D01*
X197834285Y-105148095D01*
X191304285Y-84796380D02*
X191970952Y-84796380D01*
X191542380Y-85796380D01*
X192780476Y-85129714D02*
X192780476Y-85796380D01*
X192542380Y-84748761D02*
X192304285Y-85463047D01*
X192923333Y-85463047D01*
X193304285Y-85796380D02*
X193304285Y-84796380D01*
X193304285Y-85272571D02*
X193875714Y-85272571D01*
X193875714Y-85796380D02*
X193875714Y-84796380D01*
X194923333Y-85701142D02*
X194875714Y-85748761D01*
X194732857Y-85796380D01*
X194637619Y-85796380D01*
X194494761Y-85748761D01*
X194399523Y-85653523D01*
X194351904Y-85558285D01*
X194304285Y-85367809D01*
X194304285Y-85224952D01*
X194351904Y-85034476D01*
X194399523Y-84939238D01*
X194494761Y-84844000D01*
X194637619Y-84796380D01*
X194732857Y-84796380D01*
X194875714Y-84844000D01*
X194923333Y-84891619D01*
X195542380Y-84796380D02*
X195637619Y-84796380D01*
X195732857Y-84844000D01*
X195780476Y-84891619D01*
X195828095Y-84986857D01*
X195875714Y-85177333D01*
X195875714Y-85415428D01*
X195828095Y-85605904D01*
X195780476Y-85701142D01*
X195732857Y-85748761D01*
X195637619Y-85796380D01*
X195542380Y-85796380D01*
X195447142Y-85748761D01*
X195399523Y-85701142D01*
X195351904Y-85605904D01*
X195304285Y-85415428D01*
X195304285Y-85177333D01*
X195351904Y-84986857D01*
X195399523Y-84891619D01*
X195447142Y-84844000D01*
X195542380Y-84796380D01*
X196494761Y-84796380D02*
X196590000Y-84796380D01*
X196685238Y-84844000D01*
X196732857Y-84891619D01*
X196780476Y-84986857D01*
X196828095Y-85177333D01*
X196828095Y-85415428D01*
X196780476Y-85605904D01*
X196732857Y-85701142D01*
X196685238Y-85748761D01*
X196590000Y-85796380D01*
X196494761Y-85796380D01*
X196399523Y-85748761D01*
X196351904Y-85701142D01*
X196304285Y-85605904D01*
X196256666Y-85415428D01*
X196256666Y-85177333D01*
X196304285Y-84986857D01*
X196351904Y-84891619D01*
X196399523Y-84844000D01*
X196494761Y-84796380D01*
X106847142Y-89622380D02*
X107513809Y-89622380D01*
X107085238Y-90622380D01*
X108323333Y-89955714D02*
X108323333Y-90622380D01*
X108085238Y-89574761D02*
X107847142Y-90289047D01*
X108466190Y-90289047D01*
X108847142Y-90622380D02*
X108847142Y-89622380D01*
X108847142Y-90098571D02*
X109418571Y-90098571D01*
X109418571Y-90622380D02*
X109418571Y-89622380D01*
X110466190Y-90527142D02*
X110418571Y-90574761D01*
X110275714Y-90622380D01*
X110180476Y-90622380D01*
X110037619Y-90574761D01*
X109942380Y-90479523D01*
X109894761Y-90384285D01*
X109847142Y-90193809D01*
X109847142Y-90050952D01*
X109894761Y-89860476D01*
X109942380Y-89765238D01*
X110037619Y-89670000D01*
X110180476Y-89622380D01*
X110275714Y-89622380D01*
X110418571Y-89670000D01*
X110466190Y-89717619D01*
X110751904Y-89622380D02*
X111323333Y-89622380D01*
X111037619Y-90622380D02*
X111037619Y-89622380D01*
X111609047Y-89717619D02*
X111656666Y-89670000D01*
X111751904Y-89622380D01*
X111990000Y-89622380D01*
X112085238Y-89670000D01*
X112132857Y-89717619D01*
X112180476Y-89812857D01*
X112180476Y-89908095D01*
X112132857Y-90050952D01*
X111561428Y-90622380D01*
X112180476Y-90622380D01*
X113037619Y-89955714D02*
X113037619Y-90622380D01*
X112799523Y-89574761D02*
X112561428Y-90289047D01*
X113180476Y-90289047D01*
X114037619Y-89622380D02*
X113561428Y-89622380D01*
X113513809Y-90098571D01*
X113561428Y-90050952D01*
X113656666Y-90003333D01*
X113894761Y-90003333D01*
X113990000Y-90050952D01*
X114037619Y-90098571D01*
X114085238Y-90193809D01*
X114085238Y-90431904D01*
X114037619Y-90527142D01*
X113990000Y-90574761D01*
X113894761Y-90622380D01*
X113656666Y-90622380D01*
X113561428Y-90574761D01*
X113513809Y-90527142D01*
X126015714Y-70048380D02*
X125444285Y-70048380D01*
X125730000Y-70048380D02*
X125730000Y-69048380D01*
X125634761Y-69191238D01*
X125539523Y-69286476D01*
X125444285Y-69334095D01*
X187960000Y-49744380D02*
X187960000Y-49982476D01*
X187721904Y-49887238D02*
X187960000Y-49982476D01*
X188198095Y-49887238D01*
X187817142Y-50172952D02*
X187960000Y-49982476D01*
X188102857Y-50172952D01*
X148113714Y-54046380D02*
X147542285Y-54046380D01*
X147828000Y-54046380D02*
X147828000Y-53046380D01*
X147732761Y-53189238D01*
X147637523Y-53284476D01*
X147542285Y-53332095D01*
X187650380Y-66770285D02*
X187650380Y-67341714D01*
X187650380Y-67056000D02*
X186650380Y-67056000D01*
X186793238Y-67151238D01*
X186888476Y-67246476D01*
X186936095Y-67341714D01*
%TO.C,J2*%
X191881166Y-46950380D02*
X191881166Y-47664666D01*
X191833547Y-47807523D01*
X191738309Y-47902761D01*
X191595452Y-47950380D01*
X191500214Y-47950380D01*
X192309738Y-47045619D02*
X192357357Y-46998000D01*
X192452595Y-46950380D01*
X192690690Y-46950380D01*
X192785928Y-46998000D01*
X192833547Y-47045619D01*
X192881166Y-47140857D01*
X192881166Y-47236095D01*
X192833547Y-47378952D01*
X192262119Y-47950380D01*
X192881166Y-47950380D01*
X188190690Y-63380880D02*
X187857357Y-62904690D01*
X187619261Y-63380880D02*
X187619261Y-62380880D01*
X188000214Y-62380880D01*
X188095452Y-62428500D01*
X188143071Y-62476119D01*
X188190690Y-62571357D01*
X188190690Y-62714214D01*
X188143071Y-62809452D01*
X188095452Y-62857071D01*
X188000214Y-62904690D01*
X187619261Y-62904690D01*
X188571642Y-63333261D02*
X188714500Y-63380880D01*
X188952595Y-63380880D01*
X189047833Y-63333261D01*
X189095452Y-63285642D01*
X189143071Y-63190404D01*
X189143071Y-63095166D01*
X189095452Y-62999928D01*
X189047833Y-62952309D01*
X188952595Y-62904690D01*
X188762119Y-62857071D01*
X188666880Y-62809452D01*
X188619261Y-62761833D01*
X188571642Y-62666595D01*
X188571642Y-62571357D01*
X188619261Y-62476119D01*
X188666880Y-62428500D01*
X188762119Y-62380880D01*
X189000214Y-62380880D01*
X189143071Y-62428500D01*
X189571642Y-62999928D02*
X190333547Y-62999928D01*
X190762119Y-62476119D02*
X190809738Y-62428500D01*
X190904976Y-62380880D01*
X191143071Y-62380880D01*
X191238309Y-62428500D01*
X191285928Y-62476119D01*
X191333547Y-62571357D01*
X191333547Y-62666595D01*
X191285928Y-62809452D01*
X190714500Y-63380880D01*
X191333547Y-63380880D01*
X191666880Y-62380880D02*
X192285928Y-62380880D01*
X191952595Y-62761833D01*
X192095452Y-62761833D01*
X192190690Y-62809452D01*
X192238309Y-62857071D01*
X192285928Y-62952309D01*
X192285928Y-63190404D01*
X192238309Y-63285642D01*
X192190690Y-63333261D01*
X192095452Y-63380880D01*
X191809738Y-63380880D01*
X191714500Y-63333261D01*
X191666880Y-63285642D01*
X192666880Y-62476119D02*
X192714500Y-62428500D01*
X192809738Y-62380880D01*
X193047833Y-62380880D01*
X193143071Y-62428500D01*
X193190690Y-62476119D01*
X193238309Y-62571357D01*
X193238309Y-62666595D01*
X193190690Y-62809452D01*
X192619261Y-63380880D01*
X193238309Y-63380880D01*
X194619261Y-62380880D02*
X194809738Y-62380880D01*
X194904976Y-62428500D01*
X195000214Y-62523738D01*
X195047833Y-62714214D01*
X195047833Y-63047547D01*
X195000214Y-63238023D01*
X194904976Y-63333261D01*
X194809738Y-63380880D01*
X194619261Y-63380880D01*
X194524023Y-63333261D01*
X194428785Y-63238023D01*
X194381166Y-63047547D01*
X194381166Y-62714214D01*
X194428785Y-62523738D01*
X194524023Y-62428500D01*
X194619261Y-62380880D01*
X195476404Y-62380880D02*
X195476404Y-63190404D01*
X195524023Y-63285642D01*
X195571642Y-63333261D01*
X195666880Y-63380880D01*
X195857357Y-63380880D01*
X195952595Y-63333261D01*
X196000214Y-63285642D01*
X196047833Y-63190404D01*
X196047833Y-62380880D01*
X196381166Y-62380880D02*
X196952595Y-62380880D01*
X196666880Y-63380880D02*
X196666880Y-62380880D01*
%TO.C,U1*%
X109220095Y-117689380D02*
X109220095Y-118498904D01*
X109267714Y-118594142D01*
X109315333Y-118641761D01*
X109410571Y-118689380D01*
X109601047Y-118689380D01*
X109696285Y-118641761D01*
X109743904Y-118594142D01*
X109791523Y-118498904D01*
X109791523Y-117689380D01*
X110791523Y-118689380D02*
X110220095Y-118689380D01*
X110505809Y-118689380D02*
X110505809Y-117689380D01*
X110410571Y-117832238D01*
X110315333Y-117927476D01*
X110220095Y-117975095D01*
%TO.C,U2*%
X134620095Y-105243380D02*
X134620095Y-106052904D01*
X134667714Y-106148142D01*
X134715333Y-106195761D01*
X134810571Y-106243380D01*
X135001047Y-106243380D01*
X135096285Y-106195761D01*
X135143904Y-106148142D01*
X135191523Y-106052904D01*
X135191523Y-105243380D01*
X135620095Y-105338619D02*
X135667714Y-105291000D01*
X135762952Y-105243380D01*
X136001047Y-105243380D01*
X136096285Y-105291000D01*
X136143904Y-105338619D01*
X136191523Y-105433857D01*
X136191523Y-105529095D01*
X136143904Y-105671952D01*
X135572476Y-106243380D01*
X136191523Y-106243380D01*
%TO.C,U7*%
X175855380Y-54482904D02*
X176664904Y-54482904D01*
X176760142Y-54435285D01*
X176807761Y-54387666D01*
X176855380Y-54292428D01*
X176855380Y-54101952D01*
X176807761Y-54006714D01*
X176760142Y-53959095D01*
X176664904Y-53911476D01*
X175855380Y-53911476D01*
X175855380Y-53530523D02*
X175855380Y-52863857D01*
X176855380Y-53292428D01*
%TO.C,C2*%
X147360642Y-72086666D02*
X147408261Y-72134285D01*
X147455880Y-72277142D01*
X147455880Y-72372380D01*
X147408261Y-72515238D01*
X147313023Y-72610476D01*
X147217785Y-72658095D01*
X147027309Y-72705714D01*
X146884452Y-72705714D01*
X146693976Y-72658095D01*
X146598738Y-72610476D01*
X146503500Y-72515238D01*
X146455880Y-72372380D01*
X146455880Y-72277142D01*
X146503500Y-72134285D01*
X146551119Y-72086666D01*
X146551119Y-71705714D02*
X146503500Y-71658095D01*
X146455880Y-71562857D01*
X146455880Y-71324761D01*
X146503500Y-71229523D01*
X146551119Y-71181904D01*
X146646357Y-71134285D01*
X146741595Y-71134285D01*
X146884452Y-71181904D01*
X147455880Y-71753333D01*
X147455880Y-71134285D01*
%TO.C,C3*%
X151003642Y-82333166D02*
X151051261Y-82380785D01*
X151098880Y-82523642D01*
X151098880Y-82618880D01*
X151051261Y-82761738D01*
X150956023Y-82856976D01*
X150860785Y-82904595D01*
X150670309Y-82952214D01*
X150527452Y-82952214D01*
X150336976Y-82904595D01*
X150241738Y-82856976D01*
X150146500Y-82761738D01*
X150098880Y-82618880D01*
X150098880Y-82523642D01*
X150146500Y-82380785D01*
X150194119Y-82333166D01*
X150098880Y-81999833D02*
X150098880Y-81380785D01*
X150479833Y-81714119D01*
X150479833Y-81571261D01*
X150527452Y-81476023D01*
X150575071Y-81428404D01*
X150670309Y-81380785D01*
X150908404Y-81380785D01*
X151003642Y-81428404D01*
X151051261Y-81476023D01*
X151098880Y-81571261D01*
X151098880Y-81856976D01*
X151051261Y-81952214D01*
X151003642Y-81999833D01*
%TO.C,C4*%
X157604133Y-94177142D02*
X157556514Y-94224761D01*
X157413657Y-94272380D01*
X157318419Y-94272380D01*
X157175561Y-94224761D01*
X157080323Y-94129523D01*
X157032704Y-94034285D01*
X156985085Y-93843809D01*
X156985085Y-93700952D01*
X157032704Y-93510476D01*
X157080323Y-93415238D01*
X157175561Y-93320000D01*
X157318419Y-93272380D01*
X157413657Y-93272380D01*
X157556514Y-93320000D01*
X157604133Y-93367619D01*
X158461276Y-93605714D02*
X158461276Y-94272380D01*
X158223180Y-93224761D02*
X157985085Y-93939047D01*
X158604133Y-93939047D01*
%TO.C,C5*%
X187131733Y-96375542D02*
X187084114Y-96423161D01*
X186941257Y-96470780D01*
X186846019Y-96470780D01*
X186703161Y-96423161D01*
X186607923Y-96327923D01*
X186560304Y-96232685D01*
X186512685Y-96042209D01*
X186512685Y-95899352D01*
X186560304Y-95708876D01*
X186607923Y-95613638D01*
X186703161Y-95518400D01*
X186846019Y-95470780D01*
X186941257Y-95470780D01*
X187084114Y-95518400D01*
X187131733Y-95566019D01*
X188036495Y-95470780D02*
X187560304Y-95470780D01*
X187512685Y-95946971D01*
X187560304Y-95899352D01*
X187655542Y-95851733D01*
X187893638Y-95851733D01*
X187988876Y-95899352D01*
X188036495Y-95946971D01*
X188084114Y-96042209D01*
X188084114Y-96280304D01*
X188036495Y-96375542D01*
X187988876Y-96423161D01*
X187893638Y-96470780D01*
X187655542Y-96470780D01*
X187560304Y-96423161D01*
X187512685Y-96375542D01*
%TO.C,C7*%
X177268142Y-59348666D02*
X177315761Y-59396285D01*
X177363380Y-59539142D01*
X177363380Y-59634380D01*
X177315761Y-59777238D01*
X177220523Y-59872476D01*
X177125285Y-59920095D01*
X176934809Y-59967714D01*
X176791952Y-59967714D01*
X176601476Y-59920095D01*
X176506238Y-59872476D01*
X176411000Y-59777238D01*
X176363380Y-59634380D01*
X176363380Y-59539142D01*
X176411000Y-59396285D01*
X176458619Y-59348666D01*
X176363380Y-59015333D02*
X176363380Y-58348666D01*
X177363380Y-58777238D01*
%TO.C,C12*%
X160647142Y-44743642D02*
X160599523Y-44791261D01*
X160456666Y-44838880D01*
X160361428Y-44838880D01*
X160218571Y-44791261D01*
X160123333Y-44696023D01*
X160075714Y-44600785D01*
X160028095Y-44410309D01*
X160028095Y-44267452D01*
X160075714Y-44076976D01*
X160123333Y-43981738D01*
X160218571Y-43886500D01*
X160361428Y-43838880D01*
X160456666Y-43838880D01*
X160599523Y-43886500D01*
X160647142Y-43934119D01*
X161599523Y-44838880D02*
X161028095Y-44838880D01*
X161313809Y-44838880D02*
X161313809Y-43838880D01*
X161218571Y-43981738D01*
X161123333Y-44076976D01*
X161028095Y-44124595D01*
X161980476Y-43934119D02*
X162028095Y-43886500D01*
X162123333Y-43838880D01*
X162361428Y-43838880D01*
X162456666Y-43886500D01*
X162504285Y-43934119D01*
X162551904Y-44029357D01*
X162551904Y-44124595D01*
X162504285Y-44267452D01*
X161932857Y-44838880D01*
X162551904Y-44838880D01*
%TO.C,C13*%
X126567642Y-44743642D02*
X126520023Y-44791261D01*
X126377166Y-44838880D01*
X126281928Y-44838880D01*
X126139071Y-44791261D01*
X126043833Y-44696023D01*
X125996214Y-44600785D01*
X125948595Y-44410309D01*
X125948595Y-44267452D01*
X125996214Y-44076976D01*
X126043833Y-43981738D01*
X126139071Y-43886500D01*
X126281928Y-43838880D01*
X126377166Y-43838880D01*
X126520023Y-43886500D01*
X126567642Y-43934119D01*
X127520023Y-44838880D02*
X126948595Y-44838880D01*
X127234309Y-44838880D02*
X127234309Y-43838880D01*
X127139071Y-43981738D01*
X127043833Y-44076976D01*
X126948595Y-44124595D01*
X127853357Y-43838880D02*
X128472404Y-43838880D01*
X128139071Y-44219833D01*
X128281928Y-44219833D01*
X128377166Y-44267452D01*
X128424785Y-44315071D01*
X128472404Y-44410309D01*
X128472404Y-44648404D01*
X128424785Y-44743642D01*
X128377166Y-44791261D01*
X128281928Y-44838880D01*
X127996214Y-44838880D01*
X127900976Y-44791261D01*
X127853357Y-44743642D01*
%TO.C,C16*%
X173283642Y-44743642D02*
X173236023Y-44791261D01*
X173093166Y-44838880D01*
X172997928Y-44838880D01*
X172855071Y-44791261D01*
X172759833Y-44696023D01*
X172712214Y-44600785D01*
X172664595Y-44410309D01*
X172664595Y-44267452D01*
X172712214Y-44076976D01*
X172759833Y-43981738D01*
X172855071Y-43886500D01*
X172997928Y-43838880D01*
X173093166Y-43838880D01*
X173236023Y-43886500D01*
X173283642Y-43934119D01*
X174236023Y-44838880D02*
X173664595Y-44838880D01*
X173950309Y-44838880D02*
X173950309Y-43838880D01*
X173855071Y-43981738D01*
X173759833Y-44076976D01*
X173664595Y-44124595D01*
X175093166Y-43838880D02*
X174902690Y-43838880D01*
X174807452Y-43886500D01*
X174759833Y-43934119D01*
X174664595Y-44076976D01*
X174616976Y-44267452D01*
X174616976Y-44648404D01*
X174664595Y-44743642D01*
X174712214Y-44791261D01*
X174807452Y-44838880D01*
X174997928Y-44838880D01*
X175093166Y-44791261D01*
X175140785Y-44743642D01*
X175188404Y-44648404D01*
X175188404Y-44410309D01*
X175140785Y-44315071D01*
X175093166Y-44267452D01*
X174997928Y-44219833D01*
X174807452Y-44219833D01*
X174712214Y-44267452D01*
X174664595Y-44315071D01*
X174616976Y-44410309D01*
%TO.C,C14*%
X154170142Y-44743642D02*
X154122523Y-44791261D01*
X153979666Y-44838880D01*
X153884428Y-44838880D01*
X153741571Y-44791261D01*
X153646333Y-44696023D01*
X153598714Y-44600785D01*
X153551095Y-44410309D01*
X153551095Y-44267452D01*
X153598714Y-44076976D01*
X153646333Y-43981738D01*
X153741571Y-43886500D01*
X153884428Y-43838880D01*
X153979666Y-43838880D01*
X154122523Y-43886500D01*
X154170142Y-43934119D01*
X155122523Y-44838880D02*
X154551095Y-44838880D01*
X154836809Y-44838880D02*
X154836809Y-43838880D01*
X154741571Y-43981738D01*
X154646333Y-44076976D01*
X154551095Y-44124595D01*
X155979666Y-44172214D02*
X155979666Y-44838880D01*
X155741571Y-43791261D02*
X155503476Y-44505547D01*
X156122523Y-44505547D01*
%TO.C,U5*%
X150591380Y-77684904D02*
X151400904Y-77684904D01*
X151496142Y-77637285D01*
X151543761Y-77589666D01*
X151591380Y-77494428D01*
X151591380Y-77303952D01*
X151543761Y-77208714D01*
X151496142Y-77161095D01*
X151400904Y-77113476D01*
X150591380Y-77113476D01*
X150591380Y-76161095D02*
X150591380Y-76637285D01*
X151067571Y-76684904D01*
X151019952Y-76637285D01*
X150972333Y-76542047D01*
X150972333Y-76303952D01*
X151019952Y-76208714D01*
X151067571Y-76161095D01*
X151162809Y-76113476D01*
X151400904Y-76113476D01*
X151496142Y-76161095D01*
X151543761Y-76208714D01*
X151591380Y-76303952D01*
X151591380Y-76542047D01*
X151543761Y-76637285D01*
X151496142Y-76684904D01*
%TO.C,C1*%
X110329833Y-87527142D02*
X110282214Y-87574761D01*
X110139357Y-87622380D01*
X110044119Y-87622380D01*
X109901261Y-87574761D01*
X109806023Y-87479523D01*
X109758404Y-87384285D01*
X109710785Y-87193809D01*
X109710785Y-87050952D01*
X109758404Y-86860476D01*
X109806023Y-86765238D01*
X109901261Y-86670000D01*
X110044119Y-86622380D01*
X110139357Y-86622380D01*
X110282214Y-86670000D01*
X110329833Y-86717619D01*
X111282214Y-87622380D02*
X110710785Y-87622380D01*
X110996500Y-87622380D02*
X110996500Y-86622380D01*
X110901261Y-86765238D01*
X110806023Y-86860476D01*
X110710785Y-86908095D01*
%TO.C,C9*%
X139533333Y-44743642D02*
X139485714Y-44791261D01*
X139342857Y-44838880D01*
X139247619Y-44838880D01*
X139104761Y-44791261D01*
X139009523Y-44696023D01*
X138961904Y-44600785D01*
X138914285Y-44410309D01*
X138914285Y-44267452D01*
X138961904Y-44076976D01*
X139009523Y-43981738D01*
X139104761Y-43886500D01*
X139247619Y-43838880D01*
X139342857Y-43838880D01*
X139485714Y-43886500D01*
X139533333Y-43934119D01*
X140009523Y-44838880D02*
X140200000Y-44838880D01*
X140295238Y-44791261D01*
X140342857Y-44743642D01*
X140438095Y-44600785D01*
X140485714Y-44410309D01*
X140485714Y-44029357D01*
X140438095Y-43934119D01*
X140390476Y-43886500D01*
X140295238Y-43838880D01*
X140104761Y-43838880D01*
X140009523Y-43886500D01*
X139961904Y-43934119D01*
X139914285Y-44029357D01*
X139914285Y-44267452D01*
X139961904Y-44362690D01*
X140009523Y-44410309D01*
X140104761Y-44457928D01*
X140295238Y-44457928D01*
X140390476Y-44410309D01*
X140438095Y-44362690D01*
X140485714Y-44267452D01*
%TO.C,U6*%
X148804380Y-54228904D02*
X149613904Y-54228904D01*
X149709142Y-54181285D01*
X149756761Y-54133666D01*
X149804380Y-54038428D01*
X149804380Y-53847952D01*
X149756761Y-53752714D01*
X149709142Y-53705095D01*
X149613904Y-53657476D01*
X148804380Y-53657476D01*
X148804380Y-52752714D02*
X148804380Y-52943190D01*
X148852000Y-53038428D01*
X148899619Y-53086047D01*
X149042476Y-53181285D01*
X149232952Y-53228904D01*
X149613904Y-53228904D01*
X149709142Y-53181285D01*
X149756761Y-53133666D01*
X149804380Y-53038428D01*
X149804380Y-52847952D01*
X149756761Y-52752714D01*
X149709142Y-52705095D01*
X149613904Y-52657476D01*
X149375809Y-52657476D01*
X149280571Y-52705095D01*
X149232952Y-52752714D01*
X149185333Y-52847952D01*
X149185333Y-53038428D01*
X149232952Y-53133666D01*
X149280571Y-53181285D01*
X149375809Y-53228904D01*
%TO.C,C6*%
X149772642Y-59348666D02*
X149820261Y-59396285D01*
X149867880Y-59539142D01*
X149867880Y-59634380D01*
X149820261Y-59777238D01*
X149725023Y-59872476D01*
X149629785Y-59920095D01*
X149439309Y-59967714D01*
X149296452Y-59967714D01*
X149105976Y-59920095D01*
X149010738Y-59872476D01*
X148915500Y-59777238D01*
X148867880Y-59634380D01*
X148867880Y-59539142D01*
X148915500Y-59396285D01*
X148963119Y-59348666D01*
X148867880Y-58491523D02*
X148867880Y-58682000D01*
X148915500Y-58777238D01*
X148963119Y-58824857D01*
X149105976Y-58920095D01*
X149296452Y-58967714D01*
X149677404Y-58967714D01*
X149772642Y-58920095D01*
X149820261Y-58872476D01*
X149867880Y-58777238D01*
X149867880Y-58586761D01*
X149820261Y-58491523D01*
X149772642Y-58443904D01*
X149677404Y-58396285D01*
X149439309Y-58396285D01*
X149344071Y-58443904D01*
X149296452Y-58491523D01*
X149248833Y-58586761D01*
X149248833Y-58777238D01*
X149296452Y-58872476D01*
X149344071Y-58920095D01*
X149439309Y-58967714D01*
%TO.C,C15*%
X145788142Y-44743642D02*
X145740523Y-44791261D01*
X145597666Y-44838880D01*
X145502428Y-44838880D01*
X145359571Y-44791261D01*
X145264333Y-44696023D01*
X145216714Y-44600785D01*
X145169095Y-44410309D01*
X145169095Y-44267452D01*
X145216714Y-44076976D01*
X145264333Y-43981738D01*
X145359571Y-43886500D01*
X145502428Y-43838880D01*
X145597666Y-43838880D01*
X145740523Y-43886500D01*
X145788142Y-43934119D01*
X146740523Y-44838880D02*
X146169095Y-44838880D01*
X146454809Y-44838880D02*
X146454809Y-43838880D01*
X146359571Y-43981738D01*
X146264333Y-44076976D01*
X146169095Y-44124595D01*
X147645285Y-43838880D02*
X147169095Y-43838880D01*
X147121476Y-44315071D01*
X147169095Y-44267452D01*
X147264333Y-44219833D01*
X147502428Y-44219833D01*
X147597666Y-44267452D01*
X147645285Y-44315071D01*
X147692904Y-44410309D01*
X147692904Y-44648404D01*
X147645285Y-44743642D01*
X147597666Y-44791261D01*
X147502428Y-44838880D01*
X147264333Y-44838880D01*
X147169095Y-44791261D01*
X147121476Y-44743642D01*
%TO.C,C11*%
X132961142Y-44743642D02*
X132913523Y-44791261D01*
X132770666Y-44838880D01*
X132675428Y-44838880D01*
X132532571Y-44791261D01*
X132437333Y-44696023D01*
X132389714Y-44600785D01*
X132342095Y-44410309D01*
X132342095Y-44267452D01*
X132389714Y-44076976D01*
X132437333Y-43981738D01*
X132532571Y-43886500D01*
X132675428Y-43838880D01*
X132770666Y-43838880D01*
X132913523Y-43886500D01*
X132961142Y-43934119D01*
X133913523Y-44838880D02*
X133342095Y-44838880D01*
X133627809Y-44838880D02*
X133627809Y-43838880D01*
X133532571Y-43981738D01*
X133437333Y-44076976D01*
X133342095Y-44124595D01*
X134865904Y-44838880D02*
X134294476Y-44838880D01*
X134580190Y-44838880D02*
X134580190Y-43838880D01*
X134484952Y-43981738D01*
X134389714Y-44076976D01*
X134294476Y-44124595D01*
%TO.C,C10*%
X166973642Y-44743642D02*
X166926023Y-44791261D01*
X166783166Y-44838880D01*
X166687928Y-44838880D01*
X166545071Y-44791261D01*
X166449833Y-44696023D01*
X166402214Y-44600785D01*
X166354595Y-44410309D01*
X166354595Y-44267452D01*
X166402214Y-44076976D01*
X166449833Y-43981738D01*
X166545071Y-43886500D01*
X166687928Y-43838880D01*
X166783166Y-43838880D01*
X166926023Y-43886500D01*
X166973642Y-43934119D01*
X167926023Y-44838880D02*
X167354595Y-44838880D01*
X167640309Y-44838880D02*
X167640309Y-43838880D01*
X167545071Y-43981738D01*
X167449833Y-44076976D01*
X167354595Y-44124595D01*
X168545071Y-43838880D02*
X168640309Y-43838880D01*
X168735547Y-43886500D01*
X168783166Y-43934119D01*
X168830785Y-44029357D01*
X168878404Y-44219833D01*
X168878404Y-44457928D01*
X168830785Y-44648404D01*
X168783166Y-44743642D01*
X168735547Y-44791261D01*
X168640309Y-44838880D01*
X168545071Y-44838880D01*
X168449833Y-44791261D01*
X168402214Y-44743642D01*
X168354595Y-44648404D01*
X168306976Y-44457928D01*
X168306976Y-44219833D01*
X168354595Y-44029357D01*
X168402214Y-43934119D01*
X168449833Y-43886500D01*
X168545071Y-43838880D01*
%TO.C,U4*%
X184414880Y-101518904D02*
X185224404Y-101518904D01*
X185319642Y-101471285D01*
X185367261Y-101423666D01*
X185414880Y-101328428D01*
X185414880Y-101137952D01*
X185367261Y-101042714D01*
X185319642Y-100995095D01*
X185224404Y-100947476D01*
X184414880Y-100947476D01*
X184748214Y-100042714D02*
X185414880Y-100042714D01*
X184367261Y-100280809D02*
X185081547Y-100518904D01*
X185081547Y-99899857D01*
%TO.C,J1*%
X195692780Y-81105333D02*
X196407066Y-81105333D01*
X196549923Y-81152952D01*
X196645161Y-81248190D01*
X196692780Y-81391047D01*
X196692780Y-81486285D01*
X196692780Y-80105333D02*
X196692780Y-80676761D01*
X196692780Y-80391047D02*
X195692780Y-80391047D01*
X195835638Y-80486285D01*
X195930876Y-80581523D01*
X195978495Y-80676761D01*
X194000380Y-76810666D02*
X193000380Y-76810666D01*
X194000380Y-75763047D02*
X193524190Y-76096380D01*
X194000380Y-76334476D02*
X193000380Y-76334476D01*
X193000380Y-75953523D01*
X193048000Y-75858285D01*
X193095619Y-75810666D01*
X193190857Y-75763047D01*
X193333714Y-75763047D01*
X193428952Y-75810666D01*
X193476571Y-75858285D01*
X193524190Y-75953523D01*
X193524190Y-76334476D01*
X194095619Y-74667809D02*
X194048000Y-74763047D01*
X193952761Y-74858285D01*
X193809904Y-75001142D01*
X193762285Y-75096380D01*
X193762285Y-75191619D01*
X194000380Y-75144000D02*
X193952761Y-75239238D01*
X193857523Y-75334476D01*
X193667047Y-75382095D01*
X193333714Y-75382095D01*
X193143238Y-75334476D01*
X193048000Y-75239238D01*
X193000380Y-75144000D01*
X193000380Y-74953523D01*
X193048000Y-74858285D01*
X193143238Y-74763047D01*
X193333714Y-74715428D01*
X193667047Y-74715428D01*
X193857523Y-74763047D01*
X193952761Y-74858285D01*
X194000380Y-74953523D01*
X194000380Y-75144000D01*
X193476571Y-73524952D02*
X193476571Y-73191619D01*
X194000380Y-73048761D02*
X194000380Y-73524952D01*
X193000380Y-73524952D01*
X193000380Y-73048761D01*
X194000380Y-72620190D02*
X193000380Y-72620190D01*
X194000380Y-72048761D01*
X193000380Y-72048761D01*
X193714666Y-71620190D02*
X193714666Y-71144000D01*
X194000380Y-71715428D02*
X193000380Y-71382095D01*
X194000380Y-71048761D01*
X193476571Y-70382095D02*
X193524190Y-70239238D01*
X193571809Y-70191619D01*
X193667047Y-70144000D01*
X193809904Y-70144000D01*
X193905142Y-70191619D01*
X193952761Y-70239238D01*
X194000380Y-70334476D01*
X194000380Y-70715428D01*
X193000380Y-70715428D01*
X193000380Y-70382095D01*
X193048000Y-70286857D01*
X193095619Y-70239238D01*
X193190857Y-70191619D01*
X193286095Y-70191619D01*
X193381333Y-70239238D01*
X193428952Y-70286857D01*
X193476571Y-70382095D01*
X193476571Y-70715428D01*
X194000380Y-69239238D02*
X194000380Y-69715428D01*
X193000380Y-69715428D01*
X193476571Y-68905904D02*
X193476571Y-68572571D01*
X194000380Y-68429714D02*
X194000380Y-68905904D01*
X193000380Y-68905904D01*
X193000380Y-68429714D01*
%TO.C,U3*%
X193328095Y-104782380D02*
X193328095Y-105591904D01*
X193375714Y-105687142D01*
X193423333Y-105734761D01*
X193518571Y-105782380D01*
X193709047Y-105782380D01*
X193804285Y-105734761D01*
X193851904Y-105687142D01*
X193899523Y-105591904D01*
X193899523Y-104782380D01*
X194280476Y-104782380D02*
X194899523Y-104782380D01*
X194566190Y-105163333D01*
X194709047Y-105163333D01*
X194804285Y-105210952D01*
X194851904Y-105258571D01*
X194899523Y-105353809D01*
X194899523Y-105591904D01*
X194851904Y-105687142D01*
X194804285Y-105734761D01*
X194709047Y-105782380D01*
X194423333Y-105782380D01*
X194328095Y-105734761D01*
X194280476Y-105687142D01*
%TO.C,C17*%
X187555142Y-105802857D02*
X187602761Y-105850476D01*
X187650380Y-105993333D01*
X187650380Y-106088571D01*
X187602761Y-106231428D01*
X187507523Y-106326666D01*
X187412285Y-106374285D01*
X187221809Y-106421904D01*
X187078952Y-106421904D01*
X186888476Y-106374285D01*
X186793238Y-106326666D01*
X186698000Y-106231428D01*
X186650380Y-106088571D01*
X186650380Y-105993333D01*
X186698000Y-105850476D01*
X186745619Y-105802857D01*
X187650380Y-104850476D02*
X187650380Y-105421904D01*
X187650380Y-105136190D02*
X186650380Y-105136190D01*
X186793238Y-105231428D01*
X186888476Y-105326666D01*
X186936095Y-105421904D01*
X186650380Y-104517142D02*
X186650380Y-103850476D01*
X187650380Y-104279047D01*
%TO.C,Y1*%
X193633809Y-111926190D02*
X193633809Y-112402380D01*
X193300476Y-111402380D02*
X193633809Y-111926190D01*
X193967142Y-111402380D01*
X194824285Y-112402380D02*
X194252857Y-112402380D01*
X194538571Y-112402380D02*
X194538571Y-111402380D01*
X194443333Y-111545238D01*
X194348095Y-111640476D01*
X194252857Y-111688095D01*
%TO.C,R1*%
X193823333Y-107982380D02*
X193490000Y-107506190D01*
X193251904Y-107982380D02*
X193251904Y-106982380D01*
X193632857Y-106982380D01*
X193728095Y-107030000D01*
X193775714Y-107077619D01*
X193823333Y-107172857D01*
X193823333Y-107315714D01*
X193775714Y-107410952D01*
X193728095Y-107458571D01*
X193632857Y-107506190D01*
X193251904Y-107506190D01*
X194775714Y-107982380D02*
X194204285Y-107982380D01*
X194490000Y-107982380D02*
X194490000Y-106982380D01*
X194394761Y-107125238D01*
X194299523Y-107220476D01*
X194204285Y-107268095D01*
%TO.C,C8*%
X195667333Y-116689142D02*
X195619714Y-116736761D01*
X195476857Y-116784380D01*
X195381619Y-116784380D01*
X195238761Y-116736761D01*
X195143523Y-116641523D01*
X195095904Y-116546285D01*
X195048285Y-116355809D01*
X195048285Y-116212952D01*
X195095904Y-116022476D01*
X195143523Y-115927238D01*
X195238761Y-115832000D01*
X195381619Y-115784380D01*
X195476857Y-115784380D01*
X195619714Y-115832000D01*
X195667333Y-115879619D01*
X196238761Y-116212952D02*
X196143523Y-116165333D01*
X196095904Y-116117714D01*
X196048285Y-116022476D01*
X196048285Y-115974857D01*
X196095904Y-115879619D01*
X196143523Y-115832000D01*
X196238761Y-115784380D01*
X196429238Y-115784380D01*
X196524476Y-115832000D01*
X196572095Y-115879619D01*
X196619714Y-115974857D01*
X196619714Y-116022476D01*
X196572095Y-116117714D01*
X196524476Y-116165333D01*
X196429238Y-116212952D01*
X196238761Y-116212952D01*
X196143523Y-116260571D01*
X196095904Y-116308190D01*
X196048285Y-116403428D01*
X196048285Y-116593904D01*
X196095904Y-116689142D01*
X196143523Y-116736761D01*
X196238761Y-116784380D01*
X196429238Y-116784380D01*
X196524476Y-116736761D01*
X196572095Y-116689142D01*
X196619714Y-116593904D01*
X196619714Y-116403428D01*
X196572095Y-116308190D01*
X196524476Y-116260571D01*
X196429238Y-116212952D01*
D12*
%TO.C,J2*%
X189551000Y-61528000D02*
X194751000Y-61528000D01*
X189551000Y-51308000D02*
X189551000Y-61528000D01*
X189551000Y-50038000D02*
X189551000Y-48708000D01*
X194751000Y-48708000D02*
X194751000Y-61528000D01*
X192151000Y-51308000D02*
X192151000Y-48708000D01*
X189551000Y-48708000D02*
X190881000Y-48708000D01*
X189551000Y-51308000D02*
X192151000Y-51308000D01*
X192151000Y-48708000D02*
X194751000Y-48708000D01*
%TO.C,U1*%
X115503000Y-91320000D02*
X105223000Y-91320000D01*
X109363000Y-91380000D02*
X107713000Y-91380000D01*
X107713000Y-116900000D02*
X113013000Y-116900000D01*
X105223000Y-91320000D02*
X105223000Y-116960000D01*
X113013000Y-91380000D02*
X111363000Y-91380000D01*
X105223000Y-116960000D02*
X115503000Y-116960000D01*
X107713000Y-91380000D02*
X107713000Y-116900000D01*
X113013000Y-116900000D02*
X113013000Y-91380000D01*
X115503000Y-116960000D02*
X115503000Y-91320000D01*
X109363000Y-91380000D02*
G75*
G03*
X111363000Y-91380000I1000000J0D01*
G01*
%TO.C,U2*%
X142096000Y-68520000D02*
X136636000Y-68520000D01*
X129176000Y-68520000D02*
X129176000Y-104200000D01*
X126686000Y-68460000D02*
X126686000Y-104260000D01*
X144586000Y-68460000D02*
X126686000Y-68460000D01*
X134636000Y-68520000D02*
X129176000Y-68520000D01*
X126686000Y-104260000D02*
X144586000Y-104260000D01*
X142096000Y-104200000D02*
X142096000Y-68520000D01*
X144586000Y-104260000D02*
X144586000Y-68460000D01*
X129176000Y-104200000D02*
X142096000Y-104200000D01*
X134636000Y-68520000D02*
G75*
G03*
X136636000Y-68520000I1000000J0D01*
G01*
%TO.C,U7*%
X174558000Y-60244500D02*
X174558000Y-58594500D01*
X174558000Y-56594500D02*
X174558000Y-54944500D01*
X174618000Y-62734500D02*
X174618000Y-52454500D01*
X174618000Y-52454500D02*
X154058000Y-52454500D01*
X154058000Y-52454500D02*
X154058000Y-62734500D01*
X154118000Y-54944500D02*
X154118000Y-60244500D01*
X154118000Y-60244500D02*
X174558000Y-60244500D01*
X174558000Y-54944500D02*
X154118000Y-54944500D01*
X154058000Y-62734500D02*
X174618000Y-62734500D01*
X174558000Y-56594500D02*
G75*
G03*
X174558000Y-58594500I0J-1000000D01*
G01*
%TO.C,C2*%
X145885000Y-69610000D02*
X145870000Y-69610000D01*
X148010000Y-69610000D02*
X148010000Y-74150000D01*
X145870000Y-69610000D02*
X145870000Y-74150000D01*
X148010000Y-69610000D02*
X147995000Y-69610000D01*
X145885000Y-74150000D02*
X145870000Y-74150000D01*
X148010000Y-74150000D02*
X147995000Y-74150000D01*
%TO.C,C3*%
X151780000Y-84540000D02*
X151780000Y-80000000D01*
X149640000Y-80000000D02*
X149655000Y-80000000D01*
X149640000Y-84540000D02*
X149655000Y-84540000D01*
X151765000Y-80000000D02*
X151780000Y-80000000D01*
X149640000Y-84540000D02*
X149640000Y-80000000D01*
X151765000Y-84540000D02*
X151780000Y-84540000D01*
%TO.C,C4*%
X155410000Y-94890000D02*
X159950000Y-94890000D01*
X155410000Y-92750000D02*
X155410000Y-92765000D01*
X155410000Y-94875000D02*
X155410000Y-94890000D01*
X155410000Y-92750000D02*
X159950000Y-92750000D01*
X159950000Y-92750000D02*
X159950000Y-92765000D01*
X159950000Y-94875000D02*
X159950000Y-94890000D01*
%TO.C,C5*%
X186330000Y-98430000D02*
X186345000Y-98430000D01*
X186330000Y-93890000D02*
X186345000Y-93890000D01*
X188455000Y-98430000D02*
X188470000Y-98430000D01*
X186330000Y-98430000D02*
X186330000Y-93890000D01*
X188455000Y-93890000D02*
X188470000Y-93890000D01*
X188470000Y-98430000D02*
X188470000Y-93890000D01*
%TO.C,C7*%
X175968000Y-57206000D02*
X175983000Y-57206000D01*
X178093000Y-57206000D02*
X178108000Y-57206000D01*
X178108000Y-61746000D02*
X178108000Y-57206000D01*
X175968000Y-61746000D02*
X175983000Y-61746000D01*
X175968000Y-61746000D02*
X175968000Y-57206000D01*
X178093000Y-61746000D02*
X178108000Y-61746000D01*
%TO.C,C12*%
X159902000Y-50951500D02*
X159902000Y-49744500D01*
X159822000Y-47664500D02*
X159822000Y-46504500D01*
X163987775Y-50179500D02*
X163487775Y-50179500D01*
X158982000Y-50087500D02*
X158982000Y-49744500D01*
X160022000Y-51014500D02*
X160022000Y-49744500D01*
X158622000Y-49222500D02*
X158622000Y-48186500D01*
X159462000Y-50641500D02*
X159462000Y-49744500D01*
X159262000Y-47664500D02*
X159262000Y-46961500D01*
X160703000Y-51240500D02*
X160703000Y-49744500D01*
X159342000Y-50530500D02*
X159342000Y-49744500D01*
X159782000Y-47664500D02*
X159782000Y-46529500D01*
X159702000Y-47664500D02*
X159702000Y-46582500D01*
X161023000Y-51280500D02*
X161023000Y-46128500D01*
X160663000Y-51232500D02*
X160663000Y-49744500D01*
X160623000Y-51224500D02*
X160623000Y-49744500D01*
X159022000Y-47664500D02*
X159022000Y-47261500D01*
X160983000Y-51277500D02*
X160983000Y-46131500D01*
X161183000Y-51284500D02*
X161183000Y-46124500D01*
X158742000Y-49619500D02*
X158742000Y-47789500D01*
X159582000Y-47664500D02*
X159582000Y-46669500D01*
X160703000Y-47664500D02*
X160703000Y-46168500D01*
X159942000Y-50972500D02*
X159942000Y-49744500D01*
X160943000Y-47664500D02*
X160943000Y-46135500D01*
X159942000Y-47664500D02*
X159942000Y-46436500D01*
X160543000Y-47664500D02*
X160543000Y-46203500D01*
X160623000Y-47664500D02*
X160623000Y-46184500D01*
X160062000Y-51033500D02*
X160062000Y-49744500D01*
X159342000Y-47664500D02*
X159342000Y-46878500D01*
X160382000Y-51159500D02*
X160382000Y-49744500D01*
X158662000Y-49381500D02*
X158662000Y-48027500D01*
X158582000Y-48988500D02*
X158582000Y-48420500D01*
X160823000Y-51260500D02*
X160823000Y-49744500D01*
X160262000Y-47664500D02*
X160262000Y-46290500D01*
X160583000Y-47664500D02*
X160583000Y-46193500D01*
X160422000Y-47664500D02*
X160422000Y-46236500D01*
X160302000Y-51132500D02*
X160302000Y-49744500D01*
X160863000Y-47664500D02*
X160863000Y-46143500D01*
X159862000Y-50928500D02*
X159862000Y-49744500D01*
X160062000Y-47664500D02*
X160062000Y-46375500D01*
X159062000Y-50204500D02*
X159062000Y-49744500D01*
X160342000Y-47664500D02*
X160342000Y-46262500D01*
X159142000Y-47664500D02*
X159142000Y-47099500D01*
X159822000Y-50904500D02*
X159822000Y-49744500D01*
X159302000Y-50489500D02*
X159302000Y-49744500D01*
X161143000Y-51284500D02*
X161143000Y-46124500D01*
X160182000Y-51086500D02*
X160182000Y-49744500D01*
X158902000Y-49955500D02*
X158902000Y-49744500D01*
X160863000Y-51265500D02*
X160863000Y-49744500D01*
X159782000Y-50879500D02*
X159782000Y-49744500D01*
X158942000Y-50023500D02*
X158942000Y-49744500D01*
X159182000Y-50357500D02*
X159182000Y-49744500D01*
X159462000Y-47664500D02*
X159462000Y-46767500D01*
X159262000Y-50447500D02*
X159262000Y-49744500D01*
X159182000Y-47664500D02*
X159182000Y-47051500D01*
X160743000Y-51247500D02*
X160743000Y-49744500D01*
X158942000Y-47664500D02*
X158942000Y-47385500D01*
X160462000Y-51184500D02*
X160462000Y-49744500D01*
X160222000Y-51102500D02*
X160222000Y-49744500D01*
X159222000Y-47664500D02*
X159222000Y-47005500D01*
X160262000Y-51118500D02*
X160262000Y-49744500D01*
X160342000Y-51146500D02*
X160342000Y-49744500D01*
X159422000Y-47664500D02*
X159422000Y-46803500D01*
X161063000Y-51282500D02*
X161063000Y-46126500D01*
X158862000Y-49882500D02*
X158862000Y-47526500D01*
X160462000Y-47664500D02*
X160462000Y-46224500D01*
X160503000Y-47664500D02*
X160503000Y-46213500D01*
X159222000Y-50403500D02*
X159222000Y-49744500D01*
X159982000Y-50994500D02*
X159982000Y-49744500D01*
X160182000Y-47664500D02*
X160182000Y-46322500D01*
X159502000Y-47664500D02*
X159502000Y-46733500D01*
X160142000Y-51069500D02*
X160142000Y-49744500D01*
X160583000Y-51215500D02*
X160583000Y-49744500D01*
X159622000Y-47664500D02*
X159622000Y-46639500D01*
X159702000Y-50826500D02*
X159702000Y-49744500D01*
X159622000Y-50769500D02*
X159622000Y-49744500D01*
X158982000Y-47664500D02*
X158982000Y-47321500D01*
X159022000Y-50147500D02*
X159022000Y-49744500D01*
X159582000Y-50739500D02*
X159582000Y-49744500D01*
X158782000Y-49715500D02*
X158782000Y-47693500D01*
X160142000Y-47664500D02*
X160142000Y-46339500D01*
X160102000Y-47664500D02*
X160102000Y-46356500D01*
X160663000Y-47664500D02*
X160663000Y-46176500D01*
X159422000Y-50605500D02*
X159422000Y-49744500D01*
X160783000Y-51254500D02*
X160783000Y-49744500D01*
X158902000Y-47664500D02*
X158902000Y-47453500D01*
X159502000Y-50675500D02*
X159502000Y-49744500D01*
X160823000Y-47664500D02*
X160823000Y-46148500D01*
X160903000Y-51269500D02*
X160903000Y-49744500D01*
X158822000Y-49802500D02*
X158822000Y-47606500D01*
X159102000Y-47664500D02*
X159102000Y-47150500D01*
X159382000Y-47664500D02*
X159382000Y-46840500D01*
X160943000Y-51273500D02*
X160943000Y-49744500D01*
X159662000Y-50799500D02*
X159662000Y-49744500D01*
X159382000Y-50568500D02*
X159382000Y-49744500D01*
X159902000Y-47664500D02*
X159902000Y-46457500D01*
X159142000Y-50309500D02*
X159142000Y-49744500D01*
X159542000Y-47664500D02*
X159542000Y-46700500D01*
X160382000Y-47664500D02*
X160382000Y-46249500D01*
X160022000Y-47664500D02*
X160022000Y-46394500D01*
X160503000Y-51195500D02*
X160503000Y-49744500D01*
X159542000Y-50708500D02*
X159542000Y-49744500D01*
X160222000Y-47664500D02*
X160222000Y-46306500D01*
X159742000Y-50853500D02*
X159742000Y-49744500D01*
X159662000Y-47664500D02*
X159662000Y-46609500D01*
X160302000Y-47664500D02*
X160302000Y-46276500D01*
X160783000Y-47664500D02*
X160783000Y-46154500D01*
X159102000Y-50258500D02*
X159102000Y-49744500D01*
X160102000Y-51052500D02*
X160102000Y-49744500D01*
X160903000Y-47664500D02*
X160903000Y-46139500D01*
X158702000Y-49509500D02*
X158702000Y-47899500D01*
X163737775Y-50429500D02*
X163737775Y-49929500D01*
X161103000Y-51283500D02*
X161103000Y-46125500D01*
X159742000Y-47664500D02*
X159742000Y-46555500D01*
X160543000Y-51205500D02*
X160543000Y-49744500D01*
X159982000Y-47664500D02*
X159982000Y-46414500D01*
X159062000Y-47664500D02*
X159062000Y-47204500D01*
X160743000Y-47664500D02*
X160743000Y-46161500D01*
X160422000Y-51172500D02*
X160422000Y-49744500D01*
X159862000Y-47664500D02*
X159862000Y-46480500D01*
X159302000Y-47664500D02*
X159302000Y-46919500D01*
X163803000Y-48704500D02*
G75*
G03*
X163803000Y-48704500I-2620000J0D01*
G01*
%TO.C,C13*%
X126169500Y-47664500D02*
X126169500Y-46339500D01*
X125569500Y-50708500D02*
X125569500Y-49744500D01*
X125649500Y-50769500D02*
X125649500Y-49744500D01*
X124929500Y-47664500D02*
X124929500Y-47453500D01*
X126610500Y-47664500D02*
X126610500Y-46193500D01*
X124969500Y-50023500D02*
X124969500Y-49744500D01*
X126409500Y-51159500D02*
X126409500Y-49744500D01*
X124929500Y-49955500D02*
X124929500Y-49744500D01*
X126850500Y-51260500D02*
X126850500Y-49744500D01*
X127010500Y-51277500D02*
X127010500Y-46131500D01*
X126770500Y-51247500D02*
X126770500Y-49744500D01*
X125329500Y-50489500D02*
X125329500Y-49744500D01*
X125089500Y-50204500D02*
X125089500Y-49744500D01*
X126409500Y-47664500D02*
X126409500Y-46249500D01*
X125849500Y-47664500D02*
X125849500Y-46504500D01*
X125729500Y-47664500D02*
X125729500Y-46582500D01*
X126970500Y-51273500D02*
X126970500Y-49744500D01*
X126169500Y-51069500D02*
X126169500Y-49744500D01*
X125169500Y-50309500D02*
X125169500Y-49744500D01*
X126730500Y-51240500D02*
X126730500Y-49744500D01*
X126690500Y-47664500D02*
X126690500Y-46176500D01*
X125689500Y-47664500D02*
X125689500Y-46609500D01*
X125009500Y-50087500D02*
X125009500Y-49744500D01*
X126610500Y-51215500D02*
X126610500Y-49744500D01*
X125209500Y-47664500D02*
X125209500Y-47051500D01*
X125609500Y-50739500D02*
X125609500Y-49744500D01*
X125809500Y-50879500D02*
X125809500Y-49744500D01*
X125409500Y-50568500D02*
X125409500Y-49744500D01*
X125169500Y-47664500D02*
X125169500Y-47099500D01*
X125209500Y-50357500D02*
X125209500Y-49744500D01*
X126530500Y-51195500D02*
X126530500Y-49744500D01*
X126650500Y-47664500D02*
X126650500Y-46184500D01*
X130015275Y-50179500D02*
X129515275Y-50179500D01*
X126890500Y-47664500D02*
X126890500Y-46143500D01*
X126489500Y-51184500D02*
X126489500Y-49744500D01*
X126369500Y-47664500D02*
X126369500Y-46262500D01*
X125249500Y-47664500D02*
X125249500Y-47005500D01*
X124849500Y-49802500D02*
X124849500Y-47606500D01*
X125849500Y-50904500D02*
X125849500Y-49744500D01*
X125729500Y-50826500D02*
X125729500Y-49744500D01*
X126369500Y-51146500D02*
X126369500Y-49744500D01*
X124769500Y-49619500D02*
X124769500Y-47789500D01*
X125329500Y-47664500D02*
X125329500Y-46919500D01*
X125289500Y-50447500D02*
X125289500Y-49744500D01*
X126930500Y-47664500D02*
X126930500Y-46139500D01*
X127210500Y-51284500D02*
X127210500Y-46124500D01*
X126810500Y-51254500D02*
X126810500Y-49744500D01*
X126810500Y-47664500D02*
X126810500Y-46154500D01*
X126129500Y-51052500D02*
X126129500Y-49744500D01*
X124729500Y-49509500D02*
X124729500Y-47899500D01*
X126329500Y-51132500D02*
X126329500Y-49744500D01*
X125049500Y-50147500D02*
X125049500Y-49744500D01*
X126770500Y-47664500D02*
X126770500Y-46161500D01*
X125809500Y-47664500D02*
X125809500Y-46529500D01*
X126009500Y-50994500D02*
X126009500Y-49744500D01*
X125489500Y-50641500D02*
X125489500Y-49744500D01*
X125369500Y-47664500D02*
X125369500Y-46878500D01*
X125529500Y-50675500D02*
X125529500Y-49744500D01*
X125089500Y-47664500D02*
X125089500Y-47204500D01*
X125129500Y-50258500D02*
X125129500Y-49744500D01*
X125889500Y-47664500D02*
X125889500Y-46480500D01*
X129765275Y-50429500D02*
X129765275Y-49929500D01*
X125529500Y-47664500D02*
X125529500Y-46733500D01*
X126289500Y-51118500D02*
X126289500Y-49744500D01*
X124809500Y-49715500D02*
X124809500Y-47693500D01*
X126329500Y-47664500D02*
X126329500Y-46276500D01*
X124889500Y-49882500D02*
X124889500Y-47526500D01*
X125009500Y-47664500D02*
X125009500Y-47321500D01*
X126570500Y-51205500D02*
X126570500Y-49744500D01*
X126049500Y-47664500D02*
X126049500Y-46394500D01*
X125049500Y-47664500D02*
X125049500Y-47261500D01*
X127090500Y-51282500D02*
X127090500Y-46126500D01*
X127130500Y-51283500D02*
X127130500Y-46125500D01*
X126489500Y-47664500D02*
X126489500Y-46224500D01*
X124969500Y-47664500D02*
X124969500Y-47385500D01*
X126930500Y-51269500D02*
X126930500Y-49744500D01*
X125649500Y-47664500D02*
X125649500Y-46639500D01*
X126449500Y-51172500D02*
X126449500Y-49744500D01*
X124609500Y-48988500D02*
X124609500Y-48420500D01*
X125969500Y-47664500D02*
X125969500Y-46436500D01*
X125889500Y-50928500D02*
X125889500Y-49744500D01*
X126209500Y-47664500D02*
X126209500Y-46322500D01*
X126970500Y-47664500D02*
X126970500Y-46135500D01*
X127170500Y-51284500D02*
X127170500Y-46124500D01*
X126089500Y-47664500D02*
X126089500Y-46375500D01*
X125769500Y-50853500D02*
X125769500Y-49744500D01*
X126890500Y-51265500D02*
X126890500Y-49744500D01*
X126570500Y-47664500D02*
X126570500Y-46203500D01*
X126089500Y-51033500D02*
X126089500Y-49744500D01*
X125369500Y-50530500D02*
X125369500Y-49744500D01*
X126730500Y-47664500D02*
X126730500Y-46168500D01*
X126009500Y-47664500D02*
X126009500Y-46414500D01*
X126650500Y-51224500D02*
X126650500Y-49744500D01*
X125489500Y-47664500D02*
X125489500Y-46767500D01*
X125929500Y-47664500D02*
X125929500Y-46457500D01*
X125769500Y-47664500D02*
X125769500Y-46555500D01*
X124689500Y-49381500D02*
X124689500Y-48027500D01*
X126289500Y-47664500D02*
X126289500Y-46290500D01*
X125289500Y-47664500D02*
X125289500Y-46961500D01*
X125449500Y-47664500D02*
X125449500Y-46803500D01*
X124649500Y-49222500D02*
X124649500Y-48186500D01*
X126530500Y-47664500D02*
X126530500Y-46213500D01*
X126129500Y-47664500D02*
X126129500Y-46356500D01*
X125449500Y-50605500D02*
X125449500Y-49744500D01*
X125969500Y-50972500D02*
X125969500Y-49744500D01*
X125129500Y-47664500D02*
X125129500Y-47150500D01*
X126249500Y-47664500D02*
X126249500Y-46306500D01*
X126049500Y-51014500D02*
X126049500Y-49744500D01*
X125689500Y-50799500D02*
X125689500Y-49744500D01*
X125569500Y-47664500D02*
X125569500Y-46700500D01*
X126449500Y-47664500D02*
X126449500Y-46236500D01*
X125929500Y-50951500D02*
X125929500Y-49744500D01*
X126690500Y-51232500D02*
X126690500Y-49744500D01*
X125409500Y-47664500D02*
X125409500Y-46840500D01*
X125249500Y-50403500D02*
X125249500Y-49744500D01*
X126209500Y-51086500D02*
X126209500Y-49744500D01*
X126850500Y-47664500D02*
X126850500Y-46148500D01*
X126249500Y-51102500D02*
X126249500Y-49744500D01*
X127050500Y-51280500D02*
X127050500Y-46128500D01*
X125609500Y-47664500D02*
X125609500Y-46669500D01*
X129830500Y-48704500D02*
G75*
G03*
X129830500Y-48704500I-2620000J0D01*
G01*
%TO.C,C16*%
X172082000Y-47664500D02*
X172082000Y-46840500D01*
X171602000Y-47664500D02*
X171602000Y-47453500D01*
X173363000Y-51232500D02*
X173363000Y-49744500D01*
X172802000Y-47664500D02*
X172802000Y-46356500D01*
X172682000Y-50994500D02*
X172682000Y-49744500D01*
X171562000Y-49882500D02*
X171562000Y-47526500D01*
X173643000Y-47664500D02*
X173643000Y-46135500D01*
X171322000Y-49222500D02*
X171322000Y-48186500D01*
X171842000Y-50309500D02*
X171842000Y-49744500D01*
X173122000Y-47664500D02*
X173122000Y-46236500D01*
X171682000Y-47664500D02*
X171682000Y-47321500D01*
X172522000Y-50904500D02*
X172522000Y-49744500D01*
X171682000Y-50087500D02*
X171682000Y-49744500D01*
X173042000Y-51146500D02*
X173042000Y-49744500D01*
X176687775Y-50179500D02*
X176187775Y-50179500D01*
X171282000Y-48988500D02*
X171282000Y-48420500D01*
X172922000Y-47664500D02*
X172922000Y-46306500D01*
X173763000Y-51282500D02*
X173763000Y-46126500D01*
X173203000Y-47664500D02*
X173203000Y-46213500D01*
X173283000Y-47664500D02*
X173283000Y-46193500D01*
X173162000Y-51184500D02*
X173162000Y-49744500D01*
X173082000Y-47664500D02*
X173082000Y-46249500D01*
X172442000Y-47664500D02*
X172442000Y-46555500D01*
X173603000Y-51269500D02*
X173603000Y-49744500D01*
X171522000Y-49802500D02*
X171522000Y-47606500D01*
X173563000Y-51265500D02*
X173563000Y-49744500D01*
X173523000Y-51260500D02*
X173523000Y-49744500D01*
X171362000Y-49381500D02*
X171362000Y-48027500D01*
X172322000Y-47664500D02*
X172322000Y-46639500D01*
X172722000Y-47664500D02*
X172722000Y-46394500D01*
X172362000Y-47664500D02*
X172362000Y-46609500D01*
X173563000Y-47664500D02*
X173563000Y-46143500D01*
X173283000Y-51215500D02*
X173283000Y-49744500D01*
X173443000Y-51247500D02*
X173443000Y-49744500D01*
X172122000Y-47664500D02*
X172122000Y-46803500D01*
X171762000Y-50204500D02*
X171762000Y-49744500D01*
X172962000Y-51118500D02*
X172962000Y-49744500D01*
X173643000Y-51273500D02*
X173643000Y-49744500D01*
X172162000Y-50641500D02*
X172162000Y-49744500D01*
X172242000Y-47664500D02*
X172242000Y-46700500D01*
X173483000Y-51254500D02*
X173483000Y-49744500D01*
X172722000Y-51014500D02*
X172722000Y-49744500D01*
X172082000Y-50568500D02*
X172082000Y-49744500D01*
X173683000Y-51277500D02*
X173683000Y-46131500D01*
X172482000Y-50879500D02*
X172482000Y-49744500D01*
X171842000Y-47664500D02*
X171842000Y-47099500D01*
X172202000Y-47664500D02*
X172202000Y-46733500D01*
X171882000Y-50357500D02*
X171882000Y-49744500D01*
X172962000Y-47664500D02*
X172962000Y-46290500D01*
X172602000Y-50951500D02*
X172602000Y-49744500D01*
X171722000Y-47664500D02*
X171722000Y-47261500D01*
X171602000Y-49955500D02*
X171602000Y-49744500D01*
X172282000Y-47664500D02*
X172282000Y-46669500D01*
X173403000Y-51240500D02*
X173403000Y-49744500D01*
X173122000Y-51172500D02*
X173122000Y-49744500D01*
X173243000Y-51205500D02*
X173243000Y-49744500D01*
X173162000Y-47664500D02*
X173162000Y-46224500D01*
X173603000Y-47664500D02*
X173603000Y-46139500D01*
X171642000Y-50023500D02*
X171642000Y-49744500D01*
X176437775Y-50429500D02*
X176437775Y-49929500D01*
X173883000Y-51284500D02*
X173883000Y-46124500D01*
X172042000Y-47664500D02*
X172042000Y-46878500D01*
X173403000Y-47664500D02*
X173403000Y-46168500D01*
X171482000Y-49715500D02*
X171482000Y-47693500D01*
X171882000Y-47664500D02*
X171882000Y-47051500D01*
X171802000Y-47664500D02*
X171802000Y-47150500D01*
X171962000Y-47664500D02*
X171962000Y-46961500D01*
X172002000Y-47664500D02*
X172002000Y-46919500D01*
X173723000Y-51280500D02*
X173723000Y-46128500D01*
X172282000Y-50739500D02*
X172282000Y-49744500D01*
X171962000Y-50447500D02*
X171962000Y-49744500D01*
X173082000Y-51159500D02*
X173082000Y-49744500D01*
X172682000Y-47664500D02*
X172682000Y-46414500D01*
X172882000Y-47664500D02*
X172882000Y-46322500D01*
X172162000Y-47664500D02*
X172162000Y-46767500D01*
X173203000Y-51195500D02*
X173203000Y-49744500D01*
X171922000Y-47664500D02*
X171922000Y-47005500D01*
X172842000Y-51069500D02*
X172842000Y-49744500D01*
X173042000Y-47664500D02*
X173042000Y-46262500D01*
X172362000Y-50799500D02*
X172362000Y-49744500D01*
X171762000Y-47664500D02*
X171762000Y-47204500D01*
X172002000Y-50489500D02*
X172002000Y-49744500D01*
X172042000Y-50530500D02*
X172042000Y-49744500D01*
X172322000Y-50769500D02*
X172322000Y-49744500D01*
X173002000Y-51132500D02*
X173002000Y-49744500D01*
X173443000Y-47664500D02*
X173443000Y-46161500D01*
X172642000Y-47664500D02*
X172642000Y-46436500D01*
X172442000Y-50853500D02*
X172442000Y-49744500D01*
X173243000Y-47664500D02*
X173243000Y-46203500D01*
X172402000Y-50826500D02*
X172402000Y-49744500D01*
X172562000Y-50928500D02*
X172562000Y-49744500D01*
X172242000Y-50708500D02*
X172242000Y-49744500D01*
X173803000Y-51283500D02*
X173803000Y-46125500D01*
X173323000Y-51224500D02*
X173323000Y-49744500D01*
X172762000Y-51033500D02*
X172762000Y-49744500D01*
X172602000Y-47664500D02*
X172602000Y-46457500D01*
X171722000Y-50147500D02*
X171722000Y-49744500D01*
X173523000Y-47664500D02*
X173523000Y-46148500D01*
X172402000Y-47664500D02*
X172402000Y-46582500D01*
X172762000Y-47664500D02*
X172762000Y-46375500D01*
X171802000Y-50258500D02*
X171802000Y-49744500D01*
X171922000Y-50403500D02*
X171922000Y-49744500D01*
X173843000Y-51284500D02*
X173843000Y-46124500D01*
X173323000Y-47664500D02*
X173323000Y-46184500D01*
X171442000Y-49619500D02*
X171442000Y-47789500D01*
X172202000Y-50675500D02*
X172202000Y-49744500D01*
X172122000Y-50605500D02*
X172122000Y-49744500D01*
X172522000Y-47664500D02*
X172522000Y-46504500D01*
X172882000Y-51086500D02*
X172882000Y-49744500D01*
X173363000Y-47664500D02*
X173363000Y-46176500D01*
X172562000Y-47664500D02*
X172562000Y-46480500D01*
X172482000Y-47664500D02*
X172482000Y-46529500D01*
X172922000Y-51102500D02*
X172922000Y-49744500D01*
X173483000Y-47664500D02*
X173483000Y-46154500D01*
X173002000Y-47664500D02*
X173002000Y-46276500D01*
X171402000Y-49509500D02*
X171402000Y-47899500D01*
X172842000Y-47664500D02*
X172842000Y-46339500D01*
X171642000Y-47664500D02*
X171642000Y-47385500D01*
X172802000Y-51052500D02*
X172802000Y-49744500D01*
X172642000Y-50972500D02*
X172642000Y-49744500D01*
X176503000Y-48704500D02*
G75*
G03*
X176503000Y-48704500I-2620000J0D01*
G01*
%TO.C,C14*%
X152392000Y-49619500D02*
X152392000Y-47789500D01*
X153032000Y-47664500D02*
X153032000Y-46840500D01*
X153712000Y-47664500D02*
X153712000Y-46375500D01*
X153232000Y-50739500D02*
X153232000Y-49744500D01*
X153432000Y-50879500D02*
X153432000Y-49744500D01*
X152432000Y-49715500D02*
X152432000Y-47693500D01*
X157387775Y-50429500D02*
X157387775Y-49929500D01*
X153992000Y-51146500D02*
X153992000Y-49744500D01*
X152672000Y-47664500D02*
X152672000Y-47261500D01*
X154353000Y-47664500D02*
X154353000Y-46168500D01*
X153112000Y-50641500D02*
X153112000Y-49744500D01*
X153472000Y-50904500D02*
X153472000Y-49744500D01*
X154753000Y-51283500D02*
X154753000Y-46125500D01*
X153312000Y-47664500D02*
X153312000Y-46609500D01*
X154313000Y-47664500D02*
X154313000Y-46176500D01*
X154233000Y-47664500D02*
X154233000Y-46193500D01*
X153272000Y-47664500D02*
X153272000Y-46639500D01*
X153272000Y-50769500D02*
X153272000Y-49744500D01*
X153192000Y-47664500D02*
X153192000Y-46700500D01*
X153352000Y-50826500D02*
X153352000Y-49744500D01*
X153672000Y-51014500D02*
X153672000Y-49744500D01*
X154833000Y-51284500D02*
X154833000Y-46124500D01*
X152792000Y-47664500D02*
X152792000Y-47099500D01*
X152872000Y-50403500D02*
X152872000Y-49744500D01*
X152512000Y-49882500D02*
X152512000Y-47526500D01*
X154112000Y-47664500D02*
X154112000Y-46224500D01*
X152872000Y-47664500D02*
X152872000Y-47005500D01*
X154032000Y-47664500D02*
X154032000Y-46249500D01*
X153312000Y-50799500D02*
X153312000Y-49744500D01*
X153472000Y-47664500D02*
X153472000Y-46504500D01*
X154593000Y-51273500D02*
X154593000Y-49744500D01*
X153592000Y-47664500D02*
X153592000Y-46436500D01*
X154193000Y-47664500D02*
X154193000Y-46203500D01*
X152752000Y-47664500D02*
X152752000Y-47150500D01*
X153032000Y-50568500D02*
X153032000Y-49744500D01*
X153432000Y-47664500D02*
X153432000Y-46529500D01*
X153832000Y-51086500D02*
X153832000Y-49744500D01*
X153112000Y-47664500D02*
X153112000Y-46767500D01*
X154313000Y-51232500D02*
X154313000Y-49744500D01*
X154473000Y-51260500D02*
X154473000Y-49744500D01*
X154473000Y-47664500D02*
X154473000Y-46148500D01*
X153992000Y-47664500D02*
X153992000Y-46262500D01*
X154072000Y-51172500D02*
X154072000Y-49744500D01*
X152552000Y-47664500D02*
X152552000Y-47453500D01*
X154153000Y-47664500D02*
X154153000Y-46213500D01*
X154072000Y-47664500D02*
X154072000Y-46236500D01*
X153792000Y-47664500D02*
X153792000Y-46339500D01*
X152632000Y-50087500D02*
X152632000Y-49744500D01*
X154713000Y-51282500D02*
X154713000Y-46126500D01*
X154273000Y-51224500D02*
X154273000Y-49744500D01*
X154112000Y-51184500D02*
X154112000Y-49744500D01*
X153872000Y-51102500D02*
X153872000Y-49744500D01*
X154193000Y-51205500D02*
X154193000Y-49744500D01*
X152752000Y-50258500D02*
X152752000Y-49744500D01*
X152312000Y-49381500D02*
X152312000Y-48027500D01*
X152712000Y-47664500D02*
X152712000Y-47204500D01*
X152912000Y-50447500D02*
X152912000Y-49744500D01*
X153632000Y-50994500D02*
X153632000Y-49744500D01*
X152592000Y-47664500D02*
X152592000Y-47385500D01*
X154513000Y-47664500D02*
X154513000Y-46143500D01*
X153352000Y-47664500D02*
X153352000Y-46582500D01*
X157637775Y-50179500D02*
X157137775Y-50179500D01*
X153512000Y-50928500D02*
X153512000Y-49744500D01*
X153952000Y-47664500D02*
X153952000Y-46276500D01*
X154233000Y-51215500D02*
X154233000Y-49744500D01*
X153152000Y-47664500D02*
X153152000Y-46733500D01*
X154273000Y-47664500D02*
X154273000Y-46184500D01*
X152992000Y-50530500D02*
X152992000Y-49744500D01*
X152952000Y-47664500D02*
X152952000Y-46919500D01*
X153152000Y-50675500D02*
X153152000Y-49744500D01*
X153512000Y-47664500D02*
X153512000Y-46480500D01*
X154032000Y-51159500D02*
X154032000Y-49744500D01*
X153232000Y-47664500D02*
X153232000Y-46669500D01*
X152232000Y-48988500D02*
X152232000Y-48420500D01*
X153072000Y-50605500D02*
X153072000Y-49744500D01*
X154393000Y-47664500D02*
X154393000Y-46161500D01*
X153392000Y-50853500D02*
X153392000Y-49744500D01*
X152712000Y-50204500D02*
X152712000Y-49744500D01*
X152552000Y-49955500D02*
X152552000Y-49744500D01*
X152912000Y-47664500D02*
X152912000Y-46961500D01*
X152952000Y-50489500D02*
X152952000Y-49744500D01*
X152792000Y-50309500D02*
X152792000Y-49744500D01*
X152632000Y-47664500D02*
X152632000Y-47321500D01*
X154633000Y-51277500D02*
X154633000Y-46131500D01*
X153712000Y-51033500D02*
X153712000Y-49744500D01*
X153832000Y-47664500D02*
X153832000Y-46322500D01*
X152672000Y-50147500D02*
X152672000Y-49744500D01*
X153912000Y-51118500D02*
X153912000Y-49744500D01*
X152832000Y-47664500D02*
X152832000Y-47051500D01*
X153872000Y-47664500D02*
X153872000Y-46306500D01*
X154673000Y-51280500D02*
X154673000Y-46128500D01*
X153632000Y-47664500D02*
X153632000Y-46414500D01*
X152472000Y-49802500D02*
X152472000Y-47606500D01*
X153552000Y-47664500D02*
X153552000Y-46457500D01*
X153192000Y-50708500D02*
X153192000Y-49744500D01*
X152832000Y-50357500D02*
X152832000Y-49744500D01*
X154513000Y-51265500D02*
X154513000Y-49744500D01*
X153392000Y-47664500D02*
X153392000Y-46555500D01*
X153912000Y-47664500D02*
X153912000Y-46290500D01*
X153952000Y-51132500D02*
X153952000Y-49744500D01*
X154433000Y-47664500D02*
X154433000Y-46154500D01*
X153072000Y-47664500D02*
X153072000Y-46803500D01*
X154553000Y-51269500D02*
X154553000Y-49744500D01*
X153552000Y-50951500D02*
X153552000Y-49744500D01*
X152592000Y-50023500D02*
X152592000Y-49744500D01*
X154793000Y-51284500D02*
X154793000Y-46124500D01*
X153752000Y-51052500D02*
X153752000Y-49744500D01*
X152992000Y-47664500D02*
X152992000Y-46878500D01*
X153672000Y-47664500D02*
X153672000Y-46394500D01*
X154593000Y-47664500D02*
X154593000Y-46135500D01*
X152352000Y-49509500D02*
X152352000Y-47899500D01*
X153592000Y-50972500D02*
X153592000Y-49744500D01*
X154153000Y-51195500D02*
X154153000Y-49744500D01*
X154553000Y-47664500D02*
X154553000Y-46139500D01*
X152272000Y-49222500D02*
X152272000Y-48186500D01*
X153752000Y-47664500D02*
X153752000Y-46356500D01*
X154393000Y-51247500D02*
X154393000Y-49744500D01*
X154353000Y-51240500D02*
X154353000Y-49744500D01*
X154433000Y-51254500D02*
X154433000Y-49744500D01*
X153792000Y-51069500D02*
X153792000Y-49744500D01*
X157453000Y-48704500D02*
G75*
G03*
X157453000Y-48704500I-2620000J0D01*
G01*
%TO.C,U5*%
X188470000Y-86000000D02*
X188470000Y-68100000D01*
X152730000Y-83510000D02*
X188410000Y-83510000D01*
X188410000Y-76050000D02*
X188410000Y-70590000D01*
X188470000Y-68100000D02*
X152670000Y-68100000D01*
X188410000Y-70590000D02*
X152730000Y-70590000D01*
X188410000Y-83510000D02*
X188410000Y-78050000D01*
X152670000Y-86000000D02*
X188470000Y-86000000D01*
X152730000Y-70590000D02*
X152730000Y-83510000D01*
X152670000Y-68100000D02*
X152670000Y-86000000D01*
X188410000Y-76050000D02*
G75*
G03*
X188410000Y-78050000I0J-1000000D01*
G01*
%TO.C,C1*%
X112870000Y-88240000D02*
X108330000Y-88240000D01*
X112870000Y-88240000D02*
X112870000Y-88225000D01*
X108330000Y-88240000D02*
X108330000Y-88225000D01*
X112870000Y-86100000D02*
X108330000Y-86100000D01*
X108330000Y-86115000D02*
X108330000Y-86100000D01*
X112870000Y-86115000D02*
X112870000Y-86100000D01*
%TO.C,C9*%
X139350500Y-51224500D02*
X139350500Y-49744500D01*
X138389500Y-50799500D02*
X138389500Y-49744500D01*
X138829500Y-51052500D02*
X138829500Y-49744500D01*
X138469500Y-50853500D02*
X138469500Y-49744500D01*
X139630500Y-51269500D02*
X139630500Y-49744500D01*
X137309500Y-48988500D02*
X137309500Y-48420500D01*
X138829500Y-47664500D02*
X138829500Y-46356500D01*
X138429500Y-50826500D02*
X138429500Y-49744500D01*
X138429500Y-47664500D02*
X138429500Y-46582500D01*
X138509500Y-47664500D02*
X138509500Y-46529500D01*
X138269500Y-50708500D02*
X138269500Y-49744500D01*
X138709500Y-50994500D02*
X138709500Y-49744500D01*
X138149500Y-50605500D02*
X138149500Y-49744500D01*
X138869500Y-51069500D02*
X138869500Y-49744500D01*
X139189500Y-47664500D02*
X139189500Y-46224500D01*
X139550500Y-47664500D02*
X139550500Y-46148500D01*
X139109500Y-51159500D02*
X139109500Y-49744500D01*
X138949500Y-51102500D02*
X138949500Y-49744500D01*
X139350500Y-47664500D02*
X139350500Y-46184500D01*
X139630500Y-47664500D02*
X139630500Y-46139500D01*
X137709500Y-50087500D02*
X137709500Y-49744500D01*
X137629500Y-47664500D02*
X137629500Y-47453500D01*
X139310500Y-47664500D02*
X139310500Y-46193500D01*
X137949500Y-47664500D02*
X137949500Y-47005500D01*
X138109500Y-50568500D02*
X138109500Y-49744500D01*
X139670500Y-47664500D02*
X139670500Y-46135500D01*
X139710500Y-51277500D02*
X139710500Y-46131500D01*
X139109500Y-47664500D02*
X139109500Y-46249500D01*
X137669500Y-47664500D02*
X137669500Y-47385500D01*
X137989500Y-47664500D02*
X137989500Y-46961500D01*
X138309500Y-47664500D02*
X138309500Y-46669500D01*
X139029500Y-51132500D02*
X139029500Y-49744500D01*
X139270500Y-51205500D02*
X139270500Y-49744500D01*
X137349500Y-49222500D02*
X137349500Y-48186500D01*
X139390500Y-51232500D02*
X139390500Y-49744500D01*
X138669500Y-50972500D02*
X138669500Y-49744500D01*
X139310500Y-51215500D02*
X139310500Y-49744500D01*
X137869500Y-47664500D02*
X137869500Y-47099500D01*
X137669500Y-50023500D02*
X137669500Y-49744500D01*
X137709500Y-47664500D02*
X137709500Y-47321500D01*
X138229500Y-50675500D02*
X138229500Y-49744500D01*
X138749500Y-51014500D02*
X138749500Y-49744500D01*
X139029500Y-47664500D02*
X139029500Y-46276500D01*
X137829500Y-47664500D02*
X137829500Y-47150500D01*
X139550500Y-51260500D02*
X139550500Y-49744500D01*
X137509500Y-49715500D02*
X137509500Y-47693500D01*
X139470500Y-51247500D02*
X139470500Y-49744500D01*
X139069500Y-51146500D02*
X139069500Y-49744500D01*
X139870500Y-51284500D02*
X139870500Y-46124500D01*
X137389500Y-49381500D02*
X137389500Y-48027500D01*
X137869500Y-50309500D02*
X137869500Y-49744500D01*
X138909500Y-51086500D02*
X138909500Y-49744500D01*
X139069500Y-47664500D02*
X139069500Y-46262500D01*
X138029500Y-50489500D02*
X138029500Y-49744500D01*
X138989500Y-51118500D02*
X138989500Y-49744500D01*
X139430500Y-51240500D02*
X139430500Y-49744500D01*
X137629500Y-49955500D02*
X137629500Y-49744500D01*
X138349500Y-47664500D02*
X138349500Y-46639500D01*
X137429500Y-49509500D02*
X137429500Y-47899500D01*
X138789500Y-47664500D02*
X138789500Y-46375500D01*
X137989500Y-50447500D02*
X137989500Y-49744500D01*
X138069500Y-50530500D02*
X138069500Y-49744500D01*
X137909500Y-47664500D02*
X137909500Y-47051500D01*
X138309500Y-50739500D02*
X138309500Y-49744500D01*
X139790500Y-51282500D02*
X139790500Y-46126500D01*
X139149500Y-47664500D02*
X139149500Y-46236500D01*
X138869500Y-47664500D02*
X138869500Y-46339500D01*
X138229500Y-47664500D02*
X138229500Y-46733500D01*
X138389500Y-47664500D02*
X138389500Y-46609500D01*
X139230500Y-47664500D02*
X139230500Y-46213500D01*
X139830500Y-51283500D02*
X139830500Y-46125500D01*
X137789500Y-50204500D02*
X137789500Y-49744500D01*
X137469500Y-49619500D02*
X137469500Y-47789500D01*
X137909500Y-50357500D02*
X137909500Y-49744500D01*
X138189500Y-47664500D02*
X138189500Y-46767500D01*
X138669500Y-47664500D02*
X138669500Y-46436500D01*
X139910500Y-51284500D02*
X139910500Y-46124500D01*
X138069500Y-47664500D02*
X138069500Y-46878500D01*
X137789500Y-47664500D02*
X137789500Y-47204500D01*
X138789500Y-51033500D02*
X138789500Y-49744500D01*
X138149500Y-47664500D02*
X138149500Y-46803500D01*
X137589500Y-49882500D02*
X137589500Y-47526500D01*
X138509500Y-50879500D02*
X138509500Y-49744500D01*
X139510500Y-47664500D02*
X139510500Y-46154500D01*
X139670500Y-51273500D02*
X139670500Y-49744500D01*
X138749500Y-47664500D02*
X138749500Y-46394500D01*
X138189500Y-50641500D02*
X138189500Y-49744500D01*
X139750500Y-51280500D02*
X139750500Y-46128500D01*
X138949500Y-47664500D02*
X138949500Y-46306500D01*
X138589500Y-50928500D02*
X138589500Y-49744500D01*
X137829500Y-50258500D02*
X137829500Y-49744500D01*
X138629500Y-50951500D02*
X138629500Y-49744500D01*
X138269500Y-47664500D02*
X138269500Y-46700500D01*
X138629500Y-47664500D02*
X138629500Y-46457500D01*
X138589500Y-47664500D02*
X138589500Y-46480500D01*
X137749500Y-50147500D02*
X137749500Y-49744500D01*
X142465275Y-50429500D02*
X142465275Y-49929500D01*
X137749500Y-47664500D02*
X137749500Y-47261500D01*
X138029500Y-47664500D02*
X138029500Y-46919500D01*
X139230500Y-51195500D02*
X139230500Y-49744500D01*
X139470500Y-47664500D02*
X139470500Y-46161500D01*
X139430500Y-47664500D02*
X139430500Y-46168500D01*
X138349500Y-50769500D02*
X138349500Y-49744500D01*
X139590500Y-51265500D02*
X139590500Y-49744500D01*
X137549500Y-49802500D02*
X137549500Y-47606500D01*
X138469500Y-47664500D02*
X138469500Y-46555500D01*
X138109500Y-47664500D02*
X138109500Y-46840500D01*
X138549500Y-47664500D02*
X138549500Y-46504500D01*
X139149500Y-51172500D02*
X139149500Y-49744500D01*
X139390500Y-47664500D02*
X139390500Y-46176500D01*
X138909500Y-47664500D02*
X138909500Y-46322500D01*
X139510500Y-51254500D02*
X139510500Y-49744500D01*
X137949500Y-50403500D02*
X137949500Y-49744500D01*
X142715275Y-50179500D02*
X142215275Y-50179500D01*
X138549500Y-50904500D02*
X138549500Y-49744500D01*
X139590500Y-47664500D02*
X139590500Y-46143500D01*
X138989500Y-47664500D02*
X138989500Y-46290500D01*
X139189500Y-51184500D02*
X139189500Y-49744500D01*
X139270500Y-47664500D02*
X139270500Y-46203500D01*
X138709500Y-47664500D02*
X138709500Y-46414500D01*
X142530500Y-48704500D02*
G75*
G03*
X142530500Y-48704500I-2620000J0D01*
G01*
%TO.C,U6*%
X146935500Y-60244500D02*
X146935500Y-58594500D01*
X126435500Y-62734500D02*
X146995500Y-62734500D01*
X146995500Y-52454500D02*
X126435500Y-52454500D01*
X146935500Y-56594500D02*
X146935500Y-54944500D01*
X126435500Y-52454500D02*
X126435500Y-62734500D01*
X146995500Y-62734500D02*
X146995500Y-52454500D01*
X126495500Y-54944500D02*
X126495500Y-60244500D01*
X126495500Y-60244500D02*
X146935500Y-60244500D01*
X146935500Y-54944500D02*
X126495500Y-54944500D01*
X146935500Y-56594500D02*
G75*
G03*
X146935500Y-58594500I0J-1000000D01*
G01*
%TO.C,C6*%
X148345500Y-61746000D02*
X148345500Y-57206000D01*
X150470500Y-61746000D02*
X150485500Y-61746000D01*
X150470500Y-57206000D02*
X150485500Y-57206000D01*
X150485500Y-61746000D02*
X150485500Y-57206000D01*
X148345500Y-61746000D02*
X148360500Y-61746000D01*
X148345500Y-57206000D02*
X148360500Y-57206000D01*
%TO.C,C15*%
X144699500Y-47664500D02*
X144699500Y-46639500D01*
X146220500Y-51284500D02*
X146220500Y-46124500D01*
X143739500Y-49381500D02*
X143739500Y-48027500D01*
X144739500Y-47664500D02*
X144739500Y-46609500D01*
X143819500Y-49619500D02*
X143819500Y-47789500D01*
X143779500Y-49509500D02*
X143779500Y-47899500D01*
X144779500Y-47664500D02*
X144779500Y-46582500D01*
X144619500Y-50708500D02*
X144619500Y-49744500D01*
X145580500Y-51195500D02*
X145580500Y-49744500D01*
X144539500Y-50641500D02*
X144539500Y-49744500D01*
X145499500Y-47664500D02*
X145499500Y-46236500D01*
X144379500Y-47664500D02*
X144379500Y-46919500D01*
X144659500Y-47664500D02*
X144659500Y-46669500D01*
X143859500Y-49715500D02*
X143859500Y-47693500D01*
X146180500Y-51283500D02*
X146180500Y-46125500D01*
X144339500Y-47664500D02*
X144339500Y-46961500D01*
X144779500Y-50826500D02*
X144779500Y-49744500D01*
X145740500Y-47664500D02*
X145740500Y-46176500D01*
X145740500Y-51232500D02*
X145740500Y-49744500D01*
X143899500Y-49802500D02*
X143899500Y-47606500D01*
X144819500Y-50853500D02*
X144819500Y-49744500D01*
X144859500Y-47664500D02*
X144859500Y-46529500D01*
X144179500Y-47664500D02*
X144179500Y-47150500D01*
X146020500Y-51273500D02*
X146020500Y-49744500D01*
X143699500Y-49222500D02*
X143699500Y-48186500D01*
X143979500Y-49955500D02*
X143979500Y-49744500D01*
X145620500Y-47664500D02*
X145620500Y-46203500D01*
X145580500Y-47664500D02*
X145580500Y-46213500D01*
X145059500Y-47664500D02*
X145059500Y-46414500D01*
X145980500Y-47664500D02*
X145980500Y-46139500D01*
X145700500Y-51224500D02*
X145700500Y-49744500D01*
X144819500Y-47664500D02*
X144819500Y-46555500D01*
X144459500Y-50568500D02*
X144459500Y-49744500D01*
X145299500Y-47664500D02*
X145299500Y-46306500D01*
X145780500Y-47664500D02*
X145780500Y-46168500D01*
X144579500Y-47664500D02*
X144579500Y-46733500D01*
X144259500Y-50357500D02*
X144259500Y-49744500D01*
X145940500Y-51265500D02*
X145940500Y-49744500D01*
X149065275Y-50179500D02*
X148565275Y-50179500D01*
X145459500Y-51159500D02*
X145459500Y-49744500D01*
X144019500Y-50023500D02*
X144019500Y-49744500D01*
X144299500Y-47664500D02*
X144299500Y-47005500D01*
X145700500Y-47664500D02*
X145700500Y-46184500D01*
X146140500Y-51282500D02*
X146140500Y-46126500D01*
X146100500Y-51280500D02*
X146100500Y-46128500D01*
X145259500Y-47664500D02*
X145259500Y-46322500D01*
X144939500Y-50928500D02*
X144939500Y-49744500D01*
X144939500Y-47664500D02*
X144939500Y-46480500D01*
X145019500Y-47664500D02*
X145019500Y-46436500D01*
X145379500Y-47664500D02*
X145379500Y-46276500D01*
X145780500Y-51240500D02*
X145780500Y-49744500D01*
X144579500Y-50675500D02*
X144579500Y-49744500D01*
X145299500Y-51102500D02*
X145299500Y-49744500D01*
X145820500Y-47664500D02*
X145820500Y-46161500D01*
X146060500Y-51277500D02*
X146060500Y-46131500D01*
X145099500Y-47664500D02*
X145099500Y-46394500D01*
X144499500Y-47664500D02*
X144499500Y-46803500D01*
X144859500Y-50879500D02*
X144859500Y-49744500D01*
X145019500Y-50972500D02*
X145019500Y-49744500D01*
X145900500Y-51260500D02*
X145900500Y-49744500D01*
X144219500Y-47664500D02*
X144219500Y-47099500D01*
X145660500Y-51215500D02*
X145660500Y-49744500D01*
X145339500Y-51118500D02*
X145339500Y-49744500D01*
X145539500Y-51184500D02*
X145539500Y-49744500D01*
X144139500Y-47664500D02*
X144139500Y-47204500D01*
X144419500Y-47664500D02*
X144419500Y-46878500D01*
X144299500Y-50403500D02*
X144299500Y-49744500D01*
X144979500Y-47664500D02*
X144979500Y-46457500D01*
X144699500Y-50769500D02*
X144699500Y-49744500D01*
X145339500Y-47664500D02*
X145339500Y-46290500D01*
X145419500Y-47664500D02*
X145419500Y-46262500D01*
X144899500Y-47664500D02*
X144899500Y-46504500D01*
X144099500Y-50147500D02*
X144099500Y-49744500D01*
X145900500Y-47664500D02*
X145900500Y-46148500D01*
X144179500Y-50258500D02*
X144179500Y-49744500D01*
X144059500Y-50087500D02*
X144059500Y-49744500D01*
X145459500Y-47664500D02*
X145459500Y-46249500D01*
X145860500Y-47664500D02*
X145860500Y-46154500D01*
X145660500Y-47664500D02*
X145660500Y-46193500D01*
X143939500Y-49882500D02*
X143939500Y-47526500D01*
X145259500Y-51086500D02*
X145259500Y-49744500D01*
X145379500Y-51132500D02*
X145379500Y-49744500D01*
X144139500Y-50204500D02*
X144139500Y-49744500D01*
X146260500Y-51284500D02*
X146260500Y-46124500D01*
X144099500Y-47664500D02*
X144099500Y-47261500D01*
X144739500Y-50799500D02*
X144739500Y-49744500D01*
X144459500Y-47664500D02*
X144459500Y-46840500D01*
X144619500Y-47664500D02*
X144619500Y-46700500D01*
X145419500Y-51146500D02*
X145419500Y-49744500D01*
X145139500Y-51033500D02*
X145139500Y-49744500D01*
X144259500Y-47664500D02*
X144259500Y-47051500D01*
X146020500Y-47664500D02*
X146020500Y-46135500D01*
X145620500Y-51205500D02*
X145620500Y-49744500D01*
X145499500Y-51172500D02*
X145499500Y-49744500D01*
X144059500Y-47664500D02*
X144059500Y-47321500D01*
X145179500Y-47664500D02*
X145179500Y-46356500D01*
X144419500Y-50530500D02*
X144419500Y-49744500D01*
X143659500Y-48988500D02*
X143659500Y-48420500D01*
X148815275Y-50429500D02*
X148815275Y-49929500D01*
X145820500Y-51247500D02*
X145820500Y-49744500D01*
X144219500Y-50309500D02*
X144219500Y-49744500D01*
X144659500Y-50739500D02*
X144659500Y-49744500D01*
X144379500Y-50489500D02*
X144379500Y-49744500D01*
X145219500Y-47664500D02*
X145219500Y-46339500D01*
X145539500Y-47664500D02*
X145539500Y-46224500D01*
X145099500Y-51014500D02*
X145099500Y-49744500D01*
X145860500Y-51254500D02*
X145860500Y-49744500D01*
X145179500Y-51052500D02*
X145179500Y-49744500D01*
X145980500Y-51269500D02*
X145980500Y-49744500D01*
X144979500Y-50951500D02*
X144979500Y-49744500D01*
X144499500Y-50605500D02*
X144499500Y-49744500D01*
X144019500Y-47664500D02*
X144019500Y-47385500D01*
X144899500Y-50904500D02*
X144899500Y-49744500D01*
X145059500Y-50994500D02*
X145059500Y-49744500D01*
X145940500Y-47664500D02*
X145940500Y-46143500D01*
X143979500Y-47664500D02*
X143979500Y-47453500D01*
X144539500Y-47664500D02*
X144539500Y-46767500D01*
X145139500Y-47664500D02*
X145139500Y-46375500D01*
X145219500Y-51069500D02*
X145219500Y-49744500D01*
X144339500Y-50447500D02*
X144339500Y-49744500D01*
X148880500Y-48704500D02*
G75*
G03*
X148880500Y-48704500I-2620000J0D01*
G01*
%TO.C,C11*%
X132039500Y-50799500D02*
X132039500Y-49744500D01*
X132559500Y-47664500D02*
X132559500Y-46322500D01*
X133160500Y-51254500D02*
X133160500Y-49744500D01*
X132519500Y-47664500D02*
X132519500Y-46339500D01*
X131999500Y-50769500D02*
X131999500Y-49744500D01*
X133240500Y-47664500D02*
X133240500Y-46143500D01*
X131559500Y-47664500D02*
X131559500Y-47051500D01*
X132759500Y-51159500D02*
X132759500Y-49744500D01*
X132799500Y-47664500D02*
X132799500Y-46236500D01*
X133280500Y-47664500D02*
X133280500Y-46139500D01*
X132759500Y-47664500D02*
X132759500Y-46249500D01*
X131879500Y-47664500D02*
X131879500Y-46733500D01*
X131839500Y-47664500D02*
X131839500Y-46767500D01*
X131199500Y-49802500D02*
X131199500Y-47606500D01*
X132119500Y-50853500D02*
X132119500Y-49744500D01*
X132599500Y-47664500D02*
X132599500Y-46306500D01*
X133520500Y-51284500D02*
X133520500Y-46124500D01*
X132559500Y-51086500D02*
X132559500Y-49744500D01*
X132479500Y-51052500D02*
X132479500Y-49744500D01*
X132679500Y-47664500D02*
X132679500Y-46276500D01*
X132159500Y-50879500D02*
X132159500Y-49744500D01*
X132039500Y-47664500D02*
X132039500Y-46609500D01*
X133320500Y-47664500D02*
X133320500Y-46135500D01*
X133080500Y-47664500D02*
X133080500Y-46168500D01*
X130999500Y-49222500D02*
X130999500Y-48186500D01*
X132839500Y-47664500D02*
X132839500Y-46224500D01*
X133200500Y-47664500D02*
X133200500Y-46148500D01*
X132399500Y-47664500D02*
X132399500Y-46394500D01*
X131479500Y-47664500D02*
X131479500Y-47150500D01*
X132159500Y-47664500D02*
X132159500Y-46529500D01*
X131679500Y-50489500D02*
X131679500Y-49744500D01*
X136365275Y-50179500D02*
X135865275Y-50179500D01*
X133040500Y-47664500D02*
X133040500Y-46176500D01*
X131799500Y-47664500D02*
X131799500Y-46803500D01*
X131639500Y-47664500D02*
X131639500Y-46961500D01*
X131079500Y-49509500D02*
X131079500Y-47899500D01*
X131919500Y-50708500D02*
X131919500Y-49744500D01*
X132199500Y-47664500D02*
X132199500Y-46504500D01*
X133560500Y-51284500D02*
X133560500Y-46124500D01*
X131239500Y-49882500D02*
X131239500Y-47526500D01*
X131719500Y-47664500D02*
X131719500Y-46878500D01*
X131679500Y-47664500D02*
X131679500Y-46919500D01*
X132960500Y-47664500D02*
X132960500Y-46193500D01*
X132079500Y-47664500D02*
X132079500Y-46582500D01*
X131559500Y-50357500D02*
X131559500Y-49744500D01*
X131319500Y-47664500D02*
X131319500Y-47385500D01*
X132679500Y-51132500D02*
X132679500Y-49744500D01*
X131399500Y-50147500D02*
X131399500Y-49744500D01*
X130959500Y-48988500D02*
X130959500Y-48420500D01*
X132199500Y-50904500D02*
X132199500Y-49744500D01*
X132239500Y-47664500D02*
X132239500Y-46480500D01*
X131999500Y-47664500D02*
X131999500Y-46639500D01*
X131439500Y-47664500D02*
X131439500Y-47204500D01*
X131959500Y-47664500D02*
X131959500Y-46669500D01*
X131359500Y-50087500D02*
X131359500Y-49744500D01*
X132479500Y-47664500D02*
X132479500Y-46356500D01*
X132799500Y-51172500D02*
X132799500Y-49744500D01*
X131159500Y-49715500D02*
X131159500Y-47693500D01*
X133360500Y-51277500D02*
X133360500Y-46131500D01*
X132319500Y-47664500D02*
X132319500Y-46436500D01*
X131479500Y-50258500D02*
X131479500Y-49744500D01*
X131599500Y-50403500D02*
X131599500Y-49744500D01*
X131039500Y-49381500D02*
X131039500Y-48027500D01*
X132960500Y-51215500D02*
X132960500Y-49744500D01*
X131719500Y-50530500D02*
X131719500Y-49744500D01*
X132079500Y-50826500D02*
X132079500Y-49744500D01*
X132920500Y-47664500D02*
X132920500Y-46203500D01*
X131359500Y-47664500D02*
X131359500Y-47321500D01*
X131119500Y-49619500D02*
X131119500Y-47789500D01*
X132880500Y-47664500D02*
X132880500Y-46213500D01*
X132439500Y-51033500D02*
X132439500Y-49744500D01*
X132399500Y-51014500D02*
X132399500Y-49744500D01*
X132319500Y-50972500D02*
X132319500Y-49744500D01*
X132119500Y-47664500D02*
X132119500Y-46555500D01*
X131439500Y-50204500D02*
X131439500Y-49744500D01*
X131279500Y-47664500D02*
X131279500Y-47453500D01*
X136115275Y-50429500D02*
X136115275Y-49929500D01*
X133120500Y-51247500D02*
X133120500Y-49744500D01*
X131319500Y-50023500D02*
X131319500Y-49744500D01*
X132439500Y-47664500D02*
X132439500Y-46375500D01*
X133000500Y-51224500D02*
X133000500Y-49744500D01*
X132719500Y-51146500D02*
X132719500Y-49744500D01*
X133000500Y-47664500D02*
X133000500Y-46184500D01*
X132239500Y-50928500D02*
X132239500Y-49744500D01*
X132639500Y-51118500D02*
X132639500Y-49744500D01*
X131839500Y-50641500D02*
X131839500Y-49744500D01*
X131279500Y-49955500D02*
X131279500Y-49744500D01*
X133160500Y-47664500D02*
X133160500Y-46154500D01*
X131759500Y-47664500D02*
X131759500Y-46840500D01*
X132279500Y-50951500D02*
X132279500Y-49744500D01*
X132920500Y-51205500D02*
X132920500Y-49744500D01*
X132279500Y-47664500D02*
X132279500Y-46457500D01*
X132359500Y-47664500D02*
X132359500Y-46414500D01*
X133440500Y-51282500D02*
X133440500Y-46126500D01*
X131919500Y-47664500D02*
X131919500Y-46700500D01*
X133280500Y-51269500D02*
X133280500Y-49744500D01*
X131759500Y-50568500D02*
X131759500Y-49744500D01*
X133200500Y-51260500D02*
X133200500Y-49744500D01*
X132719500Y-47664500D02*
X132719500Y-46262500D01*
X132359500Y-50994500D02*
X132359500Y-49744500D01*
X132599500Y-51102500D02*
X132599500Y-49744500D01*
X133320500Y-51273500D02*
X133320500Y-49744500D01*
X131799500Y-50605500D02*
X131799500Y-49744500D01*
X133040500Y-51232500D02*
X133040500Y-49744500D01*
X133480500Y-51283500D02*
X133480500Y-46125500D01*
X131599500Y-47664500D02*
X131599500Y-47005500D01*
X133400500Y-51280500D02*
X133400500Y-46128500D01*
X132880500Y-51195500D02*
X132880500Y-49744500D01*
X131399500Y-47664500D02*
X131399500Y-47261500D01*
X131959500Y-50739500D02*
X131959500Y-49744500D01*
X131519500Y-47664500D02*
X131519500Y-47099500D01*
X132639500Y-47664500D02*
X132639500Y-46290500D01*
X132519500Y-51069500D02*
X132519500Y-49744500D01*
X133240500Y-51265500D02*
X133240500Y-49744500D01*
X133080500Y-51240500D02*
X133080500Y-49744500D01*
X133120500Y-47664500D02*
X133120500Y-46161500D01*
X131639500Y-50447500D02*
X131639500Y-49744500D01*
X131879500Y-50675500D02*
X131879500Y-49744500D01*
X131519500Y-50309500D02*
X131519500Y-49744500D01*
X132839500Y-51184500D02*
X132839500Y-49744500D01*
X136180500Y-48704500D02*
G75*
G03*
X136180500Y-48704500I-2620000J0D01*
G01*
%TO.C,C10*%
X165892000Y-50708500D02*
X165892000Y-49744500D01*
X165252000Y-49955500D02*
X165252000Y-49744500D01*
X166172000Y-47664500D02*
X166172000Y-46504500D01*
X166132000Y-50879500D02*
X166132000Y-49744500D01*
X165532000Y-47664500D02*
X165532000Y-47051500D01*
X165532000Y-50357500D02*
X165532000Y-49744500D01*
X166052000Y-50826500D02*
X166052000Y-49744500D01*
X167293000Y-47664500D02*
X167293000Y-46135500D01*
X165092000Y-49619500D02*
X165092000Y-47789500D01*
X165452000Y-50258500D02*
X165452000Y-49744500D01*
X167253000Y-47664500D02*
X167253000Y-46139500D01*
X166092000Y-47664500D02*
X166092000Y-46555500D01*
X166652000Y-51132500D02*
X166652000Y-49744500D01*
X166092000Y-50853500D02*
X166092000Y-49744500D01*
X166893000Y-47664500D02*
X166893000Y-46203500D01*
X166692000Y-51146500D02*
X166692000Y-49744500D01*
X166772000Y-47664500D02*
X166772000Y-46236500D01*
X164932000Y-48988500D02*
X164932000Y-48420500D01*
X166572000Y-51102500D02*
X166572000Y-49744500D01*
X166332000Y-50994500D02*
X166332000Y-49744500D01*
X167133000Y-51254500D02*
X167133000Y-49744500D01*
X166893000Y-51205500D02*
X166893000Y-49744500D01*
X167173000Y-51260500D02*
X167173000Y-49744500D01*
X166853000Y-47664500D02*
X166853000Y-46213500D01*
X166492000Y-47664500D02*
X166492000Y-46339500D01*
X166812000Y-51184500D02*
X166812000Y-49744500D01*
X165732000Y-47664500D02*
X165732000Y-46840500D01*
X166252000Y-50951500D02*
X166252000Y-49744500D01*
X165172000Y-49802500D02*
X165172000Y-47606500D01*
X165572000Y-50403500D02*
X165572000Y-49744500D01*
X166412000Y-47664500D02*
X166412000Y-46375500D01*
X165852000Y-50675500D02*
X165852000Y-49744500D01*
X167453000Y-51283500D02*
X167453000Y-46125500D01*
X164972000Y-49222500D02*
X164972000Y-48186500D01*
X167213000Y-47664500D02*
X167213000Y-46143500D01*
X166812000Y-47664500D02*
X166812000Y-46224500D01*
X167053000Y-51240500D02*
X167053000Y-49744500D01*
X165492000Y-47664500D02*
X165492000Y-47099500D01*
X166372000Y-51014500D02*
X166372000Y-49744500D01*
X166973000Y-47664500D02*
X166973000Y-46184500D01*
X166933000Y-51215500D02*
X166933000Y-49744500D01*
X165732000Y-50568500D02*
X165732000Y-49744500D01*
X167013000Y-51232500D02*
X167013000Y-49744500D01*
X166172000Y-50904500D02*
X166172000Y-49744500D01*
X165292000Y-47664500D02*
X165292000Y-47385500D01*
X166452000Y-47664500D02*
X166452000Y-46356500D01*
X166332000Y-47664500D02*
X166332000Y-46414500D01*
X167093000Y-51247500D02*
X167093000Y-49744500D01*
X167133000Y-47664500D02*
X167133000Y-46154500D01*
X170087775Y-50429500D02*
X170087775Y-49929500D01*
X166933000Y-47664500D02*
X166933000Y-46193500D01*
X170337775Y-50179500D02*
X169837775Y-50179500D01*
X165052000Y-49509500D02*
X165052000Y-47899500D01*
X167293000Y-51273500D02*
X167293000Y-49744500D01*
X166532000Y-47664500D02*
X166532000Y-46322500D01*
X166772000Y-51172500D02*
X166772000Y-49744500D01*
X166853000Y-51195500D02*
X166853000Y-49744500D01*
X166012000Y-47664500D02*
X166012000Y-46609500D01*
X166492000Y-51069500D02*
X166492000Y-49744500D01*
X165372000Y-50147500D02*
X165372000Y-49744500D01*
X167253000Y-51269500D02*
X167253000Y-49744500D01*
X165812000Y-47664500D02*
X165812000Y-46767500D01*
X165012000Y-49381500D02*
X165012000Y-48027500D01*
X165372000Y-47664500D02*
X165372000Y-47261500D01*
X165652000Y-50489500D02*
X165652000Y-49744500D01*
X165612000Y-50447500D02*
X165612000Y-49744500D01*
X166052000Y-47664500D02*
X166052000Y-46582500D01*
X166372000Y-47664500D02*
X166372000Y-46394500D01*
X165652000Y-47664500D02*
X165652000Y-46919500D01*
X167013000Y-47664500D02*
X167013000Y-46176500D01*
X165252000Y-47664500D02*
X165252000Y-47453500D01*
X165612000Y-47664500D02*
X165612000Y-46961500D01*
X165932000Y-47664500D02*
X165932000Y-46669500D01*
X166973000Y-51224500D02*
X166973000Y-49744500D01*
X165412000Y-50204500D02*
X165412000Y-49744500D01*
X167213000Y-51265500D02*
X167213000Y-49744500D01*
X165852000Y-47664500D02*
X165852000Y-46733500D01*
X165492000Y-50309500D02*
X165492000Y-49744500D01*
X165932000Y-50739500D02*
X165932000Y-49744500D01*
X166692000Y-47664500D02*
X166692000Y-46262500D01*
X165332000Y-50087500D02*
X165332000Y-49744500D01*
X165132000Y-49715500D02*
X165132000Y-47693500D01*
X165692000Y-47664500D02*
X165692000Y-46878500D01*
X167173000Y-47664500D02*
X167173000Y-46148500D01*
X165412000Y-47664500D02*
X165412000Y-47204500D01*
X165572000Y-47664500D02*
X165572000Y-47005500D01*
X166452000Y-51052500D02*
X166452000Y-49744500D01*
X165332000Y-47664500D02*
X165332000Y-47321500D01*
X166732000Y-47664500D02*
X166732000Y-46249500D01*
X165292000Y-50023500D02*
X165292000Y-49744500D01*
X167493000Y-51284500D02*
X167493000Y-46124500D01*
X167413000Y-51282500D02*
X167413000Y-46126500D01*
X165772000Y-47664500D02*
X165772000Y-46803500D01*
X166012000Y-50799500D02*
X166012000Y-49744500D01*
X166612000Y-51118500D02*
X166612000Y-49744500D01*
X166652000Y-47664500D02*
X166652000Y-46276500D01*
X166612000Y-47664500D02*
X166612000Y-46290500D01*
X165692000Y-50530500D02*
X165692000Y-49744500D01*
X165892000Y-47664500D02*
X165892000Y-46700500D01*
X165772000Y-50605500D02*
X165772000Y-49744500D01*
X166212000Y-50928500D02*
X166212000Y-49744500D01*
X165972000Y-47664500D02*
X165972000Y-46639500D01*
X166132000Y-47664500D02*
X166132000Y-46529500D01*
X167333000Y-51277500D02*
X167333000Y-46131500D01*
X167093000Y-47664500D02*
X167093000Y-46161500D01*
X166532000Y-51086500D02*
X166532000Y-49744500D01*
X167373000Y-51280500D02*
X167373000Y-46128500D01*
X165212000Y-49882500D02*
X165212000Y-47526500D01*
X166572000Y-47664500D02*
X166572000Y-46306500D01*
X166292000Y-47664500D02*
X166292000Y-46436500D01*
X165812000Y-50641500D02*
X165812000Y-49744500D01*
X167053000Y-47664500D02*
X167053000Y-46168500D01*
X165972000Y-50769500D02*
X165972000Y-49744500D01*
X166412000Y-51033500D02*
X166412000Y-49744500D01*
X167533000Y-51284500D02*
X167533000Y-46124500D01*
X166732000Y-51159500D02*
X166732000Y-49744500D01*
X166292000Y-50972500D02*
X166292000Y-49744500D01*
X165452000Y-47664500D02*
X165452000Y-47150500D01*
X166252000Y-47664500D02*
X166252000Y-46457500D01*
X166212000Y-47664500D02*
X166212000Y-46480500D01*
X170153000Y-48704500D02*
G75*
G03*
X170153000Y-48704500I-2620000J0D01*
G01*
%TO.C,U4*%
X183495000Y-95490000D02*
X152775000Y-95490000D01*
X183435000Y-97980000D02*
X152835000Y-97980000D01*
X152835000Y-103280000D02*
X183435000Y-103280000D01*
X152835000Y-101630000D02*
X152835000Y-103280000D01*
X152775000Y-95490000D02*
X152775000Y-105770000D01*
X183495000Y-105770000D02*
X183495000Y-95490000D01*
X152835000Y-97980000D02*
X152835000Y-99630000D01*
X183435000Y-103280000D02*
X183435000Y-97980000D01*
X152775000Y-105770000D02*
X183495000Y-105770000D01*
X152835000Y-101630000D02*
G75*
G03*
X152835000Y-99630000I0J1000000D01*
G01*
%TO.C,J1*%
X192218000Y-78172000D02*
X193548000Y-78172000D01*
X192218000Y-80772000D02*
X194878000Y-80772000D01*
X192218000Y-79502000D02*
X192218000Y-78172000D01*
X192218000Y-83372000D02*
X194878000Y-83372000D01*
X192218000Y-80772000D02*
X192218000Y-83372000D01*
X194878000Y-80772000D02*
X194878000Y-83372000D01*
%TO.C,U3*%
X196740000Y-104330000D02*
X196740000Y-86430000D01*
X188950000Y-86370000D02*
X188950000Y-104390000D01*
X191440000Y-86430000D02*
X191440000Y-104330000D01*
X196740000Y-86430000D02*
X191440000Y-86430000D01*
X199230000Y-104390000D02*
X199230000Y-86370000D01*
X199230000Y-86370000D02*
X188950000Y-86370000D01*
X188950000Y-104390000D02*
X199230000Y-104390000D01*
X191440000Y-104330000D02*
X193090000Y-104330000D01*
X195090000Y-104330000D02*
X196740000Y-104330000D01*
X195090000Y-104330000D02*
G75*
G03*
X193090000Y-104330000I-1000000J0D01*
G01*
%TO.C,C17*%
X186230000Y-107430000D02*
X186245000Y-107430000D01*
X188355000Y-102890000D02*
X188370000Y-102890000D01*
X188370000Y-107430000D02*
X188370000Y-102890000D01*
X186230000Y-107430000D02*
X186230000Y-102890000D01*
X186230000Y-102890000D02*
X186245000Y-102890000D01*
X188355000Y-107430000D02*
X188370000Y-107430000D01*
%TO.C,Y1*%
X197125000Y-109415000D02*
X190875000Y-109415000D01*
X197125000Y-114465000D02*
X190875000Y-114465000D01*
X190875000Y-109415000D02*
G75*
G03*
X190875000Y-114465000I0J-2525000D01*
G01*
X197125000Y-114465000D02*
G75*
G03*
X197125000Y-109415000I0J2525000D01*
G01*
%TO.C,R1*%
X197260000Y-108570000D02*
X197260000Y-108900000D01*
X197260000Y-106160000D02*
X190720000Y-106160000D01*
X190720000Y-108900000D02*
X190720000Y-108570000D01*
X197260000Y-108900000D02*
X190720000Y-108900000D01*
X190720000Y-106160000D02*
X190720000Y-106490000D01*
X197260000Y-106490000D02*
X197260000Y-106160000D01*
%TO.C,C8*%
X193560000Y-115315000D02*
X193560000Y-115300000D01*
X198100000Y-117440000D02*
X193560000Y-117440000D01*
X198100000Y-117440000D02*
X198100000Y-117425000D01*
X198100000Y-115300000D02*
X193560000Y-115300000D01*
X193560000Y-117440000D02*
X193560000Y-117425000D01*
X198100000Y-115315000D02*
X198100000Y-115300000D01*
%TD*%
M02*
